<?xml version="1.0" standalone="no"?>
 <!DOCTYPE svg PUBLIC "-//W3C//DTD SVG 1.1//EN" 
 "http://www.w3.org/Graphics/SVG/1.1/DTD/svg11.dtd"> 
<svg
  xmlns:svg="http://www.w3.org/2000/svg"
  xmlns="http://www.w3.org/2000/svg"
  xmlns:xlink="http://www.w3.org/1999/xlink"
  version="1.1"
  width="297.0022mm" height="210.0072mm" viewBox="0.0000 0.0000 297.0022 210.0072">
<title>SVG Image created as Arduino_Basic_Shield-F_Silkscreen.svg date 2024/12/05 13:03:28 </title>
  <desc>Image generated by PCBNEW </desc>
<g style="fill:#000000; fill-opacity:1.0000;stroke:#000000; stroke-opacity:1.0000;
stroke-linecap:round; stroke-linejoin:round;"
 transform="translate(0 0) scale(1 1)">
</g>
<g style="fill:none; 
stroke:#000000; stroke-width:0.1000; stroke-opacity:1; 
stroke-linecap:round; stroke-linejoin:round;">
<text x="149.5000" y="110.5000"
textLength="10.5286" font-size="1.3333" lengthAdjust="spacingAndGlyphs"
text-anchor="start" opacity="0">dbb-pcb0001</text>
<g class="stroked-text"><desc>dbb-pcb0001</desc>
<path d="M150.2325 110.3724
L150.2325 109.3724
" />
<path d="M150.2325 110.3248
L150.1372 110.3724
" />
<path d="M150.1372 110.3724
L149.9467 110.3724
" />
<path d="M149.9467 110.3724
L149.8515 110.3248
" />
<path d="M149.8515 110.3248
L149.8039 110.2772
" />
<path d="M149.8039 110.2772
L149.7563 110.1819
" />
<path d="M149.7563 110.1819
L149.7563 109.8962
" />
<path d="M149.7563 109.8962
L149.8039 109.8010
" />
<path d="M149.8039 109.8010
L149.8515 109.7534
" />
<path d="M149.8515 109.7534
L149.9467 109.7058
" />
<path d="M149.9467 109.7058
L150.1372 109.7058
" />
<path d="M150.1372 109.7058
L150.2325 109.7534
" />
<path d="M150.7086 110.3724
L150.7086 109.3724
" />
<path d="M150.7086 109.7534
L150.8039 109.7058
" />
<path d="M150.8039 109.7058
L150.9944 109.7058
" />
<path d="M150.9944 109.7058
L151.0896 109.7534
" />
<path d="M151.0896 109.7534
L151.1372 109.8010
" />
<path d="M151.1372 109.8010
L151.1848 109.8962
" />
<path d="M151.1848 109.8962
L151.1848 110.1819
" />
<path d="M151.1848 110.1819
L151.1372 110.2772
" />
<path d="M151.1372 110.2772
L151.0896 110.3248
" />
<path d="M151.0896 110.3248
L150.9944 110.3724
" />
<path d="M150.9944 110.3724
L150.8039 110.3724
" />
<path d="M150.8039 110.3724
L150.7086 110.3248
" />
<path d="M151.6134 110.3724
L151.6134 109.3724
" />
<path d="M151.6134 109.7534
L151.7086 109.7058
" />
<path d="M151.7086 109.7058
L151.8991 109.7058
" />
<path d="M151.8991 109.7058
L151.9944 109.7534
" />
<path d="M151.9944 109.7534
L152.0420 109.8010
" />
<path d="M152.0420 109.8010
L152.0896 109.8962
" />
<path d="M152.0896 109.8962
L152.0896 110.1819
" />
<path d="M152.0896 110.1819
L152.0420 110.2772
" />
<path d="M152.0420 110.2772
L151.9944 110.3248
" />
<path d="M151.9944 110.3248
L151.8991 110.3724
" />
<path d="M151.8991 110.3724
L151.7086 110.3724
" />
<path d="M151.7086 110.3724
L151.6134 110.3248
" />
<path d="M152.5182 109.9915
L153.2801 109.9915
" />
<path d="M153.7563 109.7058
L153.7563 110.7058
" />
<path d="M153.7563 109.7534
L153.8515 109.7058
" />
<path d="M153.8515 109.7058
L154.0420 109.7058
" />
<path d="M154.0420 109.7058
L154.1372 109.7534
" />
<path d="M154.1372 109.7534
L154.1848 109.8010
" />
<path d="M154.1848 109.8010
L154.2325 109.8962
" />
<path d="M154.2325 109.8962
L154.2325 110.1819
" />
<path d="M154.2325 110.1819
L154.1848 110.2772
" />
<path d="M154.1848 110.2772
L154.1372 110.3248
" />
<path d="M154.1372 110.3248
L154.0420 110.3724
" />
<path d="M154.0420 110.3724
L153.8515 110.3724
" />
<path d="M153.8515 110.3724
L153.7563 110.3248
" />
<path d="M155.0896 110.3248
L154.9944 110.3724
" />
<path d="M154.9944 110.3724
L154.8039 110.3724
" />
<path d="M154.8039 110.3724
L154.7086 110.3248
" />
<path d="M154.7086 110.3248
L154.6610 110.2772
" />
<path d="M154.6610 110.2772
L154.6134 110.1819
" />
<path d="M154.6134 110.1819
L154.6134 109.8962
" />
<path d="M154.6134 109.8962
L154.6610 109.8010
" />
<path d="M154.6610 109.8010
L154.7086 109.7534
" />
<path d="M154.7086 109.7534
L154.8039 109.7058
" />
<path d="M154.8039 109.7058
L154.9944 109.7058
" />
<path d="M154.9944 109.7058
L155.0896 109.7534
" />
<path d="M155.5182 110.3724
L155.5182 109.3724
" />
<path d="M155.5182 109.7534
L155.6134 109.7058
" />
<path d="M155.6134 109.7058
L155.8039 109.7058
" />
<path d="M155.8039 109.7058
L155.8991 109.7534
" />
<path d="M155.8991 109.7534
L155.9467 109.8010
" />
<path d="M155.9467 109.8010
L155.9944 109.8962
" />
<path d="M155.9944 109.8962
L155.9944 110.1819
" />
<path d="M155.9944 110.1819
L155.9467 110.2772
" />
<path d="M155.9467 110.2772
L155.8991 110.3248
" />
<path d="M155.8991 110.3248
L155.8039 110.3724
" />
<path d="M155.8039 110.3724
L155.6134 110.3724
" />
<path d="M155.6134 110.3724
L155.5182 110.3248
" />
<path d="M156.6134 109.3724
L156.7086 109.3724
" />
<path d="M156.7086 109.3724
L156.8039 109.4200
" />
<path d="M156.8039 109.4200
L156.8515 109.4677
" />
<path d="M156.8515 109.4677
L156.8991 109.5629
" />
<path d="M156.8991 109.5629
L156.9467 109.7534
" />
<path d="M156.9467 109.7534
L156.9467 109.9915
" />
<path d="M156.9467 109.9915
L156.8991 110.1819
" />
<path d="M156.8991 110.1819
L156.8515 110.2772
" />
<path d="M156.8515 110.2772
L156.8039 110.3248
" />
<path d="M156.8039 110.3248
L156.7086 110.3724
" />
<path d="M156.7086 110.3724
L156.6134 110.3724
" />
<path d="M156.6134 110.3724
L156.5182 110.3248
" />
<path d="M156.5182 110.3248
L156.4706 110.2772
" />
<path d="M156.4706 110.2772
L156.4229 110.1819
" />
<path d="M156.4229 110.1819
L156.3753 109.9915
" />
<path d="M156.3753 109.9915
L156.3753 109.7534
" />
<path d="M156.3753 109.7534
L156.4229 109.5629
" />
<path d="M156.4229 109.5629
L156.4706 109.4677
" />
<path d="M156.4706 109.4677
L156.5182 109.4200
" />
<path d="M156.5182 109.4200
L156.6134 109.3724
" />
<path d="M157.5658 109.3724
L157.6610 109.3724
" />
<path d="M157.6610 109.3724
L157.7563 109.4200
" />
<path d="M157.7563 109.4200
L157.8039 109.4677
" />
<path d="M157.8039 109.4677
L157.8515 109.5629
" />
<path d="M157.8515 109.5629
L157.8991 109.7534
" />
<path d="M157.8991 109.7534
L157.8991 109.9915
" />
<path d="M157.8991 109.9915
L157.8515 110.1819
" />
<path d="M157.8515 110.1819
L157.8039 110.2772
" />
<path d="M157.8039 110.2772
L157.7563 110.3248
" />
<path d="M157.7563 110.3248
L157.6610 110.3724
" />
<path d="M157.6610 110.3724
L157.5658 110.3724
" />
<path d="M157.5658 110.3724
L157.4706 110.3248
" />
<path d="M157.4706 110.3248
L157.4229 110.2772
" />
<path d="M157.4229 110.2772
L157.3753 110.1819
" />
<path d="M157.3753 110.1819
L157.3277 109.9915
" />
<path d="M157.3277 109.9915
L157.3277 109.7534
" />
<path d="M157.3277 109.7534
L157.3753 109.5629
" />
<path d="M157.3753 109.5629
L157.4229 109.4677
" />
<path d="M157.4229 109.4677
L157.4706 109.4200
" />
<path d="M157.4706 109.4200
L157.5658 109.3724
" />
<path d="M158.5182 109.3724
L158.6134 109.3724
" />
<path d="M158.6134 109.3724
L158.7086 109.4200
" />
<path d="M158.7086 109.4200
L158.7563 109.4677
" />
<path d="M158.7563 109.4677
L158.8039 109.5629
" />
<path d="M158.8039 109.5629
L158.8515 109.7534
" />
<path d="M158.8515 109.7534
L158.8515 109.9915
" />
<path d="M158.8515 109.9915
L158.8039 110.1819
" />
<path d="M158.8039 110.1819
L158.7563 110.2772
" />
<path d="M158.7563 110.2772
L158.7086 110.3248
" />
<path d="M158.7086 110.3248
L158.6134 110.3724
" />
<path d="M158.6134 110.3724
L158.5182 110.3724
" />
<path d="M158.5182 110.3724
L158.4229 110.3248
" />
<path d="M158.4229 110.3248
L158.3753 110.2772
" />
<path d="M158.3753 110.2772
L158.3277 110.1819
" />
<path d="M158.3277 110.1819
L158.2801 109.9915
" />
<path d="M158.2801 109.9915
L158.2801 109.7534
" />
<path d="M158.2801 109.7534
L158.3277 109.5629
" />
<path d="M158.3277 109.5629
L158.3753 109.4677
" />
<path d="M158.3753 109.4677
L158.4229 109.4200
" />
<path d="M158.4229 109.4200
L158.5182 109.3724
" />
<path d="M159.8039 110.3724
L159.2325 110.3724
" />
<path d="M159.5182 110.3724
L159.5182 109.3724
" />
<path d="M159.5182 109.3724
L159.4229 109.5153
" />
<path d="M159.4229 109.5153
L159.3277 109.6105
" />
<path d="M159.3277 109.6105
L159.2325 109.6581
" />
</g><path style="fill:#000000; fill-opacity:1.0000; stroke:none;fill-rule:evenodd;"
d="M 139.9588,111.4551
139.9590,111.4554
139.9977,111.4908
140.0409,111.5711
140.0411,111.5750
140.0880,111.7495
140.0872,111.7534
140.0905,111.9755
140.0887,111.9793
140.0479,112.1557
140.0449,112.1596
140.0069,112.2416
140.0066,112.2418
139.9712,112.2805
139.8930,112.3226
139.8205,112.3250
139.7442,112.2897
139.7440,112.2894
139.7053,112.2540
139.6621,112.1738
139.6619,112.1698
139.6150,111.9954
139.6158,111.9915
139.6125,111.7693
139.6143,111.7655
139.6551,111.5892
139.6581,111.5853
139.6961,111.5032
139.6964,111.5030
139.7318,111.4643
139.8100,111.4222
139.8825,111.4198
Z" /> 
<path style="fill:#000000; fill-opacity:1.0000; stroke:none;fill-rule:evenodd;"
d="M 140.2983,112.5335
137.5973,112.5335
137.5973,111.8631
137.7084,111.8631
137.7101,111.8651
137.7101,111.8677
137.7220,111.8796
137.7326,111.8927
137.7353,111.8929
137.7371,111.8948
137.7540,111.8948
137.7707,111.8965
137.7728,111.8948
137.7754,111.8948
137.7916,111.8840
137.8270,111.8453
137.9050,111.8033
138.1192,111.8001
138.1969,111.8361
138.1971,111.8363
138.2358,111.8718
138.2778,111.9498
138.2809,112.1639
138.2450,112.2416
138.2447,112.2418
138.2093,112.2805
138.1313,112.3225
137.9171,112.3257
137.8394,112.2897
137.8392,112.2894
137.7754,112.2310
137.7371,112.2310
137.7101,112.2580
137.7101,112.2963
137.7209,112.3125
137.7644,112.3523
137.7661,112.3576
137.7815,112.3695
137.8734,112.4120
137.8800,112.4186
137.8934,112.4213
137.8956,112.4223
137.8967,112.4219
137.8991,112.4224
138.1309,112.4190
138.1408,112.4223
138.1541,112.4186
138.1564,112.4186
138.1572,112.4178
138.1596,112.4171
138.2453,112.3710
138.2516,112.3710
138.2678,112.3602
138.2701,112.3576
138.2702,112.3576
138.2702,112.3575
138.3076,112.3167
138.3128,112.3150
138.3248,112.2995
138.3673,112.2077
138.3739,112.2011
138.3766,112.1877
138.3776,112.1855
138.3772,112.1844
138.3777,112.1819
138.3743,111.9502
138.3776,111.9403
138.3739,111.9270
138.3739,111.9247
138.3731,111.9239
138.3724,111.9215
138.3263,111.8358
138.3263,111.8295
138.3154,111.8133
138.3129,111.8109
138.3128,111.8108
138.3128,111.8108
138.2720,111.7735
138.2702,111.7682
138.2548,111.7563
138.1629,111.7138
138.1564,111.7072
138.1430,111.7045
138.1408,111.7035
138.1397,111.7039
138.1372,111.7034
137.9055,111.7068
137.8956,111.7035
137.8823,111.7071
137.8800,111.7072
137.8792,111.7080
137.8768,111.7086
137.8164,111.7412
137.8458,111.4221
138.2992,111.4186
138.3263,111.3916
138.3263,111.3689
138.5635,111.3689
138.5660,111.3882
138.8980,112.3726
138.8969,112.3760
138.9038,112.3898
138.9090,112.4052
138.9123,112.4068
138.9140,112.4102
138.9290,112.4152
138.9432,112.4223
138.9467,112.4211
138.9503,112.4223
138.9645,112.4152
138.9795,112.4102
138.9812,112.4068
138.9845,112.4052
138.9942,112.3882
139.2033,111.7534
139.5158,111.7534
139.5191,111.9794
139.5163,111.9841
139.5173,112.0036
139.5650,112.1811
139.5635,112.1855
139.5687,112.2043
139.6148,112.2900
139.6148,112.2963
139.6257,112.3125
139.6282,112.3149
139.6283,112.3150
139.6283,112.3150
139.6691,112.3523
139.6709,112.3576
139.6863,112.3695
139.7782,112.4120
139.7848,112.4186
139.7981,112.4213
139.8003,112.4223
139.8014,112.4219
139.8039,112.4224
139.8940,112.4194
139.9027,112.4223
139.9158,112.4187
139.9183,112.4186
139.9191,112.4178
139.9215,112.4171
140.0072,112.3710
140.0135,112.3710
140.0297,112.3602
140.0321,112.3576
140.0321,112.3576
140.0322,112.3575
140.0695,112.3167
140.0747,112.3150
140.0867,112.2995
140.1264,112.2137
140.1298,112.2117
140.1381,112.1941
140.1797,112.0143
140.1834,112.0106
140.1872,111.9915
140.1839,111.7654
140.1867,111.7607
140.1857,111.7412
140.1380,111.5638
140.1395,111.5593
140.1343,111.5405
140.0882,111.4548
140.0882,111.4485
140.0773,111.4323
140.0748,111.4300
140.0747,111.4299
140.0747,111.4299
140.0339,111.3925
140.0321,111.3873
140.0167,111.3753
139.9248,111.3328
139.9183,111.3262
139.9049,111.3236
139.9027,111.3225
139.9016,111.3229
139.8991,111.3224
139.8090,111.3254
139.8003,111.3225
139.7872,111.3261
139.7848,111.3262
139.7839,111.3270
139.7815,111.3277
139.6958,111.3738
139.6895,111.3738
139.6733,111.3847
139.6710,111.3872
139.6709,111.3873
139.6708,111.3873
139.6335,111.4281
139.6283,111.4299
139.6163,111.4453
139.5766,111.5311
139.5732,111.5331
139.5649,111.5508
139.5233,111.7305
139.5196,111.7342
139.5158,111.7534
139.2033,111.7534
139.3299,111.3689
139.3128,111.3346
139.2765,111.3225
139.2423,111.3397
139.2326,111.3566
138.9482,112.2202
138.6512,111.3397
138.6170,111.3225
138.5806,111.3346
138.5635,111.3689
138.3263,111.3689
138.3263,111.3533
138.2992,111.3262
138.2801,111.3224
137.8047,111.3261
137.7894,111.3245
137.7874,111.3262
137.7848,111.3262
137.7728,111.3381
137.7598,111.3488
137.7588,111.3522
137.7577,111.3533
137.7577,111.3558
137.7541,111.3674
137.7117,111.8277
137.7101,111.8295
137.7101,111.8449
137.7084,111.8631
137.5973,111.8631
137.5973,111.2113
140.2983,111.2113
Z" /> 
<path style="fill:#000000; fill-opacity:1.0000; stroke:none;fill-rule:evenodd;"
d="M 136.7983,112.5335
134.0513,112.5335
134.0513,111.3533
134.1625,111.3533
134.1625,111.3916
134.1895,111.4186
134.2086,111.4224
134.7212,111.4194
134.4592,111.7232
134.4482,111.7342
134.4482,111.7360
134.4470,111.7374
134.4482,111.7549
134.4482,111.7725
134.4494,111.7738
134.4495,111.7755
134.4628,111.7871
134.4752,111.7996
134.4775,111.8000
134.4783,111.8007
134.4804,111.8006
134.4944,111.8034
134.6199,111.8004
134.6969,111.8361
134.6971,111.8363
134.7358,111.8718
134.7778,111.9498
134.7809,112.1639
134.7450,112.2416
134.7447,112.2418
134.7093,112.2805
134.6313,112.3225
134.3697,112.3258
134.2918,112.2897
134.2916,112.2894
134.2278,112.2310
134.1895,112.2310
134.1625,112.2580
134.1625,112.2963
134.1733,112.3125
134.2167,112.3523
134.2185,112.3576
134.2339,112.3695
134.3258,112.4120
134.3324,112.4186
134.3458,112.4213
134.3480,112.4223
134.3490,112.4219
134.3515,112.4224
134.6307,112.4189
134.6408,112.4223
134.6541,112.4186
134.6564,112.4186
134.6572,112.4178
134.6596,112.4171
134.7453,112.3710
134.7516,112.3710
134.7678,112.3602
134.7701,112.3576
134.7702,112.3576
134.7702,112.3575
134.8076,112.3167
134.8128,112.3150
134.8248,112.2995
134.8673,112.2077
134.8739,112.2011
134.8766,112.1877
134.8776,112.1855
134.8772,112.1844
134.8777,112.1819
134.8743,111.9502
134.8776,111.9403
134.8739,111.9270
134.8739,111.9247
134.8731,111.9239
134.8724,111.9215
134.8263,111.8358
134.8263,111.8295
134.8154,111.8133
134.8129,111.8109
134.8128,111.8108
134.8128,111.8108
134.7720,111.7735
134.7702,111.7682
134.7548,111.7563
134.6629,111.7138
134.6564,111.7072
134.6430,111.7045
134.6408,111.7035
134.6397,111.7039
134.6372,111.7034
134.6028,111.7042
134.8629,111.4026
134.8739,111.3916
134.8739,111.3898
134.8751,111.3884
134.8739,111.3709
134.8739,111.3689
135.0635,111.3689
135.0660,111.3882
135.3980,112.3726
135.3969,112.3760
135.4038,112.3898
135.4090,112.4052
135.4123,112.4068
135.4140,112.4102
135.4290,112.4152
135.4432,112.4223
135.4467,112.4211
135.4503,112.4223
135.4645,112.4152
135.4795,112.4102
135.4812,112.4068
135.4845,112.4052
135.4942,112.3882
135.8299,111.3689
135.8222,111.3533
135.9720,111.3533
135.9720,111.3916
135.9990,111.4186
136.0182,111.4224
136.5307,111.4194
136.2687,111.7232
136.2577,111.7342
136.2577,111.7360
136.2565,111.7374
136.2577,111.7549
136.2577,111.7725
136.2589,111.7738
136.2591,111.7755
136.2723,111.7871
136.2848,111.7996
136.2870,111.8000
136.2879,111.8007
136.2899,111.8006
136.3039,111.8034
136.4294,111.8004
136.5064,111.8361
136.5066,111.8363
136.5453,111.8718
136.5873,111.9498
136.5905,112.1639
136.5545,112.2416
136.5542,112.2418
136.5188,112.2805
136.4408,112.3225
136.1792,112.3258
136.1013,112.2897
136.1011,112.2894
136.0373,112.2310
135.9990,112.2310
135.9720,112.2580
135.9720,112.2963
135.9828,112.3125
136.0263,112.3523
136.0280,112.3576
136.0434,112.3695
136.1353,112.4120
136.1419,112.4186
136.1553,112.4213
136.1575,112.4223
136.1586,112.4219
136.1610,112.4224
136.4402,112.4189
136.4503,112.4223
136.4636,112.4186
136.4659,112.4186
136.4667,112.4178
136.4691,112.4171
136.5548,112.3710
136.5611,112.3710
136.5773,112.3602
136.5797,112.3576
136.5798,112.3576
136.5798,112.3575
136.6171,112.3167
136.6224,112.3150
136.6343,112.2995
136.6768,112.2077
136.6834,112.2011
136.6861,112.1877
136.6871,112.1855
136.6867,112.1844
136.6872,112.1819
136.6838,111.9502
136.6871,111.9403
136.6834,111.9270
136.6834,111.9247
136.6826,111.9239
136.6819,111.9215
136.6358,111.8358
136.6358,111.8295
136.6250,111.8133
136.6224,111.8109
136.6224,111.8108
136.6223,111.8108
136.5815,111.7735
136.5798,111.7682
136.5643,111.7563
136.4724,111.7138
136.4659,111.7072
136.4525,111.7045
136.4503,111.7035
136.4492,111.7039
136.4467,111.7034
136.4123,111.7042
136.6724,111.4026
136.6834,111.3916
136.6834,111.3898
136.6846,111.3884
136.6834,111.3709
136.6834,111.3533
136.6822,111.3520
136.6820,111.3503
136.6688,111.3387
136.6564,111.3262
136.6540,111.3258
136.6532,111.3251
136.6512,111.3252
136.6372,111.3224
135.9990,111.3262
135.9720,111.3533
135.8222,111.3533
135.8128,111.3346
135.7765,111.3225
135.7423,111.3397
135.7326,111.3566
135.4482,112.2202
135.1512,111.3397
135.1170,111.3225
135.0806,111.3346
135.0635,111.3689
134.8739,111.3689
134.8739,111.3533
134.8726,111.3520
134.8725,111.3503
134.8593,111.3387
134.8468,111.3262
134.8445,111.3258
134.8437,111.3251
134.8416,111.3252
134.8277,111.3224
134.1895,111.3262
134.1625,111.3533
134.0513,111.3533
134.0513,111.2113
136.7983,111.2113
Z" /> 
</g>
<g style="fill:none; 
stroke:#000000; stroke-width:0.1000; stroke-opacity:1; 
stroke-linecap:round; stroke-linejoin:round;">
<text x="149.5000" y="112.0000"
textLength="8.6714" font-size="1.3333" lengthAdjust="spacingAndGlyphs"
text-anchor="start" opacity="0">05.12.2024</text>
<g class="stroked-text"><desc>05.12.2024</desc>
<path d="M149.9944 110.8724
L150.0896 110.8724
" />
<path d="M150.0896 110.8724
L150.1848 110.9200
" />
<path d="M150.1848 110.9200
L150.2325 110.9677
" />
<path d="M150.2325 110.9677
L150.2801 111.0629
" />
<path d="M150.2801 111.0629
L150.3277 111.2534
" />
<path d="M150.3277 111.2534
L150.3277 111.4915
" />
<path d="M150.3277 111.4915
L150.2801 111.6819
" />
<path d="M150.2801 111.6819
L150.2325 111.7772
" />
<path d="M150.2325 111.7772
L150.1848 111.8248
" />
<path d="M150.1848 111.8248
L150.0896 111.8724
" />
<path d="M150.0896 111.8724
L149.9944 111.8724
" />
<path d="M149.9944 111.8724
L149.8991 111.8248
" />
<path d="M149.8991 111.8248
L149.8515 111.7772
" />
<path d="M149.8515 111.7772
L149.8039 111.6819
" />
<path d="M149.8039 111.6819
L149.7563 111.4915
" />
<path d="M149.7563 111.4915
L149.7563 111.2534
" />
<path d="M149.7563 111.2534
L149.8039 111.0629
" />
<path d="M149.8039 111.0629
L149.8515 110.9677
" />
<path d="M149.8515 110.9677
L149.8991 110.9200
" />
<path d="M149.8991 110.9200
L149.9944 110.8724
" />
<path d="M151.2325 110.8724
L150.7563 110.8724
" />
<path d="M150.7563 110.8724
L150.7086 111.3486
" />
<path d="M150.7086 111.3486
L150.7563 111.3010
" />
<path d="M150.7563 111.3010
L150.8515 111.2534
" />
<path d="M150.8515 111.2534
L151.0896 111.2534
" />
<path d="M151.0896 111.2534
L151.1848 111.3010
" />
<path d="M151.1848 111.3010
L151.2325 111.3486
" />
<path d="M151.2325 111.3486
L151.2801 111.4438
" />
<path d="M151.2801 111.4438
L151.2801 111.6819
" />
<path d="M151.2801 111.6819
L151.2325 111.7772
" />
<path d="M151.2325 111.7772
L151.1848 111.8248
" />
<path d="M151.1848 111.8248
L151.0896 111.8724
" />
<path d="M151.0896 111.8724
L150.8515 111.8724
" />
<path d="M150.8515 111.8724
L150.7563 111.8248
" />
<path d="M150.7563 111.8248
L150.7086 111.7772
" />
<path d="M151.7086 111.7772
L151.7563 111.8248
" />
<path d="M151.7563 111.8248
L151.7086 111.8724
" />
<path d="M151.7086 111.8724
L151.6610 111.8248
" />
<path d="M151.6610 111.8248
L151.7086 111.7772
" />
<path d="M151.7086 111.7772
L151.7086 111.8724
" />
<path d="M152.7086 111.8724
L152.1372 111.8724
" />
<path d="M152.4229 111.8724
L152.4229 110.8724
" />
<path d="M152.4229 110.8724
L152.3277 111.0153
" />
<path d="M152.3277 111.0153
L152.2325 111.1105
" />
<path d="M152.2325 111.1105
L152.1372 111.1581
" />
<path d="M153.0896 110.9677
L153.1372 110.9200
" />
<path d="M153.1372 110.9200
L153.2325 110.8724
" />
<path d="M153.2325 110.8724
L153.4706 110.8724
" />
<path d="M153.4706 110.8724
L153.5658 110.9200
" />
<path d="M153.5658 110.9200
L153.6134 110.9677
" />
<path d="M153.6134 110.9677
L153.6610 111.0629
" />
<path d="M153.6610 111.0629
L153.6610 111.1581
" />
<path d="M153.6610 111.1581
L153.6134 111.3010
" />
<path d="M153.6134 111.3010
L153.0420 111.8724
" />
<path d="M153.0420 111.8724
L153.6610 111.8724
" />
<path d="M154.0896 111.7772
L154.1372 111.8248
" />
<path d="M154.1372 111.8248
L154.0896 111.8724
" />
<path d="M154.0896 111.8724
L154.0420 111.8248
" />
<path d="M154.0420 111.8248
L154.0896 111.7772
" />
<path d="M154.0896 111.7772
L154.0896 111.8724
" />
<path d="M154.5182 110.9677
L154.5658 110.9200
" />
<path d="M154.5658 110.9200
L154.6610 110.8724
" />
<path d="M154.6610 110.8724
L154.8991 110.8724
" />
<path d="M154.8991 110.8724
L154.9944 110.9200
" />
<path d="M154.9944 110.9200
L155.0420 110.9677
" />
<path d="M155.0420 110.9677
L155.0896 111.0629
" />
<path d="M155.0896 111.0629
L155.0896 111.1581
" />
<path d="M155.0896 111.1581
L155.0420 111.3010
" />
<path d="M155.0420 111.3010
L154.4706 111.8724
" />
<path d="M154.4706 111.8724
L155.0896 111.8724
" />
<path d="M155.7086 110.8724
L155.8039 110.8724
" />
<path d="M155.8039 110.8724
L155.8991 110.9200
" />
<path d="M155.8991 110.9200
L155.9467 110.9677
" />
<path d="M155.9467 110.9677
L155.9944 111.0629
" />
<path d="M155.9944 111.0629
L156.0420 111.2534
" />
<path d="M156.0420 111.2534
L156.0420 111.4915
" />
<path d="M156.0420 111.4915
L155.9944 111.6819
" />
<path d="M155.9944 111.6819
L155.9467 111.7772
" />
<path d="M155.9467 111.7772
L155.8991 111.8248
" />
<path d="M155.8991 111.8248
L155.8039 111.8724
" />
<path d="M155.8039 111.8724
L155.7086 111.8724
" />
<path d="M155.7086 111.8724
L155.6134 111.8248
" />
<path d="M155.6134 111.8248
L155.5658 111.7772
" />
<path d="M155.5658 111.7772
L155.5182 111.6819
" />
<path d="M155.5182 111.6819
L155.4706 111.4915
" />
<path d="M155.4706 111.4915
L155.4706 111.2534
" />
<path d="M155.4706 111.2534
L155.5182 111.0629
" />
<path d="M155.5182 111.0629
L155.5658 110.9677
" />
<path d="M155.5658 110.9677
L155.6134 110.9200
" />
<path d="M155.6134 110.9200
L155.7086 110.8724
" />
<path d="M156.4229 110.9677
L156.4706 110.9200
" />
<path d="M156.4706 110.9200
L156.5658 110.8724
" />
<path d="M156.5658 110.8724
L156.8039 110.8724
" />
<path d="M156.8039 110.8724
L156.8991 110.9200
" />
<path d="M156.8991 110.9200
L156.9467 110.9677
" />
<path d="M156.9467 110.9677
L156.9944 111.0629
" />
<path d="M156.9944 111.0629
L156.9944 111.1581
" />
<path d="M156.9944 111.1581
L156.9467 111.3010
" />
<path d="M156.9467 111.3010
L156.3753 111.8724
" />
<path d="M156.3753 111.8724
L156.9944 111.8724
" />
<path d="M157.8515 111.2058
L157.8515 111.8724
" />
<path d="M157.6134 110.8248
L157.3753 111.5391
" />
<path d="M157.3753 111.5391
L157.9944 111.5391
" />
</g><text x="149.5000" y="105.0000"
textLength="9.2905" font-size="1.3333" lengthAdjust="spacingAndGlyphs"
text-anchor="start" opacity="0">GIT:a088ca5</text>
<g class="stroked-text"><desc>GIT:a088ca5</desc>
<path d="M150.3277 103.9200
L150.2325 103.8724
" />
<path d="M150.2325 103.8724
L150.0896 103.8724
" />
<path d="M150.0896 103.8724
L149.9467 103.9200
" />
<path d="M149.9467 103.9200
L149.8515 104.0153
" />
<path d="M149.8515 104.0153
L149.8039 104.1105
" />
<path d="M149.8039 104.1105
L149.7563 104.3010
" />
<path d="M149.7563 104.3010
L149.7563 104.4438
" />
<path d="M149.7563 104.4438
L149.8039 104.6343
" />
<path d="M149.8039 104.6343
L149.8515 104.7296
" />
<path d="M149.8515 104.7296
L149.9467 104.8248
" />
<path d="M149.9467 104.8248
L150.0896 104.8724
" />
<path d="M150.0896 104.8724
L150.1848 104.8724
" />
<path d="M150.1848 104.8724
L150.3277 104.8248
" />
<path d="M150.3277 104.8248
L150.3753 104.7772
" />
<path d="M150.3753 104.7772
L150.3753 104.4438
" />
<path d="M150.3753 104.4438
L150.1848 104.4438
" />
<path d="M150.8039 104.8724
L150.8039 103.8724
" />
<path d="M151.1372 103.8724
L151.7086 103.8724
" />
<path d="M151.4229 104.8724
L151.4229 103.8724
" />
<path d="M152.0420 104.7772
L152.0896 104.8248
" />
<path d="M152.0896 104.8248
L152.0420 104.8724
" />
<path d="M152.0420 104.8724
L151.9944 104.8248
" />
<path d="M151.9944 104.8248
L152.0420 104.7772
" />
<path d="M152.0420 104.7772
L152.0420 104.8724
" />
<path d="M152.0420 104.2534
L152.0896 104.3010
" />
<path d="M152.0896 104.3010
L152.0420 104.3486
" />
<path d="M152.0420 104.3486
L151.9944 104.3010
" />
<path d="M151.9944 104.3010
L152.0420 104.2534
" />
<path d="M152.0420 104.2534
L152.0420 104.3486
" />
<path d="M152.9467 104.8724
L152.9467 104.3486
" />
<path d="M152.9467 104.3486
L152.8991 104.2534
" />
<path d="M152.8991 104.2534
L152.8039 104.2058
" />
<path d="M152.8039 104.2058
L152.6134 104.2058
" />
<path d="M152.6134 104.2058
L152.5182 104.2534
" />
<path d="M152.9467 104.8248
L152.8515 104.8724
" />
<path d="M152.8515 104.8724
L152.6134 104.8724
" />
<path d="M152.6134 104.8724
L152.5182 104.8248
" />
<path d="M152.5182 104.8248
L152.4706 104.7296
" />
<path d="M152.4706 104.7296
L152.4706 104.6343
" />
<path d="M152.4706 104.6343
L152.5182 104.5391
" />
<path d="M152.5182 104.5391
L152.6134 104.4915
" />
<path d="M152.6134 104.4915
L152.8515 104.4915
" />
<path d="M152.8515 104.4915
L152.9467 104.4438
" />
<path d="M153.6134 103.8724
L153.7086 103.8724
" />
<path d="M153.7086 103.8724
L153.8039 103.9200
" />
<path d="M153.8039 103.9200
L153.8515 103.9677
" />
<path d="M153.8515 103.9677
L153.8991 104.0629
" />
<path d="M153.8991 104.0629
L153.9467 104.2534
" />
<path d="M153.9467 104.2534
L153.9467 104.4915
" />
<path d="M153.9467 104.4915
L153.8991 104.6819
" />
<path d="M153.8991 104.6819
L153.8515 104.7772
" />
<path d="M153.8515 104.7772
L153.8039 104.8248
" />
<path d="M153.8039 104.8248
L153.7086 104.8724
" />
<path d="M153.7086 104.8724
L153.6134 104.8724
" />
<path d="M153.6134 104.8724
L153.5182 104.8248
" />
<path d="M153.5182 104.8248
L153.4706 104.7772
" />
<path d="M153.4706 104.7772
L153.4229 104.6819
" />
<path d="M153.4229 104.6819
L153.3753 104.4915
" />
<path d="M153.3753 104.4915
L153.3753 104.2534
" />
<path d="M153.3753 104.2534
L153.4229 104.0629
" />
<path d="M153.4229 104.0629
L153.4706 103.9677
" />
<path d="M153.4706 103.9677
L153.5182 103.9200
" />
<path d="M153.5182 103.9200
L153.6134 103.8724
" />
<path d="M154.5182 104.3010
L154.4229 104.2534
" />
<path d="M154.4229 104.2534
L154.3753 104.2058
" />
<path d="M154.3753 104.2058
L154.3277 104.1105
" />
<path d="M154.3277 104.1105
L154.3277 104.0629
" />
<path d="M154.3277 104.0629
L154.3753 103.9677
" />
<path d="M154.3753 103.9677
L154.4229 103.9200
" />
<path d="M154.4229 103.9200
L154.5182 103.8724
" />
<path d="M154.5182 103.8724
L154.7086 103.8724
" />
<path d="M154.7086 103.8724
L154.8039 103.9200
" />
<path d="M154.8039 103.9200
L154.8515 103.9677
" />
<path d="M154.8515 103.9677
L154.8991 104.0629
" />
<path d="M154.8991 104.0629
L154.8991 104.1105
" />
<path d="M154.8991 104.1105
L154.8515 104.2058
" />
<path d="M154.8515 104.2058
L154.8039 104.2534
" />
<path d="M154.8039 104.2534
L154.7086 104.3010
" />
<path d="M154.7086 104.3010
L154.5182 104.3010
" />
<path d="M154.5182 104.3010
L154.4229 104.3486
" />
<path d="M154.4229 104.3486
L154.3753 104.3962
" />
<path d="M154.3753 104.3962
L154.3277 104.4915
" />
<path d="M154.3277 104.4915
L154.3277 104.6819
" />
<path d="M154.3277 104.6819
L154.3753 104.7772
" />
<path d="M154.3753 104.7772
L154.4229 104.8248
" />
<path d="M154.4229 104.8248
L154.5182 104.8724
" />
<path d="M154.5182 104.8724
L154.7086 104.8724
" />
<path d="M154.7086 104.8724
L154.8039 104.8248
" />
<path d="M154.8039 104.8248
L154.8515 104.7772
" />
<path d="M154.8515 104.7772
L154.8991 104.6819
" />
<path d="M154.8991 104.6819
L154.8991 104.4915
" />
<path d="M154.8991 104.4915
L154.8515 104.3962
" />
<path d="M154.8515 104.3962
L154.8039 104.3486
" />
<path d="M154.8039 104.3486
L154.7086 104.3010
" />
<path d="M155.4706 104.3010
L155.3753 104.2534
" />
<path d="M155.3753 104.2534
L155.3277 104.2058
" />
<path d="M155.3277 104.2058
L155.2801 104.1105
" />
<path d="M155.2801 104.1105
L155.2801 104.0629
" />
<path d="M155.2801 104.0629
L155.3277 103.9677
" />
<path d="M155.3277 103.9677
L155.3753 103.9200
" />
<path d="M155.3753 103.9200
L155.4706 103.8724
" />
<path d="M155.4706 103.8724
L155.6610 103.8724
" />
<path d="M155.6610 103.8724
L155.7563 103.9200
" />
<path d="M155.7563 103.9200
L155.8039 103.9677
" />
<path d="M155.8039 103.9677
L155.8515 104.0629
" />
<path d="M155.8515 104.0629
L155.8515 104.1105
" />
<path d="M155.8515 104.1105
L155.8039 104.2058
" />
<path d="M155.8039 104.2058
L155.7563 104.2534
" />
<path d="M155.7563 104.2534
L155.6610 104.3010
" />
<path d="M155.6610 104.3010
L155.4706 104.3010
" />
<path d="M155.4706 104.3010
L155.3753 104.3486
" />
<path d="M155.3753 104.3486
L155.3277 104.3962
" />
<path d="M155.3277 104.3962
L155.2801 104.4915
" />
<path d="M155.2801 104.4915
L155.2801 104.6819
" />
<path d="M155.2801 104.6819
L155.3277 104.7772
" />
<path d="M155.3277 104.7772
L155.3753 104.8248
" />
<path d="M155.3753 104.8248
L155.4706 104.8724
" />
<path d="M155.4706 104.8724
L155.6610 104.8724
" />
<path d="M155.6610 104.8724
L155.7563 104.8248
" />
<path d="M155.7563 104.8248
L155.8039 104.7772
" />
<path d="M155.8039 104.7772
L155.8515 104.6819
" />
<path d="M155.8515 104.6819
L155.8515 104.4915
" />
<path d="M155.8515 104.4915
L155.8039 104.3962
" />
<path d="M155.8039 104.3962
L155.7563 104.3486
" />
<path d="M155.7563 104.3486
L155.6610 104.3010
" />
<path d="M156.7086 104.8248
L156.6134 104.8724
" />
<path d="M156.6134 104.8724
L156.4229 104.8724
" />
<path d="M156.4229 104.8724
L156.3277 104.8248
" />
<path d="M156.3277 104.8248
L156.2801 104.7772
" />
<path d="M156.2801 104.7772
L156.2325 104.6819
" />
<path d="M156.2325 104.6819
L156.2325 104.3962
" />
<path d="M156.2325 104.3962
L156.2801 104.3010
" />
<path d="M156.2801 104.3010
L156.3277 104.2534
" />
<path d="M156.3277 104.2534
L156.4229 104.2058
" />
<path d="M156.4229 104.2058
L156.6134 104.2058
" />
<path d="M156.6134 104.2058
L156.7086 104.2534
" />
<path d="M157.5658 104.8724
L157.5658 104.3486
" />
<path d="M157.5658 104.3486
L157.5182 104.2534
" />
<path d="M157.5182 104.2534
L157.4229 104.2058
" />
<path d="M157.4229 104.2058
L157.2325 104.2058
" />
<path d="M157.2325 104.2058
L157.1372 104.2534
" />
<path d="M157.5658 104.8248
L157.4706 104.8724
" />
<path d="M157.4706 104.8724
L157.2325 104.8724
" />
<path d="M157.2325 104.8724
L157.1372 104.8248
" />
<path d="M157.1372 104.8248
L157.0896 104.7296
" />
<path d="M157.0896 104.7296
L157.0896 104.6343
" />
<path d="M157.0896 104.6343
L157.1372 104.5391
" />
<path d="M157.1372 104.5391
L157.2325 104.4915
" />
<path d="M157.2325 104.4915
L157.4706 104.4915
" />
<path d="M157.4706 104.4915
L157.5658 104.4438
" />
<path d="M158.5182 103.8724
L158.0420 103.8724
" />
<path d="M158.0420 103.8724
L157.9944 104.3486
" />
<path d="M157.9944 104.3486
L158.0420 104.3010
" />
<path d="M158.0420 104.3010
L158.1372 104.2534
" />
<path d="M158.1372 104.2534
L158.3753 104.2534
" />
<path d="M158.3753 104.2534
L158.4706 104.3010
" />
<path d="M158.4706 104.3010
L158.5182 104.3486
" />
<path d="M158.5182 104.3486
L158.5658 104.4438
" />
<path d="M158.5658 104.4438
L158.5658 104.6819
" />
<path d="M158.5658 104.6819
L158.5182 104.7772
" />
<path d="M158.5182 104.7772
L158.4706 104.8248
" />
<path d="M158.4706 104.8248
L158.3753 104.8724
" />
<path d="M158.3753 104.8724
L158.1372 104.8724
" />
<path d="M158.1372 104.8724
L158.0420 104.8248
" />
<path d="M158.0420 104.8248
L157.9944 104.7772
" />
</g><text x="149.5000" y="109.0000"
textLength="15.8619" font-size="1.3333" lengthAdjust="spacingAndGlyphs"
text-anchor="start" opacity="0">Arduino_Basic_Shield</text>
<g class="stroked-text"><desc>Arduino_Basic_Shield</desc>
<path d="M149.7563 108.5867
L150.2325 108.5867
" />
<path d="M149.6610 108.8724
L149.9944 107.8724
" />
<path d="M149.9944 107.8724
L150.3277 108.8724
" />
<path d="M150.6610 108.8724
L150.6610 108.2058
" />
<path d="M150.6610 108.3962
L150.7086 108.3010
" />
<path d="M150.7086 108.3010
L150.7563 108.2534
" />
<path d="M150.7563 108.2534
L150.8515 108.2058
" />
<path d="M150.8515 108.2058
L150.9467 108.2058
" />
<path d="M151.7086 108.8724
L151.7086 107.8724
" />
<path d="M151.7086 108.8248
L151.6134 108.8724
" />
<path d="M151.6134 108.8724
L151.4229 108.8724
" />
<path d="M151.4229 108.8724
L151.3277 108.8248
" />
<path d="M151.3277 108.8248
L151.2801 108.7772
" />
<path d="M151.2801 108.7772
L151.2325 108.6819
" />
<path d="M151.2325 108.6819
L151.2325 108.3962
" />
<path d="M151.2325 108.3962
L151.2801 108.3010
" />
<path d="M151.2801 108.3010
L151.3277 108.2534
" />
<path d="M151.3277 108.2534
L151.4229 108.2058
" />
<path d="M151.4229 108.2058
L151.6134 108.2058
" />
<path d="M151.6134 108.2058
L151.7086 108.2534
" />
<path d="M152.6134 108.2058
L152.6134 108.8724
" />
<path d="M152.1848 108.2058
L152.1848 108.7296
" />
<path d="M152.1848 108.7296
L152.2325 108.8248
" />
<path d="M152.2325 108.8248
L152.3277 108.8724
" />
<path d="M152.3277 108.8724
L152.4706 108.8724
" />
<path d="M152.4706 108.8724
L152.5658 108.8248
" />
<path d="M152.5658 108.8248
L152.6134 108.7772
" />
<path d="M153.0896 108.8724
L153.0896 108.2058
" />
<path d="M153.0896 107.8724
L153.0420 107.9200
" />
<path d="M153.0420 107.9200
L153.0896 107.9677
" />
<path d="M153.0896 107.9677
L153.1372 107.9200
" />
<path d="M153.1372 107.9200
L153.0896 107.8724
" />
<path d="M153.0896 107.8724
L153.0896 107.9677
" />
<path d="M153.5658 108.2058
L153.5658 108.8724
" />
<path d="M153.5658 108.3010
L153.6134 108.2534
" />
<path d="M153.6134 108.2534
L153.7086 108.2058
" />
<path d="M153.7086 108.2058
L153.8515 108.2058
" />
<path d="M153.8515 108.2058
L153.9467 108.2534
" />
<path d="M153.9467 108.2534
L153.9944 108.3486
" />
<path d="M153.9944 108.3486
L153.9944 108.8724
" />
<path d="M154.6134 108.8724
L154.5182 108.8248
" />
<path d="M154.5182 108.8248
L154.4706 108.7772
" />
<path d="M154.4706 108.7772
L154.4229 108.6819
" />
<path d="M154.4229 108.6819
L154.4229 108.3962
" />
<path d="M154.4229 108.3962
L154.4706 108.3010
" />
<path d="M154.4706 108.3010
L154.5182 108.2534
" />
<path d="M154.5182 108.2534
L154.6134 108.2058
" />
<path d="M154.6134 108.2058
L154.7563 108.2058
" />
<path d="M154.7563 108.2058
L154.8515 108.2534
" />
<path d="M154.8515 108.2534
L154.8991 108.3010
" />
<path d="M154.8991 108.3010
L154.9467 108.3962
" />
<path d="M154.9467 108.3962
L154.9467 108.6819
" />
<path d="M154.9467 108.6819
L154.8991 108.7772
" />
<path d="M154.8991 108.7772
L154.8515 108.8248
" />
<path d="M154.8515 108.8248
L154.7563 108.8724
" />
<path d="M154.7563 108.8724
L154.6134 108.8724
" />
<path d="M155.1372 108.9677
L155.8991 108.9677
" />
<path d="M156.4706 108.3486
L156.6134 108.3962
" />
<path d="M156.6134 108.3962
L156.6610 108.4438
" />
<path d="M156.6610 108.4438
L156.7086 108.5391
" />
<path d="M156.7086 108.5391
L156.7086 108.6819
" />
<path d="M156.7086 108.6819
L156.6610 108.7772
" />
<path d="M156.6610 108.7772
L156.6134 108.8248
" />
<path d="M156.6134 108.8248
L156.5182 108.8724
" />
<path d="M156.5182 108.8724
L156.1372 108.8724
" />
<path d="M156.1372 108.8724
L156.1372 107.8724
" />
<path d="M156.1372 107.8724
L156.4706 107.8724
" />
<path d="M156.4706 107.8724
L156.5658 107.9200
" />
<path d="M156.5658 107.9200
L156.6134 107.9677
" />
<path d="M156.6134 107.9677
L156.6610 108.0629
" />
<path d="M156.6610 108.0629
L156.6610 108.1581
" />
<path d="M156.6610 108.1581
L156.6134 108.2534
" />
<path d="M156.6134 108.2534
L156.5658 108.3010
" />
<path d="M156.5658 108.3010
L156.4706 108.3486
" />
<path d="M156.4706 108.3486
L156.1372 108.3486
" />
<path d="M157.5658 108.8724
L157.5658 108.3486
" />
<path d="M157.5658 108.3486
L157.5182 108.2534
" />
<path d="M157.5182 108.2534
L157.4229 108.2058
" />
<path d="M157.4229 108.2058
L157.2325 108.2058
" />
<path d="M157.2325 108.2058
L157.1372 108.2534
" />
<path d="M157.5658 108.8248
L157.4706 108.8724
" />
<path d="M157.4706 108.8724
L157.2325 108.8724
" />
<path d="M157.2325 108.8724
L157.1372 108.8248
" />
<path d="M157.1372 108.8248
L157.0896 108.7296
" />
<path d="M157.0896 108.7296
L157.0896 108.6343
" />
<path d="M157.0896 108.6343
L157.1372 108.5391
" />
<path d="M157.1372 108.5391
L157.2325 108.4915
" />
<path d="M157.2325 108.4915
L157.4706 108.4915
" />
<path d="M157.4706 108.4915
L157.5658 108.4438
" />
<path d="M157.9944 108.8248
L158.0896 108.8724
" />
<path d="M158.0896 108.8724
L158.2801 108.8724
" />
<path d="M158.2801 108.8724
L158.3753 108.8248
" />
<path d="M158.3753 108.8248
L158.4229 108.7296
" />
<path d="M158.4229 108.7296
L158.4229 108.6819
" />
<path d="M158.4229 108.6819
L158.3753 108.5867
" />
<path d="M158.3753 108.5867
L158.2801 108.5391
" />
<path d="M158.2801 108.5391
L158.1372 108.5391
" />
<path d="M158.1372 108.5391
L158.0420 108.4915
" />
<path d="M158.0420 108.4915
L157.9944 108.3962
" />
<path d="M157.9944 108.3962
L157.9944 108.3486
" />
<path d="M157.9944 108.3486
L158.0420 108.2534
" />
<path d="M158.0420 108.2534
L158.1372 108.2058
" />
<path d="M158.1372 108.2058
L158.2801 108.2058
" />
<path d="M158.2801 108.2058
L158.3753 108.2534
" />
<path d="M158.8515 108.8724
L158.8515 108.2058
" />
<path d="M158.8515 107.8724
L158.8039 107.9200
" />
<path d="M158.8039 107.9200
L158.8515 107.9677
" />
<path d="M158.8515 107.9677
L158.8991 107.9200
" />
<path d="M158.8991 107.9200
L158.8515 107.8724
" />
<path d="M158.8515 107.8724
L158.8515 107.9677
" />
<path d="M159.7563 108.8248
L159.6610 108.8724
" />
<path d="M159.6610 108.8724
L159.4706 108.8724
" />
<path d="M159.4706 108.8724
L159.3753 108.8248
" />
<path d="M159.3753 108.8248
L159.3277 108.7772
" />
<path d="M159.3277 108.7772
L159.2801 108.6819
" />
<path d="M159.2801 108.6819
L159.2801 108.3962
" />
<path d="M159.2801 108.3962
L159.3277 108.3010
" />
<path d="M159.3277 108.3010
L159.3753 108.2534
" />
<path d="M159.3753 108.2534
L159.4706 108.2058
" />
<path d="M159.4706 108.2058
L159.6610 108.2058
" />
<path d="M159.6610 108.2058
L159.7563 108.2534
" />
<path d="M159.9467 108.9677
L160.7086 108.9677
" />
<path d="M160.8991 108.8248
L161.0420 108.8724
" />
<path d="M161.0420 108.8724
L161.2801 108.8724
" />
<path d="M161.2801 108.8724
L161.3753 108.8248
" />
<path d="M161.3753 108.8248
L161.4229 108.7772
" />
<path d="M161.4229 108.7772
L161.4706 108.6819
" />
<path d="M161.4706 108.6819
L161.4706 108.5867
" />
<path d="M161.4706 108.5867
L161.4229 108.4915
" />
<path d="M161.4229 108.4915
L161.3753 108.4438
" />
<path d="M161.3753 108.4438
L161.2801 108.3962
" />
<path d="M161.2801 108.3962
L161.0896 108.3486
" />
<path d="M161.0896 108.3486
L160.9944 108.3010
" />
<path d="M160.9944 108.3010
L160.9467 108.2534
" />
<path d="M160.9467 108.2534
L160.8991 108.1581
" />
<path d="M160.8991 108.1581
L160.8991 108.0629
" />
<path d="M160.8991 108.0629
L160.9467 107.9677
" />
<path d="M160.9467 107.9677
L160.9944 107.9200
" />
<path d="M160.9944 107.9200
L161.0896 107.8724
" />
<path d="M161.0896 107.8724
L161.3277 107.8724
" />
<path d="M161.3277 107.8724
L161.4706 107.9200
" />
<path d="M161.8991 108.8724
L161.8991 107.8724
" />
<path d="M162.3277 108.8724
L162.3277 108.3486
" />
<path d="M162.3277 108.3486
L162.2801 108.2534
" />
<path d="M162.2801 108.2534
L162.1848 108.2058
" />
<path d="M162.1848 108.2058
L162.0420 108.2058
" />
<path d="M162.0420 108.2058
L161.9467 108.2534
" />
<path d="M161.9467 108.2534
L161.8991 108.3010
" />
<path d="M162.8039 108.8724
L162.8039 108.2058
" />
<path d="M162.8039 107.8724
L162.7563 107.9200
" />
<path d="M162.7563 107.9200
L162.8039 107.9677
" />
<path d="M162.8039 107.9677
L162.8515 107.9200
" />
<path d="M162.8515 107.9200
L162.8039 107.8724
" />
<path d="M162.8039 107.8724
L162.8039 107.9677
" />
<path d="M163.6610 108.8248
L163.5658 108.8724
" />
<path d="M163.5658 108.8724
L163.3753 108.8724
" />
<path d="M163.3753 108.8724
L163.2801 108.8248
" />
<path d="M163.2801 108.8248
L163.2325 108.7296
" />
<path d="M163.2325 108.7296
L163.2325 108.3486
" />
<path d="M163.2325 108.3486
L163.2801 108.2534
" />
<path d="M163.2801 108.2534
L163.3753 108.2058
" />
<path d="M163.3753 108.2058
L163.5658 108.2058
" />
<path d="M163.5658 108.2058
L163.6610 108.2534
" />
<path d="M163.6610 108.2534
L163.7086 108.3486
" />
<path d="M163.7086 108.3486
L163.7086 108.4438
" />
<path d="M163.7086 108.4438
L163.2325 108.5391
" />
<path d="M164.2801 108.8724
L164.1848 108.8248
" />
<path d="M164.1848 108.8248
L164.1372 108.7296
" />
<path d="M164.1372 108.7296
L164.1372 107.8724
" />
<path d="M165.0896 108.8724
L165.0896 107.8724
" />
<path d="M165.0896 108.8248
L164.9944 108.8724
" />
<path d="M164.9944 108.8724
L164.8039 108.8724
" />
<path d="M164.8039 108.8724
L164.7086 108.8248
" />
<path d="M164.7086 108.8248
L164.6610 108.7772
" />
<path d="M164.6610 108.7772
L164.6134 108.6819
" />
<path d="M164.6134 108.6819
L164.6134 108.3962
" />
<path d="M164.6134 108.3962
L164.6610 108.3010
" />
<path d="M164.6610 108.3010
L164.7086 108.2534
" />
<path d="M164.7086 108.2534
L164.8039 108.2058
" />
<path d="M164.8039 108.2058
L164.9944 108.2058
" />
<path d="M164.9944 108.2058
L165.0896 108.2534
" />
</g><g transform="rotate(-270.000000 140.5000 120.0000)">
<text x="140.5000" y="120.5000"
textLength="2.0524" font-size="1.3333" lengthAdjust="spacingAndGlyphs"
text-anchor="middle" opacity="0">R1</text>
</g>
<g class="stroked-text"><desc>R1</desc>
<path d="M140.0426 119.8333
L140.5188 119.5000
" />
<path d="M140.0426 119.2619
L141.0426 119.2619
" />
<path d="M141.0426 119.2619
L141.0426 119.6429
" />
<path d="M141.0426 119.6429
L140.9950 119.7381
" />
<path d="M140.9950 119.7381
L140.9473 119.7857
" />
<path d="M140.9473 119.7857
L140.8521 119.8333
" />
<path d="M140.8521 119.8333
L140.7092 119.8333
" />
<path d="M140.7092 119.8333
L140.6140 119.7857
" />
<path d="M140.6140 119.7857
L140.5664 119.7381
" />
<path d="M140.5664 119.7381
L140.5188 119.6429
" />
<path d="M140.5188 119.6429
L140.5188 119.2619
" />
<path d="M140.0426 120.7857
L140.0426 120.2143
" />
<path d="M140.0426 120.5000
L141.0426 120.5000
" />
<path d="M141.0426 120.5000
L140.8997 120.4048
" />
<path d="M140.8997 120.4048
L140.8045 120.3095
" />
<path d="M140.8045 120.3095
L140.7569 120.2143
" />
</g><g transform="rotate(-270.000000 137.0000 115.5000)">
<text x="137.0000" y="116.0000"
textLength="2.0524" font-size="1.3333" lengthAdjust="spacingAndGlyphs"
text-anchor="middle" opacity="0">D1</text>
</g>
<g class="stroked-text"><desc>D1</desc>
<path d="M136.5426 114.7619
L137.5426 114.7619
" />
<path d="M137.5426 114.7619
L137.5426 115.0000
" />
<path d="M137.5426 115.0000
L137.4950 115.1429
" />
<path d="M137.4950 115.1429
L137.3997 115.2381
" />
<path d="M137.3997 115.2381
L137.3045 115.2857
" />
<path d="M137.3045 115.2857
L137.1140 115.3333
" />
<path d="M137.1140 115.3333
L136.9712 115.3333
" />
<path d="M136.9712 115.3333
L136.7807 115.2857
" />
<path d="M136.7807 115.2857
L136.6854 115.2381
" />
<path d="M136.6854 115.2381
L136.5902 115.1429
" />
<path d="M136.5902 115.1429
L136.5426 115.0000
" />
<path d="M136.5426 115.0000
L136.5426 114.7619
" />
<path d="M136.5426 116.2857
L136.5426 115.7143
" />
<path d="M136.5426 116.0000
L137.5426 116.0000
" />
<path d="M137.5426 116.0000
L137.3997 115.9048
" />
<path d="M137.3997 115.9048
L137.3045 115.8095
" />
<path d="M137.3045 115.8095
L137.2569 115.7143
" />
</g></g>
<g style="fill:none; 
stroke:#000000; stroke-width:0.1200; stroke-opacity:1; 
stroke-linecap:round; stroke-linejoin:round;">
<g transform="rotate(-90.000000 135.2050 118.3600)">
<text x="135.2050" y="118.6000"
textLength="0.8583" font-size="0.6400" lengthAdjust="spacingAndGlyphs"
text-anchor="middle" opacity="0">+</text>
</g>
<g class="stroked-text"><desc>+</desc>
<path d="M135.2380 118.5429
L135.2380 118.1771
" />
<path d="M135.4208 118.3600
L135.0551 118.3600
" />
</g></g>
<g style="fill:none; 
stroke:#000000; stroke-width:0.1000; stroke-opacity:1; 
stroke-linecap:round; stroke-linejoin:round;">
<g transform="rotate(-270.000000 140.5000 115.5000)">
<text x="140.5000" y="116.0000"
textLength="2.0524" font-size="1.3333" lengthAdjust="spacingAndGlyphs"
text-anchor="middle" opacity="0">D2</text>
</g>
<g class="stroked-text"><desc>D2</desc>
<path d="M140.0426 114.7619
L141.0426 114.7619
" />
<path d="M141.0426 114.7619
L141.0426 115.0000
" />
<path d="M141.0426 115.0000
L140.9950 115.1429
" />
<path d="M140.9950 115.1429
L140.8997 115.2381
" />
<path d="M140.8997 115.2381
L140.8045 115.2857
" />
<path d="M140.8045 115.2857
L140.6140 115.3333
" />
<path d="M140.6140 115.3333
L140.4712 115.3333
" />
<path d="M140.4712 115.3333
L140.2807 115.2857
" />
<path d="M140.2807 115.2857
L140.1854 115.2381
" />
<path d="M140.1854 115.2381
L140.0902 115.1429
" />
<path d="M140.0902 115.1429
L140.0426 115.0000
" />
<path d="M140.0426 115.0000
L140.0426 114.7619
" />
<path d="M140.9473 115.7143
L140.9950 115.7619
" />
<path d="M140.9950 115.7619
L141.0426 115.8571
" />
<path d="M141.0426 115.8571
L141.0426 116.0952
" />
<path d="M141.0426 116.0952
L140.9950 116.1905
" />
<path d="M140.9950 116.1905
L140.9473 116.2381
" />
<path d="M140.9473 116.2381
L140.8521 116.2857
" />
<path d="M140.8521 116.2857
L140.7569 116.2857
" />
<path d="M140.7569 116.2857
L140.6140 116.2381
" />
<path d="M140.6140 116.2381
L140.0426 115.6667
" />
<path d="M140.0426 115.6667
L140.0426 116.2857
" />
</g></g>
<g style="fill:none; 
stroke:#000000; stroke-width:0.1200; stroke-opacity:1; 
stroke-linecap:round; stroke-linejoin:round;">
<g transform="rotate(-90.000000 138.7050 118.3600)">
<text x="138.7050" y="118.6000"
textLength="0.8583" font-size="0.6400" lengthAdjust="spacingAndGlyphs"
text-anchor="middle" opacity="0">+</text>
</g>
<g class="stroked-text"><desc>+</desc>
<path d="M138.7380 118.5429
L138.7380 118.1771
" />
<path d="M138.9208 118.3600
L138.5551 118.3600
" />
</g></g>
<g style="fill:none; 
stroke:#000000; stroke-width:0.1000; stroke-opacity:1; 
stroke-linecap:round; stroke-linejoin:round;">
<g transform="rotate(-270.000000 137.0000 120.0000)">
<text x="137.0000" y="120.5000"
textLength="2.0524" font-size="1.3333" lengthAdjust="spacingAndGlyphs"
text-anchor="middle" opacity="0">R2</text>
</g>
<g class="stroked-text"><desc>R2</desc>
<path d="M136.5426 119.8333
L137.0188 119.5000
" />
<path d="M136.5426 119.2619
L137.5426 119.2619
" />
<path d="M137.5426 119.2619
L137.5426 119.6429
" />
<path d="M137.5426 119.6429
L137.4950 119.7381
" />
<path d="M137.4950 119.7381
L137.4473 119.7857
" />
<path d="M137.4473 119.7857
L137.3521 119.8333
" />
<path d="M137.3521 119.8333
L137.2092 119.8333
" />
<path d="M137.2092 119.8333
L137.1140 119.7857
" />
<path d="M137.1140 119.7857
L137.0664 119.7381
" />
<path d="M137.0664 119.7381
L137.0188 119.6429
" />
<path d="M137.0188 119.6429
L137.0188 119.2619
" />
<path d="M137.4473 120.2143
L137.4950 120.2619
" />
<path d="M137.4950 120.2619
L137.5426 120.3571
" />
<path d="M137.5426 120.3571
L137.5426 120.5952
" />
<path d="M137.5426 120.5952
L137.4950 120.6905
" />
<path d="M137.4950 120.6905
L137.4473 120.7381
" />
<path d="M137.4473 120.7381
L137.3521 120.7857
" />
<path d="M137.3521 120.7857
L137.2569 120.7857
" />
<path d="M137.2569 120.7857
L137.1140 120.7381
" />
<path d="M137.1140 120.7381
L136.5426 120.1667
" />
<path d="M136.5426 120.1667
L136.5426 120.7857
" />
</g></g>
<g style="fill:none; 
stroke:#000000; stroke-width:0.1200; stroke-opacity:1; 
stroke-linecap:round; stroke-linejoin:round;">
<path d="M139.7350 120.7729
L139.7350 121.2271
" />
<path d="M138.2650 120.7729
L138.2650 121.2271
" />
</g>
<g style="fill:none; 
stroke:#000000; stroke-width:0.2000; stroke-opacity:1; 
stroke-linecap:round; stroke-linejoin:round;">
<path d="M136.2300 116.2470
L136.2300 116.6790
" />
<path d="M134.7800 116.2540
L134.7800 116.6720
" />
</g>
<g style="fill:none; 
stroke:#000000; stroke-width:0.1000; stroke-opacity:1; 
stroke-linecap:round; stroke-linejoin:round;">
<path d="M135.5050 116.3300
L135.6450 116.5700
" />
<path d="M135.6450 116.5700
L135.3550 116.5700
" />
<path d="M135.3550 116.5700
L135.5050 116.3300
" />
</g>
<g style="fill:none; 
stroke:#000000; stroke-width:0.2000; stroke-opacity:1; 
stroke-linecap:round; stroke-linejoin:round;">
<path d="M139.7300 116.2470
L139.7300 116.6790
" />
<path d="M138.2800 116.2540
L138.2800 116.6720
" />
</g>
<g style="fill:none; 
stroke:#000000; stroke-width:0.1000; stroke-opacity:1; 
stroke-linecap:round; stroke-linejoin:round;">
<path d="M139.0050 116.3300
L139.1450 116.5700
" />
<path d="M139.1450 116.5700
L138.8550 116.5700
" />
<path d="M138.8550 116.5700
L139.0050 116.3300
" />
</g>
<g style="fill:none; 
stroke:#000000; stroke-width:0.1200; stroke-opacity:1; 
stroke-linecap:round; stroke-linejoin:round;">
<path d="M136.2350 120.7729
L136.2350 121.2271
" />
<path d="M134.7650 120.7729
L134.7650 121.2271
" />
</g>
<g style="fill:none; 
stroke:#000000; stroke-width:0.0500; stroke-opacity:1; 
stroke-linecap:round; stroke-linejoin:round;">
<path d="M168.7846 125.1732
L168.7846 91.9333
" />
<path d="M100.0000 76.4060
L100.0000 130.0000
" />
<path d="M168.7846 91.9333
L166.2455 89.4365
" />
<path d="M166.2455 77.9749
L164.6766 76.4060
" />
<path d="M163.9578 130.0000
L168.7846 125.1732
" />
<path d="M100.0000 130.0000
L163.9578 130.0000
" />
<path d="M164.6766 76.4060
L100.0000 76.4060
" />
<path d="M166.2455 89.0769
L166.2455 77.9749
" />
<path d="M166.2455 89.4365
L166.2455 89.0769
" />
</g> 
</svg>
