<?xml version="1.0" standalone="no"?>
 <!DOCTYPE svg PUBLIC "-//W3C//DTD SVG 1.1//EN" 
 "http://www.w3.org/Graphics/SVG/1.1/DTD/svg11.dtd"> 
<svg
  xmlns:svg="http://www.w3.org/2000/svg"
  xmlns="http://www.w3.org/2000/svg"
  xmlns:xlink="http://www.w3.org/1999/xlink"
  version="1.1"
  width="297.0022mm" height="210.0072mm" viewBox="0.0000 0.0000 297.0022 210.0072">
<title>SVG Image created as Arduino_Basic_Shield-B_Silkscreen.svg date 2024/12/05 13:03:28 </title>
  <desc>Image generated by PCBNEW </desc>
<g style="fill:#000000; fill-opacity:1.0000;stroke:#000000; stroke-opacity:1.0000;
stroke-linecap:round; stroke-linejoin:round;"
 transform="translate(0 0) scale(1 1)">
</g>
<g style="fill:none; 
stroke:#000000; stroke-width:0.1000; stroke-opacity:1; 
stroke-linecap:round; stroke-linejoin:round;">
<g transform="rotate(-180.000000 119.5125 81.7055)">
<text x="119.5125" y="82.2055"
transform="scale(-1 1) translate(-239.024908 0)"
textLength="2.0048" font-size="1.3333" lengthAdjust="spacingAndGlyphs"
text-anchor="middle" opacity="0">X1</text>
</g>
<g class="stroked-text"><desc>X1</desc>
<path d="M118.7029 82.2481
L119.3696 81.2481
" />
<path d="M119.3696 82.2481
L118.7029 81.2481
" />
<path d="M120.2744 81.2481
L119.7029 81.2481
" />
<path d="M119.9886 81.2481
L119.9886 82.2481
" />
<path d="M119.9886 82.2481
L119.8934 82.1052
" />
<path d="M119.8934 82.1052
L119.7982 82.0100
" />
<path d="M119.7982 82.0100
L119.7029 81.9623
" />
</g><g transform="rotate(-180.000000 150.0000 125.0000)">
<text x="150.0000" y="125.5000"
transform="scale(-1 1) translate(-300.000000 0)"
textLength="2.0048" font-size="1.3333" lengthAdjust="spacingAndGlyphs"
text-anchor="middle" opacity="0">X4</text>
</g>
<g class="stroked-text"><desc>X4</desc>
<path d="M149.1905 125.5426
L149.8571 124.5426
" />
<path d="M149.8571 125.5426
L149.1905 124.5426
" />
<path d="M150.6667 125.2092
L150.6667 124.5426
" />
<path d="M150.4286 125.5902
L150.1905 124.8759
" />
<path d="M150.1905 124.8759
L150.8095 124.8759
" />
</g><g transform="rotate(-180.000000 127.0000 125.0000)">
<text x="127.0000" y="125.5000"
transform="scale(-1 1) translate(-254.000000 0)"
textLength="2.0048" font-size="1.3333" lengthAdjust="spacingAndGlyphs"
text-anchor="middle" opacity="0">X3</text>
</g>
<g class="stroked-text"><desc>X3</desc>
<path d="M126.1905 125.5426
L126.8571 124.5426
" />
<path d="M126.8571 125.5426
L126.1905 124.5426
" />
<path d="M127.1429 125.5426
L127.7619 125.5426
" />
<path d="M127.7619 125.5426
L127.4286 125.1616
" />
<path d="M127.4286 125.1616
L127.5714 125.1616
" />
<path d="M127.5714 125.1616
L127.6667 125.1140
" />
<path d="M127.6667 125.1140
L127.7143 125.0664
" />
<path d="M127.7143 125.0664
L127.7619 124.9712
" />
<path d="M127.7619 124.9712
L127.7619 124.7331
" />
<path d="M127.7619 124.7331
L127.7143 124.6378
" />
<path d="M127.7143 124.6378
L127.6667 124.5902
" />
<path d="M127.6667 124.5902
L127.5714 124.5426
" />
<path d="M127.5714 124.5426
L127.2857 124.5426
" />
<path d="M127.2857 124.5426
L127.1905 124.5902
" />
<path d="M127.1905 124.5902
L127.1429 124.6378
" />
</g><g transform="rotate(-180.000000 145.1100 81.7000)">
<text x="145.1100" y="82.2000"
transform="scale(-1 1) translate(-290.220000 0)"
textLength="2.0048" font-size="1.3333" lengthAdjust="spacingAndGlyphs"
text-anchor="middle" opacity="0">X2</text>
</g>
<g class="stroked-text"><desc>X2</desc>
<path d="M144.3005 82.2426
L144.9671 81.2426
" />
<path d="M144.9671 82.2426
L144.3005 81.2426
" />
<path d="M145.3005 82.1473
L145.3481 82.1950
" />
<path d="M145.3481 82.1950
L145.4433 82.2426
" />
<path d="M145.4433 82.2426
L145.6814 82.2426
" />
<path d="M145.6814 82.2426
L145.7767 82.1950
" />
<path d="M145.7767 82.1950
L145.8243 82.1473
" />
<path d="M145.8243 82.1473
L145.8719 82.0521
" />
<path d="M145.8719 82.0521
L145.8719 81.9569
" />
<path d="M145.8719 81.9569
L145.8243 81.8140
" />
<path d="M145.8243 81.8140
L145.2529 81.2426
" />
<path d="M145.2529 81.2426
L145.8719 81.2426
" />
</g></g>
<g style="fill:none; 
stroke:#000000; stroke-width:0.2000; stroke-opacity:1; 
stroke-linecap:round; stroke-linejoin:round;">
<path d="M117.4460 77.8300
L143.0060 77.8300
" />
<path d="M143.0060 77.8300
L143.0060 80.5700
" />
<path d="M117.4460 80.5700
L117.4460 77.8300
" />
<path d="M143.0060 80.5700
L117.4460 80.5700
" />
<circle cx="142.5460" cy="80.1000" r="0.1000" /> 
<path d="M164.8700 128.8600
L149.4300 128.8600
" />
<path d="M149.4300 128.8600
L149.4300 126.0600
" />
<path d="M164.8700 126.0600
L164.8700 128.8600
" />
<path d="M149.4300 126.0600
L164.8700 126.0600
" />
<circle cx="149.8900" cy="126.5300" r="0.1000" /> 
<path d="M147.0900 128.8600
L126.5700 128.8600
" />
<path d="M126.5700 128.8600
L126.5700 126.0600
" />
<path d="M147.0900 126.0600
L147.0900 128.8600
" />
<path d="M126.5700 126.0600
L147.0900 126.0600
" />
<circle cx="127.0300" cy="126.5300" r="0.1000" /> 
<path d="M144.3500 77.8000
L164.8700 77.8000
" />
<path d="M164.8700 77.8000
L164.8700 80.6000
" />
<path d="M144.3500 80.6000
L144.3500 77.8000
" />
<path d="M164.8700 80.6000
L144.3500 80.6000
" />
<circle cx="164.4100" cy="80.1300" r="0.1000" /> 
</g>
<g style="fill:none; 
stroke:#000000; stroke-width:0.0500; stroke-opacity:1; 
stroke-linecap:round; stroke-linejoin:round;">
<path d="M168.7846 125.1732
L168.7846 91.9333
" />
<path d="M100.0000 76.4060
L100.0000 130.0000
" />
<path d="M168.7846 91.9333
L166.2455 89.4365
" />
<path d="M166.2455 77.9749
L164.6766 76.4060
" />
<path d="M163.9578 130.0000
L168.7846 125.1732
" />
<path d="M100.0000 130.0000
L163.9578 130.0000
" />
<path d="M164.6766 76.4060
L100.0000 76.4060
" />
<path d="M166.2455 89.0769
L166.2455 77.9749
" />
<path d="M166.2455 89.4365
L166.2455 89.0769
" />
</g> 
</svg>
