<?xml version="1.0" standalone="no"?>
 <!DOCTYPE svg PUBLIC "-//W3C//DTD SVG 1.1//EN" 
 "http://www.w3.org/Graphics/SVG/1.1/DTD/svg11.dtd"> 
<svg
  xmlns:svg="http://www.w3.org/2000/svg"
  xmlns="http://www.w3.org/2000/svg"
  xmlns:xlink="http://www.w3.org/1999/xlink"
  version="1.1"
  width="297.0022mm" height="210.0072mm" viewBox="0.0000 0.0000 297.0022 210.0072">
<title>SVG Image created as Arduino_Basic_Shield-B_Fab.svg date 2024/12/05 13:03:28 </title>
  <desc>Image generated by PCBNEW </desc>
<g style="fill:#000000; fill-opacity:1.0000;stroke:#000000; stroke-opacity:1.0000;
stroke-linecap:round; stroke-linejoin:round;"
 transform="translate(0 0) scale(1 1)">
</g>
<g style="fill:none; 
stroke:#000000; stroke-width:0.1500; stroke-opacity:1; 
stroke-linecap:round; stroke-linejoin:round;">
<text x="130.2260" y="80.7000"
transform="scale(-1 1) translate(-260.452000 0)"
textLength="0.9643" font-size="1.3333" lengthAdjust="spacingAndGlyphs"
text-anchor="middle" opacity="0">~</text>
<g class="stroked-text"><desc>~</desc>
<path d="M130.4879 80.2739
L130.4403 80.2262
" />
<path d="M130.4403 80.2262
L130.3450 80.1786
" />
<path d="M130.3450 80.1786
L130.1546 80.2739
" />
<path d="M130.1546 80.2739
L130.0593 80.2262
" />
<path d="M130.0593 80.2262
L130.0117 80.1786
" />
</g><g transform="rotate(-180.000000 119.5000 81.7000)">
<text x="119.5000" y="82.2000"
transform="scale(-1 1) translate(-239.000000 0)"
textLength="2.1548" font-size="1.3333" lengthAdjust="spacingAndGlyphs"
text-anchor="middle" opacity="0">X1</text>
</g>
<g class="stroked-text"><desc>X1</desc>
<path d="M118.6905 82.2452
L119.3571 81.2452
" />
<path d="M119.3571 82.2452
L118.6905 81.2452
" />
<path d="M120.2619 81.2452
L119.6905 81.2452
" />
<path d="M119.9762 81.2452
L119.9762 82.2452
" />
<path d="M119.9762 82.2452
L119.8810 82.1023
" />
<path d="M119.8810 82.1023
L119.7857 82.0071
" />
<path d="M119.7857 82.0071
L119.6905 81.9595
" />
</g><g transform="rotate(-180.000000 157.1500 126.4600)">
<text x="157.1500" y="126.9600"
transform="scale(-1 1) translate(-314.300000 0)"
textLength="0.9643" font-size="1.3333" lengthAdjust="spacingAndGlyphs"
text-anchor="middle" opacity="0">~</text>
</g>
<g class="stroked-text"><desc>~</desc>
<path d="M156.8881 126.3861
L156.9357 126.4338
" />
<path d="M156.9357 126.4338
L157.0310 126.4814
" />
<path d="M157.0310 126.4814
L157.2214 126.3861
" />
<path d="M157.2214 126.3861
L157.3167 126.4338
" />
<path d="M157.3167 126.4338
L157.3643 126.4814
" />
</g><g transform="rotate(-180.000000 150.0000 124.9600)">
<text x="150.0000" y="125.4600"
transform="scale(-1 1) translate(-300.000000 0)"
textLength="2.1548" font-size="1.3333" lengthAdjust="spacingAndGlyphs"
text-anchor="middle" opacity="0">X4</text>
</g>
<g class="stroked-text"><desc>X4</desc>
<path d="M149.1905 125.5052
L149.8571 124.5052
" />
<path d="M149.8571 125.5052
L149.1905 124.5052
" />
<path d="M150.6667 125.1718
L150.6667 124.5052
" />
<path d="M150.4286 125.5528
L150.1905 124.8385
" />
<path d="M150.1905 124.8385
L150.8095 124.8385
" />
</g><g transform="rotate(-180.000000 136.8300 126.4600)">
<text x="136.8300" y="126.9600"
transform="scale(-1 1) translate(-273.660000 0)"
textLength="0.9643" font-size="1.3333" lengthAdjust="spacingAndGlyphs"
text-anchor="middle" opacity="0">~</text>
</g>
<g class="stroked-text"><desc>~</desc>
<path d="M136.5681 126.3861
L136.6157 126.4338
" />
<path d="M136.6157 126.4338
L136.7110 126.4814
" />
<path d="M136.7110 126.4814
L136.9014 126.3861
" />
<path d="M136.9014 126.3861
L136.9967 126.4338
" />
<path d="M136.9967 126.4338
L137.0443 126.4814
" />
</g><g transform="rotate(-180.000000 127.0000 125.0000)">
<text x="127.0000" y="125.5000"
transform="scale(-1 1) translate(-254.000000 0)"
textLength="2.1548" font-size="1.3333" lengthAdjust="spacingAndGlyphs"
text-anchor="middle" opacity="0">X3</text>
</g>
<g class="stroked-text"><desc>X3</desc>
<path d="M126.1905 125.5452
L126.8571 124.5452
" />
<path d="M126.8571 125.5452
L126.1905 124.5452
" />
<path d="M127.1429 125.5452
L127.7619 125.5452
" />
<path d="M127.7619 125.5452
L127.4286 125.1642
" />
<path d="M127.4286 125.1642
L127.5714 125.1642
" />
<path d="M127.5714 125.1642
L127.6667 125.1166
" />
<path d="M127.6667 125.1166
L127.7143 125.0690
" />
<path d="M127.7143 125.0690
L127.7619 124.9738
" />
<path d="M127.7619 124.9738
L127.7619 124.7357
" />
<path d="M127.7619 124.7357
L127.7143 124.6404
" />
<path d="M127.7143 124.6404
L127.6667 124.5928
" />
<path d="M127.6667 124.5928
L127.5714 124.5452
" />
<path d="M127.5714 124.5452
L127.2857 124.5452
" />
<path d="M127.2857 124.5452
L127.1905 124.5928
" />
<path d="M127.1905 124.5928
L127.1429 124.6404
" />
</g><text x="154.6100" y="80.7000"
transform="scale(-1 1) translate(-309.220000 0)"
textLength="0.9643" font-size="1.3333" lengthAdjust="spacingAndGlyphs"
text-anchor="middle" opacity="0">~</text>
<g class="stroked-text"><desc>~</desc>
<path d="M154.8719 80.2739
L154.8243 80.2262
" />
<path d="M154.8243 80.2262
L154.7290 80.1786
" />
<path d="M154.7290 80.1786
L154.5386 80.2739
" />
<path d="M154.5386 80.2739
L154.4433 80.2262
" />
<path d="M154.4433 80.2262
L154.3957 80.1786
" />
</g><g transform="rotate(-180.000000 145.1100 81.7000)">
<text x="145.1100" y="82.2000"
transform="scale(-1 1) translate(-290.220000 0)"
textLength="2.1548" font-size="1.3333" lengthAdjust="spacingAndGlyphs"
text-anchor="middle" opacity="0">X2</text>
</g>
<g class="stroked-text"><desc>X2</desc>
<path d="M144.3005 82.2452
L144.9671 81.2452
" />
<path d="M144.9671 82.2452
L144.3005 81.2452
" />
<path d="M145.3005 82.1499
L145.3481 82.1976
" />
<path d="M145.3481 82.1976
L145.4433 82.2452
" />
<path d="M145.4433 82.2452
L145.6814 82.2452
" />
<path d="M145.6814 82.2452
L145.7767 82.1976
" />
<path d="M145.7767 82.1976
L145.8243 82.1499
" />
<path d="M145.8243 82.1499
L145.8719 82.0547
" />
<path d="M145.8719 82.0547
L145.8719 81.9595
" />
<path d="M145.8719 81.9595
L145.8243 81.8166
" />
<path d="M145.8243 81.8166
L145.2529 81.2452
" />
<path d="M145.2529 81.2452
L145.8719 81.2452
" />
</g></g>
<g style="fill:none; 
stroke:#000000; stroke-width:0.0500; stroke-opacity:1; 
stroke-linecap:round; stroke-linejoin:round;">
<path d="M168.7846 125.1732
L168.7846 91.9333
" />
<path d="M100.0000 76.4060
L100.0000 130.0000
" />
<path d="M168.7846 91.9333
L166.2455 89.4365
" />
<path d="M166.2455 77.9749
L164.6766 76.4060
" />
<path d="M163.9578 130.0000
L168.7846 125.1732
" />
<path d="M100.0000 130.0000
L163.9578 130.0000
" />
<path d="M164.6766 76.4060
L100.0000 76.4060
" />
<path d="M166.2455 89.0769
L166.2455 77.9749
" />
<path d="M166.2455 89.4365
L166.2455 89.0769
" />
</g> 
</svg>
