<?xml version="1.0" standalone="no"?>
 <!DOCTYPE svg PUBLIC "-//W3C//DTD SVG 1.1//EN" 
 "http://www.w3.org/Graphics/SVG/1.1/DTD/svg11.dtd"> 
<svg
  xmlns:svg="http://www.w3.org/2000/svg"
  xmlns="http://www.w3.org/2000/svg"
  xmlns:xlink="http://www.w3.org/1999/xlink"
  version="1.1"
  width="297.0022mm" height="210.0072mm" viewBox="0.0000 0.0000 297.0022 210.0072">
<title>SVG Image created as Arduino_Basic_Shield-F_Cu.svg date 2024/12/05 13:03:28 </title>
  <desc>Image generated by PCBNEW </desc>
<g style="fill:#000000; fill-opacity:1.0000;stroke:#000000; stroke-opacity:1.0000;
stroke-linecap:round; stroke-linejoin:round;"
 transform="translate(0 0) scale(1 1)">
<path style="fill:#000000; fill-opacity:1.0000; stroke:none;fill-rule:evenodd;"
d="M 139.4500,119.5750
139.5457,119.5940
139.6268,119.6482
139.6810,119.7293
139.7000,119.8250
139.7000,120.3500
139.6810,120.4457
139.6268,120.5268
139.5457,120.5810
139.4500,120.6000
138.5500,120.6000
138.4543,120.5810
138.3732,120.5268
138.3190,120.4457
138.3000,120.3500
138.3000,119.8250
138.3190,119.7293
138.3732,119.6482
138.4543,119.5940
138.5500,119.5750
Z" /> 
<path style="fill:#000000; fill-opacity:1.0000; stroke:none;fill-rule:evenodd;"
d="M 139.4500,121.4000
139.5457,121.4190
139.6268,121.4732
139.6810,121.5543
139.7000,121.6500
139.7000,122.1750
139.6810,122.2707
139.6268,122.3518
139.5457,122.4060
139.4500,122.4250
138.5500,122.4250
138.4543,122.4060
138.3732,122.3518
138.3190,122.2707
138.3000,122.1750
138.3000,121.6500
138.3190,121.5543
138.3732,121.4732
138.4543,121.4190
138.5500,121.4000
Z" /> 
<path style="fill:#000000; fill-opacity:1.0000; stroke:none;fill-rule:evenodd;"
d="M 135.8550,116.9600
135.9507,116.9790
136.0318,117.0332
136.0860,117.1143
136.1050,117.2100
136.1050,117.8100
136.0860,117.9057
136.0318,117.9868
135.9507,118.0410
135.8550,118.0600
135.1550,118.0600
135.0593,118.0410
134.9782,117.9868
134.9240,117.9057
134.9050,117.8100
134.9050,117.2100
134.9240,117.1143
134.9782,117.0332
135.0593,116.9790
135.1550,116.9600
Z" /> 
<path style="fill:#000000; fill-opacity:1.0000; stroke:none;fill-rule:evenodd;"
d="M 135.8550,114.8600
135.9507,114.8790
136.0318,114.9332
136.0860,115.0143
136.1050,115.1100
136.1050,115.7100
136.0860,115.8057
136.0318,115.8868
135.9507,115.9410
135.8550,115.9600
135.1550,115.9600
135.0593,115.9410
134.9782,115.8868
134.9240,115.8057
134.9050,115.7100
134.9050,115.1100
134.9240,115.0143
134.9782,114.9332
135.0593,114.8790
135.1550,114.8600
Z" /> 
<path style="fill:#000000; fill-opacity:1.0000; stroke:none;fill-rule:evenodd;"
d="M 139.3550,116.9600
139.4507,116.9790
139.5318,117.0332
139.5860,117.1143
139.6050,117.2100
139.6050,117.8100
139.5860,117.9057
139.5318,117.9868
139.4507,118.0410
139.3550,118.0600
138.6550,118.0600
138.5593,118.0410
138.4782,117.9868
138.4240,117.9057
138.4050,117.8100
138.4050,117.2100
138.4240,117.1143
138.4782,117.0332
138.5593,116.9790
138.6550,116.9600
Z" /> 
<path style="fill:#000000; fill-opacity:1.0000; stroke:none;fill-rule:evenodd;"
d="M 139.3550,114.8600
139.4507,114.8790
139.5318,114.9332
139.5860,115.0143
139.6050,115.1100
139.6050,115.7100
139.5860,115.8057
139.5318,115.8868
139.4507,115.9410
139.3550,115.9600
138.6550,115.9600
138.5593,115.9410
138.4782,115.8868
138.4240,115.8057
138.4050,115.7100
138.4050,115.1100
138.4240,115.0143
138.4782,114.9332
138.5593,114.8790
138.6550,114.8600
Z" /> 
<path style="fill:#000000; fill-opacity:1.0000; stroke:none;fill-rule:evenodd;"
d="M 135.9500,119.5750
136.0457,119.5940
136.1268,119.6482
136.1810,119.7293
136.2000,119.8250
136.2000,120.3500
136.1810,120.4457
136.1268,120.5268
136.0457,120.5810
135.9500,120.6000
135.0500,120.6000
134.9543,120.5810
134.8732,120.5268
134.8190,120.4457
134.8000,120.3500
134.8000,119.8250
134.8190,119.7293
134.8732,119.6482
134.9543,119.5940
135.0500,119.5750
Z" /> 
<path style="fill:#000000; fill-opacity:1.0000; stroke:none;fill-rule:evenodd;"
d="M 135.9500,121.4000
136.0457,121.4190
136.1268,121.4732
136.1810,121.5543
136.2000,121.6500
136.2000,122.1750
136.1810,122.2707
136.1268,122.3518
136.0457,122.4060
135.9500,122.4250
135.0500,122.4250
134.9543,122.4060
134.8732,122.3518
134.8190,122.2707
134.8000,122.1750
134.8000,121.6500
134.8190,121.5543
134.8732,121.4732
134.9543,121.4190
135.0500,121.4000
Z" /> 
</g>
<g style="fill:#000000; fill-opacity:1.0000; stroke:none;">
<circle cx="141.6760" cy="79.2000" r="0.8250" /> 
</g>
<g style="fill:#000000; fill-opacity:1.0000; stroke:none;">
<circle cx="139.1360" cy="79.2000" r="0.8250" /> 
</g>
<g style="fill:#000000; fill-opacity:1.0000; stroke:none;">
<circle cx="136.5960" cy="79.2000" r="0.8250" /> 
</g>
<g style="fill:#000000; fill-opacity:1.0000; stroke:none;">
<circle cx="134.0560" cy="79.2000" r="0.8250" /> 
</g>
<g style="fill:#000000; fill-opacity:1.0000; stroke:none;">
<circle cx="131.5160" cy="79.2000" r="0.8250" /> 
</g>
<g style="fill:#000000; fill-opacity:1.0000; stroke:none;">
<circle cx="128.9760" cy="79.2000" r="0.8250" /> 
</g>
<g style="fill:#000000; fill-opacity:1.0000; stroke:none;">
<circle cx="126.4360" cy="79.2000" r="0.8250" /> 
</g>
<g style="fill:#000000; fill-opacity:1.0000; stroke:none;">
<circle cx="123.8960" cy="79.2000" r="0.8250" /> 
</g>
<g style="fill:#000000; fill-opacity:1.0000; stroke:none;">
<circle cx="121.3560" cy="79.2000" r="0.8250" /> 
</g>
<g style="fill:#000000; fill-opacity:1.0000; stroke:none;">
<circle cx="118.8160" cy="79.2000" r="0.8250" /> 
</g>
<g style="fill:#000000; fill-opacity:1.0000; stroke:none;">
<circle cx="150.8000" cy="127.4600" r="0.8250" /> 
</g>
<g style="fill:#000000; fill-opacity:1.0000; stroke:none;">
<circle cx="153.3400" cy="127.4600" r="0.8250" /> 
</g>
<g style="fill:#000000; fill-opacity:1.0000; stroke:none;">
<circle cx="155.8800" cy="127.4600" r="0.8250" /> 
</g>
<g style="fill:#000000; fill-opacity:1.0000; stroke:none;">
<circle cx="158.4200" cy="127.4600" r="0.8250" /> 
</g>
<g style="fill:#000000; fill-opacity:1.0000; stroke:none;">
<circle cx="160.9600" cy="127.4600" r="0.8250" /> 
</g>
<g style="fill:#000000; fill-opacity:1.0000; stroke:none;">
<circle cx="163.5000" cy="127.4600" r="0.8250" /> 
</g>
<g style="fill:#000000; fill-opacity:1.0000; stroke:none;">
<circle cx="127.9400" cy="127.4600" r="0.8250" /> 
</g>
<g style="fill:#000000; fill-opacity:1.0000; stroke:none;">
<circle cx="130.4800" cy="127.4600" r="0.8250" /> 
</g>
<g style="fill:#000000; fill-opacity:1.0000; stroke:none;">
<circle cx="133.0200" cy="127.4600" r="0.8250" /> 
</g>
<g style="fill:#000000; fill-opacity:1.0000; stroke:none;">
<circle cx="135.5600" cy="127.4600" r="0.8250" /> 
</g>
<g style="fill:#000000; fill-opacity:1.0000; stroke:none;">
<circle cx="138.1000" cy="127.4600" r="0.8250" /> 
</g>
<g style="fill:#000000; fill-opacity:1.0000; stroke:none;">
<circle cx="140.6400" cy="127.4600" r="0.8250" /> 
</g>
<g style="fill:#000000; fill-opacity:1.0000; stroke:none;">
<circle cx="143.1800" cy="127.4600" r="0.8250" /> 
</g>
<g style="fill:#000000; fill-opacity:1.0000; stroke:none;">
<circle cx="145.7200" cy="127.4600" r="0.8250" /> 
</g>
<g style="fill:#000000; fill-opacity:1.0000; stroke:none;">
<circle cx="163.5000" cy="79.2000" r="0.8250" /> 
</g>
<g style="fill:#000000; fill-opacity:1.0000; stroke:none;">
<circle cx="160.9600" cy="79.2000" r="0.8250" /> 
</g>
<g style="fill:#000000; fill-opacity:1.0000; stroke:none;">
<circle cx="158.4200" cy="79.2000" r="0.8250" /> 
</g>
<g style="fill:#000000; fill-opacity:1.0000; stroke:none;">
<circle cx="155.8800" cy="79.2000" r="0.8250" /> 
</g>
<g style="fill:#000000; fill-opacity:1.0000; stroke:none;">
<circle cx="153.3400" cy="79.2000" r="0.8250" /> 
</g>
<g style="fill:#000000; fill-opacity:1.0000; stroke:none;">
<circle cx="150.8000" cy="79.2000" r="0.8250" /> 
</g>
<g style="fill:#000000; fill-opacity:1.0000; stroke:none;">
<circle cx="148.2600" cy="79.2000" r="0.8250" /> 
</g>
<g style="fill:#000000; fill-opacity:1.0000; stroke:none;">
<circle cx="145.7200" cy="79.2000" r="0.8250" /> 
</g>
<g style="fill:#000000; fill-opacity:1.0000; stroke:none;">
<circle cx="138.0000" cy="77.2000" r="0.3000" /> 
</g>
<g style="fill:#000000; fill-opacity:1.0000; stroke:none;">
<circle cx="113.0000" cy="77.2000" r="0.3000" /> 
</g>
<g style="fill:#000000; fill-opacity:1.0000; stroke:none;">
<circle cx="101.0000" cy="93.0000" r="0.3000" /> 
</g>
<g style="fill:#000000; fill-opacity:1.0000; stroke:none;">
<circle cx="101.0000" cy="98.0000" r="0.3000" /> 
</g>
<g style="fill:#000000; fill-opacity:1.0000; stroke:none;">
<circle cx="135.5000" cy="113.5000" r="0.3000" /> 
</g>
<g style="fill:#000000; fill-opacity:1.0000; stroke:none;">
<circle cx="101.0000" cy="113.0000" r="0.3000" /> 
</g>
<g style="fill:#000000; fill-opacity:1.0000; stroke:none;">
<circle cx="118.0000" cy="77.2000" r="0.3000" /> 
</g>
<g style="fill:#000000; fill-opacity:1.0000; stroke:none;">
<circle cx="166.0000" cy="126.5000" r="0.3000" /> 
</g>
<g style="fill:#000000; fill-opacity:1.0000; stroke:none;">
<circle cx="148.0000" cy="77.2000" r="0.3000" /> 
</g>
<g style="fill:#000000; fill-opacity:1.0000; stroke:none;">
<circle cx="128.0000" cy="129.0000" r="0.3000" /> 
</g>
<g style="fill:#000000; fill-opacity:1.0000; stroke:none;">
<circle cx="139.0000" cy="113.5000" r="0.3000" /> 
</g>
<g style="fill:#000000; fill-opacity:1.0000; stroke:none;">
<circle cx="133.0000" cy="129.0000" r="0.3000" /> 
</g>
<g style="fill:#000000; fill-opacity:1.0000; stroke:none;">
<circle cx="165.0000" cy="83.0000" r="0.3000" /> 
</g>
<g style="fill:#000000; fill-opacity:1.0000; stroke:none;">
<circle cx="123.0000" cy="77.2000" r="0.3000" /> 
</g>
<g style="fill:#000000; fill-opacity:1.0000; stroke:none;">
<circle cx="108.0000" cy="129.0000" r="0.3000" /> 
</g>
<g style="fill:#000000; fill-opacity:1.0000; stroke:none;">
<circle cx="148.0000" cy="129.0000" r="0.3000" /> 
</g>
<g style="fill:#000000; fill-opacity:1.0000; stroke:none;">
<circle cx="138.0000" cy="129.0000" r="0.3000" /> 
</g>
<g style="fill:#000000; fill-opacity:1.0000; stroke:none;">
<circle cx="153.0000" cy="129.0000" r="0.3000" /> 
</g>
<g style="fill:#000000; fill-opacity:1.0000; stroke:none;">
<circle cx="163.0000" cy="77.2000" r="0.3000" /> 
</g>
<g style="fill:#000000; fill-opacity:1.0000; stroke:none;">
<circle cx="101.0000" cy="118.0000" r="0.3000" /> 
</g>
<g style="fill:#000000; fill-opacity:1.0000; stroke:none;">
<circle cx="101.0000" cy="123.0000" r="0.3000" /> 
</g>
<g style="fill:#000000; fill-opacity:1.0000; stroke:none;">
<circle cx="101.0000" cy="83.0000" r="0.3000" /> 
</g>
<g style="fill:#000000; fill-opacity:1.0000; stroke:none;">
<circle cx="158.0000" cy="129.0000" r="0.3000" /> 
</g>
<g style="fill:#000000; fill-opacity:1.0000; stroke:none;">
<circle cx="168.0000" cy="118.0000" r="0.3000" /> 
</g>
<g style="fill:#000000; fill-opacity:1.0000; stroke:none;">
<circle cx="101.0000" cy="88.0000" r="0.3000" /> 
</g>
<g style="fill:#000000; fill-opacity:1.0000; stroke:none;">
<circle cx="101.0000" cy="128.0000" r="0.3000" /> 
</g>
<g style="fill:#000000; fill-opacity:1.0000; stroke:none;">
<circle cx="143.0000" cy="129.0000" r="0.3000" /> 
</g>
<g style="fill:#000000; fill-opacity:1.0000; stroke:none;">
<circle cx="168.0000" cy="103.0000" r="0.3000" /> 
</g>
<g style="fill:#000000; fill-opacity:1.0000; stroke:none;">
<circle cx="118.0000" cy="129.0000" r="0.3000" /> 
</g>
<g style="fill:#000000; fill-opacity:1.0000; stroke:none;">
<circle cx="168.0000" cy="108.0000" r="0.3000" /> 
</g>
<g style="fill:#000000; fill-opacity:1.0000; stroke:none;">
<circle cx="101.0000" cy="103.0000" r="0.3000" /> 
</g>
<g style="fill:#000000; fill-opacity:1.0000; stroke:none;">
<circle cx="133.0000" cy="77.2000" r="0.3000" /> 
</g>
<g style="fill:#000000; fill-opacity:1.0000; stroke:none;">
<circle cx="163.0000" cy="129.0000" r="0.3000" /> 
</g>
<g style="fill:#000000; fill-opacity:1.0000; stroke:none;">
<circle cx="168.0000" cy="113.0000" r="0.3000" /> 
</g>
<g style="fill:#000000; fill-opacity:1.0000; stroke:none;">
<circle cx="143.0000" cy="77.2000" r="0.3000" /> 
</g>
<g style="fill:#000000; fill-opacity:1.0000; stroke:none;">
<circle cx="165.0000" cy="88.0000" r="0.3000" /> 
</g>
<g style="fill:#000000; fill-opacity:1.0000; stroke:none;">
<circle cx="165.0000" cy="78.0000" r="0.3000" /> 
</g>
<g style="fill:#000000; fill-opacity:1.0000; stroke:none;">
<circle cx="158.0000" cy="77.2000" r="0.3000" /> 
</g>
<g style="fill:#000000; fill-opacity:1.0000; stroke:none;">
<circle cx="103.0000" cy="129.0000" r="0.3000" /> 
</g>
<g style="fill:#000000; fill-opacity:1.0000; stroke:none;">
<circle cx="123.0000" cy="129.0000" r="0.3000" /> 
</g>
<g style="fill:#000000; fill-opacity:1.0000; stroke:none;">
<circle cx="108.0000" cy="77.2000" r="0.3000" /> 
</g>
<g style="fill:#000000; fill-opacity:1.0000; stroke:none;">
<circle cx="101.0000" cy="78.0000" r="0.3000" /> 
</g>
<g style="fill:#000000; fill-opacity:1.0000; stroke:none;">
<circle cx="101.0000" cy="108.0000" r="0.3000" /> 
</g>
<g style="fill:#000000; fill-opacity:1.0000; stroke:none;">
<circle cx="168.0000" cy="98.0000" r="0.3000" /> 
</g>
<g style="fill:#000000; fill-opacity:1.0000; stroke:none;">
<circle cx="103.0000" cy="77.2000" r="0.3000" /> 
</g>
<g style="fill:#000000; fill-opacity:1.0000; stroke:none;">
<circle cx="128.0000" cy="77.2000" r="0.3000" /> 
</g>
<g style="fill:#000000; fill-opacity:1.0000; stroke:none;">
<circle cx="153.0000" cy="77.2000" r="0.3000" /> 
</g>
<g style="fill:none; 
stroke:#000000; stroke-width:0.2000; stroke-opacity:1; 
stroke-linecap:round; stroke-linejoin:round;">
<path d="M139.0050 115.4100
L139.0050 113.5050
" />
<path d="M139.0050 113.5050
L139.0000 113.5000
" />
<path d="M135.5050 113.5050
L135.5000 113.5000
" />
<path d="M135.5050 115.4100
L135.5050 113.5050
" />
<path d="M135.5050 120.0825
L135.5000 120.0875
" />
<path d="M135.5050 117.5100
L135.5050 120.0825
" />
<path d="M139.0000 120.0875
L139.0000 117.5150
" />
<path d="M139.0000 117.5150
L139.0050 117.5100
" />
<path d="M139.0000 124.0000
L139.0000 121.9125
" />
<path d="M138.1000 127.4600
L138.1000 124.9000
" />
<path d="M138.1000 124.9000
L139.0000 124.0000
" />
<path d="M135.5000 121.9125
L135.5000 127.4000
" />
<path d="M135.5000 127.4000
L135.5600 127.4600
" />
<path style="fill:#000000; fill-opacity:1.0000; stroke:none;fill-rule:evenodd;"
d="M 164.5678,76.7262
164.5884,76.7428
165.9087,78.0631
165.9422,78.1244
165.9450,78.1507
165.9450,89.0373
165.9450,89.3892
165.9446,89.3951
165.9450,89.4373
165.9450,89.4383
165.9450,89.4761
165.9451,89.4769
165.9452,89.4779
165.9453,89.4785
165.9554,89.5150
165.9557,89.5160
165.9655,89.5525
165.9657,89.5532
165.9661,89.5541
165.9664,89.5547
165.9856,89.5873
165.9861,89.5882
166.0051,89.6211
166.0055,89.6216
166.0062,89.6225
166.0065,89.6230
166.0336,89.6496
166.0342,89.6502
166.0610,89.6769
166.0641,89.6800
166.0685,89.6839
168.3547,91.9320
168.4470,92.0228
168.4810,92.0838
168.4841,92.1112
168.4841,124.9973
168.4644,125.0644
168.4478,125.0850
163.8696,129.6632
163.8083,129.6967
163.7819,129.6995
100.4245,129.6995
100.3575,129.6798
100.3117,129.6270
100.3005,129.5755
100.3005,127.3387
113.1495,127.3387
113.1495,127.5813
113.1812,127.8218
113.2439,128.0561
113.3368,128.2802
113.3368,128.2802
113.4581,128.4903
113.4581,128.4903
113.4581,128.4903
113.6057,128.6827
113.6057,128.6827
113.7773,128.8543
113.7773,128.8543
113.9697,129.0019
114.1798,129.1232
114.4039,129.2161
114.6382,129.2788
114.8186,129.3026
114.8787,129.3105
114.8787,129.3105
115.1213,129.3105
115.1694,129.3042
115.3618,129.2788
115.5961,129.2161
115.8202,129.1232
116.0303,129.0019
116.2227,128.8543
116.3943,128.6827
116.5419,128.4903
116.6632,128.2802
116.7561,128.0561
116.8188,127.8218
116.8505,127.5813
116.8505,127.4600
126.6094,127.4600
126.6094,127.4600
126.6296,127.6910
126.6297,127.6911
126.6897,127.9151
126.6897,127.9151
126.6897,127.9151
126.7877,128.1253
126.9207,128.3153
127.0847,128.4793
127.2747,128.6123
127.4849,128.7103
127.7089,128.7703
127.8740,128.7848
127.9400,128.7906
127.9400,128.7906
127.9400,128.7906
127.9978,128.7855
128.1711,128.7703
128.3951,128.7103
128.6053,128.6123
128.7953,128.4793
128.9593,128.3153
129.0923,128.1253
129.0976,128.1139
129.1438,128.0614
129.2110,128.0423
129.2779,128.0625
129.3224,128.1139
129.3277,128.1253
129.4607,128.3153
129.6247,128.4793
129.8147,128.6123
130.0249,128.7103
130.2490,128.7703
130.4140,128.7848
130.4800,128.7906
130.4800,128.7906
130.4800,128.7906
130.5378,128.7855
130.7111,128.7703
130.9351,128.7103
131.1453,128.6123
131.3353,128.4793
131.4993,128.3153
131.6323,128.1253
131.6376,128.1139
131.6838,128.0614
131.7510,128.0423
131.8179,128.0625
131.8624,128.1139
131.8677,128.1253
132.0007,128.3153
132.1647,128.4793
132.3547,128.6123
132.5649,128.7103
132.7889,128.7703
132.9540,128.7848
133.0200,128.7906
133.0200,128.7906
133.0200,128.7906
133.0778,128.7855
133.2510,128.7703
133.4751,128.7103
133.6853,128.6123
133.8753,128.4793
134.0393,128.3153
134.1723,128.1253
134.1776,128.1139
134.2238,128.0614
134.2910,128.0423
134.3579,128.0625
134.4024,128.1139
134.4077,128.1253
134.5407,128.3153
134.7047,128.4793
134.8947,128.6123
135.1049,128.7103
135.3289,128.7703
135.4940,128.7848
135.5600,128.7906
135.5600,128.7906
135.5600,128.7906
135.6178,128.7855
135.7910,128.7703
136.0151,128.7103
136.2253,128.6123
136.4153,128.4793
136.5793,128.3153
136.7123,128.1253
136.7176,128.1139
136.7638,128.0614
136.8310,128.0423
136.8979,128.0625
136.9424,128.1139
136.9477,128.1253
137.0807,128.3153
137.2447,128.4793
137.4347,128.6123
137.6449,128.7103
137.8689,128.7703
138.0340,128.7848
138.1000,128.7906
138.1000,128.7906
138.1000,128.7906
138.1578,128.7855
138.3311,128.7703
138.5551,128.7103
138.7653,128.6123
138.9553,128.4793
139.1193,128.3153
139.2523,128.1253
139.2579,128.1133
139.3041,128.0609
139.3713,128.0417
139.4381,128.0619
139.4827,128.1133
139.4881,128.1250
139.5430,128.2034
140.1162,127.6302
140.1275,127.6723
140.1999,127.7977
140.3023,127.9001
140.4277,127.9725
140.4698,127.9838
139.8966,128.5570
139.9750,128.6119
140.1851,128.7098
140.1851,128.7099
140.4090,128.7699
140.4090,128.7699
140.6400,128.7901
140.6400,128.7901
140.8710,128.7699
140.8710,128.7699
141.0949,128.7099
141.0949,128.7098
141.3050,128.6119
141.3050,128.6119
141.3834,128.5570
141.3834,128.5570
140.8102,127.9838
140.8523,127.9725
140.9777,127.9001
141.0801,127.7977
141.1525,127.6723
141.1638,127.6302
141.7370,128.2034
141.7370,128.2034
141.7919,128.1250
141.7919,128.1250
141.7976,128.1127
141.8438,128.0603
141.9110,128.0411
141.9779,128.0613
142.0224,128.1127
142.0281,128.1250
142.0830,128.2034
142.6562,127.6302
142.6675,127.6723
142.7399,127.7977
142.8423,127.9001
142.9677,127.9725
143.0098,127.9838
142.4366,128.5570
142.5150,128.6119
142.7251,128.7098
142.7251,128.7099
142.9490,128.7699
142.9490,128.7699
143.1800,128.7901
143.1800,128.7901
143.4110,128.7699
143.4110,128.7699
143.6349,128.7099
143.6349,128.7098
143.8450,128.6119
143.8450,128.6119
143.9234,128.5570
143.9234,128.5570
143.3502,127.9838
143.3923,127.9725
143.5177,127.9001
143.6201,127.7977
143.6925,127.6723
143.7038,127.6302
144.2770,128.2034
144.2770,128.2034
144.3319,128.1250
144.3373,128.1133
144.3835,128.0609
144.4507,128.0417
144.5176,128.0619
144.5621,128.1133
144.5677,128.1253
144.7007,128.3153
144.8647,128.4793
145.0547,128.6123
145.2649,128.7103
145.4889,128.7703
145.6540,128.7848
145.7200,128.7906
145.7200,128.7906
145.7200,128.7906
145.7778,128.7855
145.9510,128.7703
146.1751,128.7103
146.3853,128.6123
146.5753,128.4793
146.7393,128.3153
146.8723,128.1253
146.9703,127.9151
147.0303,127.6910
147.0506,127.4600
147.0506,127.4600
149.4694,127.4600
149.4694,127.4600
149.4896,127.6910
149.4897,127.6911
149.5497,127.9151
149.5497,127.9151
149.5497,127.9151
149.6477,128.1253
149.7807,128.3153
149.9447,128.4793
150.1347,128.6123
150.3449,128.7103
150.5690,128.7703
150.7340,128.7848
150.8000,128.7906
150.8000,128.7906
150.8000,128.7906
150.8578,128.7855
151.0310,128.7703
151.2551,128.7103
151.4653,128.6123
151.6553,128.4793
151.8193,128.3153
151.9523,128.1253
151.9576,128.1139
152.0038,128.0614
152.0710,128.0423
152.1379,128.0625
152.1824,128.1139
152.1877,128.1253
152.3207,128.3153
152.4847,128.4793
152.6747,128.6123
152.8849,128.7103
153.1089,128.7703
153.2740,128.7848
153.3400,128.7906
153.3400,128.7906
153.3400,128.7906
153.3978,128.7855
153.5710,128.7703
153.7951,128.7103
154.0053,128.6123
154.1953,128.4793
154.3593,128.3153
154.4923,128.1253
154.4976,128.1139
154.5438,128.0614
154.6110,128.0423
154.6779,128.0625
154.7224,128.1139
154.7277,128.1253
154.8607,128.3153
155.0247,128.4793
155.2147,128.6123
155.4249,128.7103
155.6489,128.7703
155.8140,128.7848
155.8800,128.7906
155.8800,128.7906
155.8800,128.7906
155.9378,128.7855
156.1111,128.7703
156.3351,128.7103
156.5453,128.6123
156.7353,128.4793
156.8993,128.3153
157.0323,128.1253
157.0376,128.1139
157.0838,128.0614
157.1510,128.0423
157.2179,128.0625
157.2624,128.1139
157.2677,128.1253
157.4007,128.3153
157.5647,128.4793
157.7547,128.6123
157.9649,128.7103
158.1890,128.7703
158.3540,128.7848
158.4200,128.7906
158.4200,128.7906
158.4200,128.7906
158.4778,128.7855
158.6510,128.7703
158.8751,128.7103
159.0853,128.6123
159.2753,128.4793
159.4393,128.3153
159.5723,128.1253
159.5776,128.1139
159.6238,128.0614
159.6910,128.0423
159.7579,128.0625
159.8024,128.1139
159.8077,128.1253
159.9407,128.3153
160.1047,128.4793
160.2947,128.6123
160.5049,128.7103
160.7289,128.7703
160.8940,128.7848
160.9600,128.7906
160.9600,128.7906
160.9600,128.7906
161.0178,128.7855
161.1910,128.7703
161.4151,128.7103
161.6253,128.6123
161.8153,128.4793
161.9793,128.3153
162.1123,128.1253
162.1176,128.1139
162.1638,128.0614
162.2310,128.0423
162.2979,128.0625
162.3424,128.1139
162.3477,128.1253
162.4807,128.3153
162.6447,128.4793
162.8347,128.6123
163.0449,128.7103
163.2689,128.7703
163.4340,128.7848
163.5000,128.7906
163.5000,128.7906
163.5000,128.7906
163.5578,128.7855
163.7310,128.7703
163.9551,128.7103
164.1653,128.6123
164.3553,128.4793
164.5193,128.3153
164.6523,128.1253
164.7503,127.9151
164.8103,127.6910
164.8306,127.4600
164.8103,127.2289
164.7503,127.0049
164.6523,126.7947
164.6523,126.7947
164.6523,126.7947
164.5193,126.6047
164.5193,126.6047
164.3553,126.4407
164.2443,126.3630
164.1653,126.3077
163.9551,126.2097
163.9551,126.2097
163.9551,126.2097
163.7311,126.1497
163.7310,126.1496
163.5000,126.1294
163.5000,126.1294
163.2690,126.1496
163.2689,126.1497
163.0449,126.2097
162.8347,126.3077
162.8347,126.3077
162.6447,126.4407
162.6447,126.4407
162.4807,126.6047
162.4807,126.6047
162.3477,126.7947
162.3477,126.7947
162.3424,126.8061
162.2962,126.8586
162.2290,126.8777
162.1621,126.8575
162.1176,126.8061
162.1159,126.8025
162.1123,126.7947
162.1123,126.7947
162.1123,126.7947
161.9793,126.6047
161.9793,126.6047
161.8153,126.4407
161.7043,126.3630
161.6253,126.3077
161.4151,126.2097
161.4151,126.2097
161.4151,126.2097
161.1911,126.1497
161.1910,126.1496
160.9600,126.1294
160.9600,126.1294
160.7290,126.1496
160.7289,126.1497
160.5049,126.2097
160.2947,126.3077
160.2947,126.3077
160.1047,126.4407
160.1047,126.4407
159.9407,126.6047
159.9407,126.6047
159.8077,126.7947
159.8077,126.7947
159.8024,126.8061
159.7562,126.8586
159.6890,126.8777
159.6221,126.8575
159.5776,126.8061
159.5759,126.8025
159.5723,126.7947
159.5723,126.7947
159.5723,126.7947
159.4393,126.6047
159.4393,126.6047
159.2753,126.4407
159.1643,126.3630
159.0853,126.3077
158.8751,126.2097
158.8751,126.2097
158.8751,126.2097
158.6511,126.1497
158.6510,126.1496
158.4200,126.1294
158.4200,126.1294
158.1890,126.1496
158.1889,126.1497
157.9649,126.2097
157.7547,126.3077
157.7547,126.3077
157.5647,126.4407
157.5647,126.4407
157.4007,126.6047
157.4007,126.6047
157.2677,126.7947
157.2677,126.7947
157.2624,126.8061
157.2162,126.8586
157.1490,126.8777
157.0821,126.8575
157.0376,126.8061
157.0359,126.8025
157.0323,126.7947
157.0323,126.7947
157.0323,126.7947
156.8993,126.6047
156.8993,126.6047
156.7353,126.4407
156.6243,126.3630
156.5453,126.3077
156.3351,126.2097
156.3351,126.2097
156.3351,126.2097
156.1111,126.1497
156.1110,126.1496
155.8800,126.1294
155.8800,126.1294
155.6490,126.1496
155.6489,126.1497
155.4249,126.2097
155.2147,126.3077
155.2147,126.3077
155.0247,126.4407
155.0247,126.4407
154.8607,126.6047
154.8607,126.6047
154.7277,126.7947
154.7277,126.7947
154.7224,126.8061
154.6762,126.8586
154.6090,126.8777
154.5421,126.8575
154.4976,126.8061
154.4959,126.8025
154.4923,126.7947
154.4923,126.7947
154.4923,126.7947
154.3593,126.6047
154.3593,126.6047
154.1953,126.4407
154.0843,126.3630
154.0053,126.3077
153.7951,126.2097
153.7951,126.2097
153.7951,126.2097
153.5711,126.1497
153.5710,126.1496
153.3400,126.1294
153.3400,126.1294
153.1090,126.1496
153.1089,126.1497
152.8849,126.2097
152.6747,126.3077
152.6747,126.3077
152.4847,126.4407
152.4847,126.4407
152.3207,126.6047
152.3207,126.6047
152.1877,126.7947
152.1877,126.7947
152.1824,126.8061
152.1362,126.8586
152.0690,126.8777
152.0021,126.8575
151.9576,126.8061
151.9559,126.8025
151.9523,126.7947
151.9523,126.7947
151.9523,126.7947
151.8193,126.6047
151.8193,126.6047
151.6553,126.4407
151.5443,126.3630
151.4653,126.3077
151.2551,126.2097
151.2551,126.2097
151.2551,126.2097
151.0311,126.1497
151.0310,126.1496
150.8000,126.1294
150.8000,126.1294
150.5690,126.1496
150.5689,126.1497
150.3449,126.2097
150.1347,126.3077
150.1347,126.3077
149.9447,126.4407
149.9447,126.4407
149.7807,126.6047
149.7807,126.6047
149.6477,126.7947
149.6477,126.7947
149.5497,127.0049
149.4897,127.2289
149.4896,127.2290
149.4694,127.4600
147.0506,127.4600
147.0303,127.2289
146.9703,127.0049
146.8723,126.7947
146.8723,126.7947
146.8723,126.7947
146.7393,126.6047
146.7393,126.6047
146.5753,126.4407
146.4643,126.3630
146.3853,126.3077
146.1751,126.2097
146.1751,126.2097
146.1751,126.2097
145.9511,126.1497
145.9510,126.1496
145.7200,126.1294
145.7200,126.1294
145.4890,126.1496
145.4889,126.1497
145.2649,126.2097
145.0547,126.3077
145.0547,126.3077
144.8647,126.4407
144.8647,126.4407
144.7007,126.6047
144.7007,126.6047
144.5677,126.7947
144.5677,126.7947
144.5621,126.8067
144.5159,126.8592
144.4487,126.8783
144.3819,126.8581
144.3373,126.8067
144.3319,126.7950
144.3319,126.7950
144.2770,126.7166
144.2770,126.7166
143.7038,127.2898
143.6925,127.2477
143.6201,127.1223
143.5177,127.0199
143.3923,126.9475
143.3502,126.9362
143.9234,126.3630
143.8450,126.3081
143.6349,126.2102
143.6349,126.2101
143.4110,126.1501
143.4110,126.1501
143.1800,126.1299
143.1800,126.1299
142.9490,126.1501
142.9490,126.1501
142.7251,126.2101
142.7251,126.2102
142.5150,126.3081
142.4366,126.3630
143.0098,126.9362
142.9677,126.9475
142.8423,127.0199
142.7399,127.1223
142.6675,127.2477
142.6562,127.2898
142.0830,126.7166
142.0281,126.7950
142.0281,126.7950
142.0224,126.8073
141.9762,126.8597
141.9090,126.8789
141.8421,126.8587
141.7976,126.8073
141.7919,126.7950
141.7919,126.7950
141.7370,126.7166
141.7370,126.7166
141.1638,127.2898
141.1525,127.2477
141.0801,127.1223
140.9777,127.0199
140.8523,126.9475
140.8102,126.9362
141.3834,126.3630
141.3050,126.3081
141.0949,126.2102
141.0949,126.2101
140.8710,126.1501
140.8710,126.1501
140.6400,126.1299
140.6400,126.1299
140.4090,126.1501
140.4090,126.1501
140.1851,126.2101
140.1851,126.2102
139.9750,126.3081
139.8966,126.3630
140.4698,126.9362
140.4277,126.9475
140.3023,127.0199
140.1999,127.1223
140.1275,127.2477
140.1162,127.2898
139.5430,126.7166
139.5430,126.7166
139.4881,126.7950
139.4827,126.8067
139.4365,126.8592
139.3693,126.8783
139.3024,126.8581
139.2579,126.8067
139.2523,126.7947
139.1193,126.6047
138.9553,126.4407
138.9395,126.4297
138.7653,126.3077
138.7625,126.3061
138.7615,126.3051
138.7608,126.3046
138.7609,126.3045
138.7143,126.2555
138.7005,126.1987
138.7005,125.2001
138.7202,125.1331
138.7368,125.1124
139.3687,124.4805
139.3687,124.4805
139.4805,124.3687
139.5306,124.2819
139.5596,124.2318
139.6005,124.0791
139.6005,123.9209
139.6005,123.0053
139.6202,122.9383
139.6730,122.8925
139.6855,122.8876
139.7693,122.8598
139.9187,122.7677
140.0427,122.6437
140.1348,122.4943
140.1900,122.3278
140.1971,122.2587
164.1895,122.2587
164.1895,122.5013
164.2212,122.7418
164.2839,122.9761
164.3768,123.2002
164.3768,123.2002
164.4981,123.4103
164.4981,123.4103
164.4981,123.4103
164.6457,123.6027
164.6457,123.6027
164.8173,123.7743
164.8173,123.7743
165.0097,123.9219
165.2198,124.0432
165.4439,124.1361
165.6782,124.1988
165.8586,124.2226
165.9187,124.2305
165.9187,124.2305
166.1613,124.2305
166.2094,124.2242
166.4018,124.1988
166.6361,124.1361
166.8602,124.0432
167.0703,123.9219
167.2627,123.7743
167.4343,123.6027
167.5819,123.4103
167.7032,123.2002
167.7961,122.9761
167.8588,122.7418
167.8905,122.5013
167.8905,122.2587
167.8588,122.0182
167.7961,121.7839
167.7032,121.5598
167.5819,121.3497
167.4343,121.1573
167.4343,121.1573
167.2627,120.9857
167.2627,120.9857
167.0703,120.8381
167.0703,120.8381
167.0703,120.8381
166.8602,120.7168
166.8602,120.7168
166.6361,120.6239
166.4018,120.5612
166.1613,120.5295
166.1613,120.5295
165.9187,120.5295
165.9187,120.5295
165.6782,120.5612
165.4439,120.6239
165.2198,120.7168
165.2198,120.7168
165.0097,120.8381
164.8173,120.9857
164.8173,120.9857
164.6457,121.1573
164.6457,121.1573
164.4981,121.3497
164.3768,121.5598
164.3768,121.5598
164.2839,121.7839
164.2212,122.0182
164.1895,122.2587
140.1971,122.2587
140.2005,122.2250
140.2005,121.6000
140.1900,121.4972
140.1348,121.3307
140.0427,121.1813
139.9490,121.0877
139.9156,121.0264
139.9205,120.9567
139.9490,120.9123
140.0427,120.8187
140.1348,120.6693
140.1900,120.5028
140.2005,120.4000
140.2005,119.7750
140.1900,119.6722
140.1348,119.5057
140.0427,119.3563
139.9187,119.2323
139.7693,119.1402
139.6855,119.1124
139.6281,119.0726
139.6012,119.0081
139.6005,118.9947
139.6005,118.6082
139.6202,118.5412
139.6685,118.4990
139.6682,118.4986
139.6708,118.4970
139.6721,118.4959
139.6743,118.4948
139.6743,118.4948
139.8237,118.4027
139.9477,118.2787
140.0398,118.1293
140.0950,117.9628
140.1055,117.8600
140.1055,117.1600
140.0950,117.0572
140.0398,116.8907
139.9477,116.7413
139.8237,116.6173
139.7393,116.5652
139.6926,116.5133
139.6813,116.4443
139.7092,116.3803
139.7393,116.3542
139.8233,116.3023
139.9473,116.1783
140.0394,116.0291
140.0394,116.0291
140.0945,115.8627
140.0945,115.8627
140.1050,115.7600
140.1050,115.7600
140.1050,115.6600
137.9050,115.6600
137.9050,115.7600
137.9155,115.8627
137.9706,116.0291
137.9706,116.0291
138.0627,116.1783
138.1867,116.3023
138.2707,116.3542
138.3174,116.4061
138.3287,116.4751
138.3008,116.5392
138.2707,116.5652
138.1863,116.6173
138.1863,116.6173
138.0623,116.7413
137.9702,116.8907
137.9702,116.8907
137.9150,117.0572
137.9150,117.0572
137.9150,117.0572
137.9045,117.1600
137.9045,117.8600
137.9045,117.8600
137.9150,117.9628
137.9150,117.9628
137.9702,118.1293
137.9702,118.1293
138.0623,118.2787
138.1863,118.4027
138.3357,118.4948
138.3357,118.4948
138.3406,118.4979
138.3873,118.5498
138.3995,118.6034
138.3995,118.9947
138.3798,119.0617
138.3270,119.1075
138.3145,119.1124
138.3095,119.1141
138.2307,119.1402
138.2307,119.1402
138.0813,119.2323
137.9573,119.3563
137.8652,119.5057
137.8652,119.5057
137.8100,119.6722
137.8100,119.6722
137.8100,119.6722
137.7995,119.7750
137.7995,120.4000
137.7995,120.4000
137.8100,120.5028
137.8100,120.5028
137.8652,120.6693
137.8652,120.6693
137.9573,120.8187
138.0510,120.9123
138.0844,120.9736
138.0795,121.0433
138.0510,121.0877
137.9573,121.1813
137.8652,121.3307
137.8652,121.3307
137.8589,121.3497
137.8100,121.4972
137.8100,121.4972
137.8100,121.4972
137.7995,121.6000
137.7995,122.2250
137.7995,122.2250
137.8100,122.3278
137.8100,122.3278
137.8652,122.4943
137.8652,122.4943
137.9573,122.6437
138.0813,122.7677
138.2307,122.8598
138.3145,122.8876
138.3719,122.9274
138.3988,122.9919
138.3995,123.0053
138.3995,123.6999
138.3798,123.7669
138.3632,123.7876
137.6195,124.5313
137.6195,124.5313
137.5694,124.6181
137.5694,124.6181
137.5404,124.6682
137.5404,124.6682
137.5404,124.6682
137.4995,124.8209
137.4995,124.8209
137.4995,124.9890
137.4995,124.9891
137.4995,126.1987
137.4798,126.2657
137.4391,126.3045
137.4392,126.3046
137.4389,126.3048
137.4375,126.3061
137.4347,126.3077
137.2447,126.4407
137.2447,126.4407
137.0807,126.6047
137.0807,126.6047
136.9477,126.7947
136.9477,126.7947
136.9424,126.8061
136.8962,126.8586
136.8290,126.8777
136.7621,126.8575
136.7176,126.8061
136.7159,126.8025
136.7123,126.7947
136.7123,126.7947
136.7123,126.7947
136.5793,126.6047
136.5793,126.6047
136.4153,126.4407
136.2253,126.3077
136.1721,126.2829
136.1197,126.2367
136.1005,126.1705
136.1005,123.0053
136.1202,122.9383
136.1730,122.8925
136.1855,122.8876
136.2693,122.8598
136.4187,122.7677
136.5427,122.6437
136.6348,122.4943
136.6900,122.3278
136.7005,122.2250
136.7005,121.6000
136.6900,121.4972
136.6348,121.3307
136.5427,121.1813
136.4490,121.0877
136.4156,121.0264
136.4205,120.9567
136.4490,120.9123
136.5427,120.8187
136.6348,120.6693
136.6900,120.5028
136.7005,120.4000
136.7005,119.7750
136.6900,119.6722
136.6348,119.5057
136.5427,119.3563
136.4187,119.2323
136.2693,119.1402
136.1905,119.1141
136.1331,119.0743
136.1062,119.0098
136.1055,118.9964
136.1055,118.6059
136.1252,118.5389
136.1693,118.5004
136.1682,118.4986
136.1743,118.4948
136.1743,118.4948
136.3237,118.4027
136.4477,118.2787
136.5398,118.1293
136.5950,117.9628
136.6055,117.8600
136.6055,117.1600
136.5950,117.0572
136.5398,116.8907
136.4477,116.7413
136.3237,116.6173
136.2393,116.5652
136.1926,116.5133
136.1813,116.4443
136.2092,116.3803
136.2393,116.3542
136.3233,116.3023
136.4473,116.1783
136.5394,116.0291
136.5394,116.0291
136.5945,115.8627
136.5945,115.8627
136.6050,115.7600
136.6050,115.7600
136.6050,115.6600
134.4050,115.6600
134.4050,115.7600
134.4155,115.8627
134.4706,116.0291
134.4706,116.0291
134.5627,116.1783
134.6867,116.3023
134.7707,116.3542
134.8174,116.4061
134.8287,116.4751
134.8008,116.5392
134.7707,116.5652
134.6863,116.6173
134.6863,116.6173
134.5623,116.7413
134.4702,116.8907
134.4702,116.8907
134.4150,117.0572
134.4150,117.0572
134.4150,117.0572
134.4045,117.1600
134.4045,117.8600
134.4045,117.8600
134.4150,117.9628
134.4150,117.9628
134.4702,118.1293
134.4702,118.1293
134.5623,118.2787
134.6863,118.4027
134.8357,118.4948
134.8357,118.4948
134.8418,118.4986
134.8407,118.5004
134.8853,118.5397
134.9045,118.6059
134.9045,118.9930
134.8848,119.0601
134.8320,119.1058
134.8195,119.1107
134.7307,119.1402
134.7307,119.1402
134.5813,119.2323
134.4573,119.3563
134.3652,119.5057
134.3652,119.5057
134.3100,119.6722
134.3100,119.6722
134.3100,119.6722
134.2995,119.7750
134.2995,120.4000
134.2995,120.4000
134.3100,120.5028
134.3100,120.5028
134.3652,120.6693
134.3652,120.6693
134.4573,120.8187
134.5510,120.9123
134.5844,120.9736
134.5795,121.0433
134.5510,121.0877
134.4573,121.1813
134.3652,121.3307
134.3652,121.3307
134.3589,121.3497
134.3100,121.4972
134.3100,121.4972
134.3100,121.4972
134.2995,121.6000
134.2995,122.2250
134.2995,122.2250
134.3100,122.3278
134.3100,122.3278
134.3652,122.4943
134.3652,122.4943
134.4573,122.6437
134.5813,122.7677
134.7307,122.8598
134.8145,122.8876
134.8719,122.9274
134.8988,122.9919
134.8995,123.0053
134.8995,126.2398
134.8798,126.3068
134.8466,126.3414
134.7047,126.4407
134.7047,126.4407
134.5407,126.6047
134.5407,126.6047
134.4077,126.7947
134.4077,126.7947
134.4024,126.8061
134.3562,126.8586
134.2890,126.8777
134.2221,126.8575
134.1776,126.8061
134.1759,126.8025
134.1723,126.7947
134.1723,126.7947
134.1723,126.7947
134.0393,126.6047
134.0393,126.6047
133.8753,126.4407
133.7643,126.3630
133.6853,126.3077
133.4751,126.2097
133.4751,126.2097
133.4751,126.2097
133.2511,126.1497
133.2510,126.1496
133.0200,126.1294
133.0200,126.1294
132.7890,126.1496
132.7889,126.1497
132.5649,126.2097
132.3547,126.3077
132.3547,126.3077
132.1647,126.4407
132.1647,126.4407
132.0007,126.6047
132.0007,126.6047
131.8677,126.7947
131.8677,126.7947
131.8624,126.8061
131.8162,126.8586
131.7490,126.8777
131.6821,126.8575
131.6376,126.8061
131.6359,126.8025
131.6323,126.7947
131.6323,126.7947
131.6323,126.7947
131.4993,126.6047
131.4993,126.6047
131.3353,126.4407
131.2243,126.3630
131.1453,126.3077
130.9351,126.2097
130.9351,126.2097
130.9351,126.2097
130.7111,126.1497
130.7110,126.1496
130.4800,126.1294
130.4800,126.1294
130.2490,126.1496
130.2489,126.1497
130.0249,126.2097
129.8147,126.3077
129.8147,126.3077
129.6247,126.4407
129.6247,126.4407
129.4607,126.6047
129.4607,126.6047
129.3277,126.7947
129.3277,126.7947
129.3224,126.8061
129.2762,126.8586
129.2090,126.8777
129.1421,126.8575
129.0976,126.8061
129.0959,126.8025
129.0923,126.7947
129.0923,126.7947
129.0923,126.7947
128.9593,126.6047
128.9593,126.6047
128.7953,126.4407
128.6843,126.3630
128.6053,126.3077
128.3951,126.2097
128.3951,126.2097
128.3951,126.2097
128.1711,126.1497
128.1710,126.1496
127.9400,126.1294
127.9400,126.1294
127.7090,126.1496
127.7089,126.1497
127.4849,126.2097
127.2747,126.3077
127.2747,126.3077
127.0847,126.4407
127.0847,126.4407
126.9207,126.6047
126.9207,126.6047
126.7877,126.7947
126.7877,126.7947
126.6897,127.0049
126.6297,127.2289
126.6296,127.2290
126.6094,127.4600
116.8505,127.4600
116.8505,127.3387
116.8188,127.0982
116.7561,126.8639
116.6632,126.6398
116.5419,126.4297
116.4483,126.3077
116.3943,126.2373
116.3943,126.2373
116.2227,126.0657
116.2227,126.0657
116.0303,125.9181
116.0303,125.9181
116.0303,125.9181
115.8202,125.7968
115.8202,125.7968
115.5961,125.7039
115.3618,125.6412
115.1213,125.6095
115.1213,125.6095
114.8787,125.6095
114.8787,125.6095
114.6382,125.6412
114.4039,125.7039
114.1798,125.7968
114.1798,125.7968
113.9697,125.9181
113.7773,126.0657
113.7773,126.0657
113.6057,126.2373
113.6057,126.2373
113.4581,126.4297
113.4581,126.4297
113.4581,126.4297
113.4517,126.4407
113.3368,126.6398
113.3368,126.6398
113.2439,126.8639
113.1812,127.0982
113.1495,127.3387
100.3005,127.3387
100.3005,115.0600
134.4050,115.0600
134.4050,115.1600
135.2550,115.1600
135.7550,115.1600
136.6050,115.1600
136.6050,115.0600
136.6050,115.0600
137.9050,115.0600
137.9050,115.1600
138.7550,115.1600
139.2550,115.1600
140.1050,115.1600
140.1050,115.0600
140.1050,115.0600
140.0945,114.9573
140.0394,114.7909
140.0394,114.7909
139.9473,114.6417
139.8233,114.5177
139.6741,114.4256
139.6741,114.4256
139.5077,114.3705
139.5077,114.3705
139.4050,114.3600
139.2550,114.3600
139.2550,115.1600
138.7550,115.1600
138.7550,114.3600
138.6050,114.3600
138.6050,114.3600
138.5023,114.3705
138.3359,114.4256
138.3359,114.4256
138.1867,114.5177
138.0627,114.6417
137.9706,114.7909
137.9706,114.7909
137.9155,114.9573
137.9155,114.9573
137.9050,115.0600
136.6050,115.0600
136.5945,114.9573
136.5394,114.7909
136.5394,114.7909
136.4473,114.6417
136.3233,114.5177
136.1741,114.4256
136.1741,114.4256
136.0077,114.3705
136.0077,114.3705
135.9050,114.3600
135.7550,114.3600
135.7550,115.1600
135.2550,115.1600
135.2550,114.3600
135.1050,114.3600
135.1050,114.3600
135.0023,114.3705
134.8359,114.4256
134.8359,114.4256
134.6867,114.5177
134.5627,114.6417
134.4706,114.7909
134.4706,114.7909
134.4155,114.9573
134.4155,114.9573
134.4050,115.0600
100.3005,115.0600
100.3005,94.3187
164.1895,94.3187
164.1895,94.5613
164.2212,94.8018
164.2839,95.0361
164.3768,95.2602
164.3768,95.2602
164.4981,95.4703
164.4981,95.4703
164.4981,95.4703
164.6457,95.6627
164.6457,95.6627
164.8173,95.8343
164.8173,95.8343
165.0097,95.9819
165.2198,96.1032
165.4439,96.1961
165.6782,96.2588
165.8586,96.2826
165.9187,96.2905
165.9187,96.2905
166.1613,96.2905
166.2094,96.2842
166.4018,96.2588
166.6361,96.1961
166.8602,96.1032
167.0703,95.9819
167.2627,95.8343
167.4343,95.6627
167.5819,95.4703
167.7032,95.2602
167.7961,95.0361
167.8588,94.8018
167.8905,94.5613
167.8905,94.3187
167.8588,94.0782
167.7961,93.8439
167.7032,93.6198
167.5819,93.4097
167.4343,93.2173
167.4343,93.2173
167.2627,93.0457
167.2627,93.0457
167.0703,92.8981
167.0703,92.8981
167.0703,92.8981
166.8602,92.7768
166.8602,92.7768
166.6361,92.6839
166.4018,92.6212
166.1613,92.5895
166.1613,92.5895
165.9187,92.5895
165.9187,92.5895
165.6782,92.6212
165.4439,92.6839
165.2198,92.7768
165.2198,92.7768
165.0097,92.8981
164.8173,93.0457
164.8173,93.0457
164.6457,93.2173
164.6457,93.2173
164.4981,93.4097
164.3768,93.6198
164.3768,93.6198
164.2839,93.8439
164.2212,94.0782
164.1895,94.3187
100.3005,94.3187
100.3005,79.0787
113.3895,79.0787
113.3895,79.3213
113.4212,79.5618
113.4839,79.7961
113.5126,79.8653
113.5768,80.0202
113.6981,80.2303
113.6981,80.2303
113.6981,80.2303
113.8457,80.4227
113.8457,80.4227
114.0173,80.5943
114.0173,80.5943
114.2097,80.7419
114.4198,80.8632
114.6439,80.9561
114.8782,81.0188
115.0586,81.0426
115.1187,81.0505
115.1187,81.0505
115.3613,81.0505
115.4094,81.0442
115.6018,81.0188
115.8361,80.9561
116.0602,80.8632
116.2703,80.7419
116.4627,80.5943
116.6343,80.4227
116.7819,80.2303
116.9032,80.0202
116.9961,79.7961
117.0588,79.5618
117.0905,79.3213
117.0905,79.2000
117.4854,79.2000
117.4854,79.2000
117.5056,79.4310
117.5057,79.4311
117.5657,79.6551
117.5657,79.6551
117.5657,79.6551
117.6637,79.8653
117.7967,80.0553
117.9607,80.2193
118.1507,80.3523
118.3609,80.4503
118.5849,80.5103
118.7500,80.5248
118.8160,80.5306
118.8160,80.5306
118.8160,80.5306
118.8738,80.5255
119.0470,80.5103
119.2711,80.4503
119.4813,80.3523
119.6713,80.2193
119.8353,80.0553
119.9683,79.8653
119.9736,79.8539
120.0198,79.8014
120.0870,79.7823
120.1539,79.8025
120.1984,79.8539
120.2037,79.8653
120.3367,80.0553
120.5007,80.2193
120.6907,80.3523
120.9009,80.4503
121.1249,80.5103
121.2900,80.5248
121.3560,80.5306
121.3560,80.5306
121.3560,80.5306
121.4138,80.5255
121.5870,80.5103
121.8111,80.4503
122.0213,80.3523
122.2113,80.2193
122.3753,80.0553
122.5083,79.8653
122.5136,79.8539
122.5598,79.8014
122.6270,79.7823
122.6939,79.8025
122.7384,79.8539
122.7437,79.8653
122.8767,80.0553
123.0407,80.2193
123.2307,80.3523
123.4409,80.4503
123.6649,80.5103
123.8300,80.5248
123.8960,80.5306
123.8960,80.5306
123.8960,80.5306
123.9538,80.5255
124.1270,80.5103
124.3511,80.4503
124.5613,80.3523
124.7513,80.2193
124.9153,80.0553
125.0483,79.8653
125.0536,79.8539
125.0998,79.8014
125.1670,79.7823
125.2339,79.8025
125.2784,79.8539
125.2837,79.8653
125.4167,80.0553
125.5807,80.2193
125.7707,80.3523
125.9809,80.4503
126.2049,80.5103
126.3700,80.5248
126.4360,80.5306
126.4360,80.5306
126.4360,80.5306
126.4938,80.5255
126.6670,80.5103
126.8911,80.4503
127.1013,80.3523
127.2913,80.2193
127.4553,80.0553
127.5883,79.8653
127.5936,79.8539
127.6398,79.8014
127.7070,79.7823
127.7739,79.8025
127.8184,79.8539
127.8237,79.8653
127.9567,80.0553
128.1207,80.2193
128.3107,80.3523
128.5209,80.4503
128.7449,80.5103
128.9100,80.5248
128.9760,80.5306
128.9760,80.5306
128.9760,80.5306
129.0338,80.5255
129.2070,80.5103
129.4311,80.4503
129.6413,80.3523
129.8313,80.2193
129.9953,80.0553
130.1283,79.8653
130.1336,79.8539
130.1798,79.8014
130.2470,79.7823
130.3139,79.8025
130.3584,79.8539
130.3637,79.8653
130.4967,80.0553
130.6607,80.2193
130.8507,80.3523
131.0609,80.4503
131.2849,80.5103
131.4500,80.5248
131.5160,80.5306
131.5160,80.5306
131.5160,80.5306
131.5738,80.5255
131.7471,80.5103
131.9711,80.4503
132.1813,80.3523
132.3713,80.2193
132.5353,80.0553
132.6683,79.8653
132.6736,79.8539
132.7198,79.8014
132.7870,79.7823
132.8539,79.8025
132.8984,79.8539
132.9037,79.8653
133.0367,80.0553
133.2007,80.2193
133.3907,80.3523
133.6009,80.4503
133.8250,80.5103
133.9900,80.5248
134.0560,80.5306
134.0560,80.5306
134.0560,80.5306
134.1138,80.5255
134.2870,80.5103
134.5111,80.4503
134.7213,80.3523
134.9113,80.2193
135.0753,80.0553
135.2083,79.8653
135.2136,79.8539
135.2598,79.8014
135.3270,79.7823
135.3939,79.8025
135.4384,79.8539
135.4437,79.8653
135.5767,80.0553
135.7407,80.2193
135.9307,80.3523
136.1409,80.4503
136.3649,80.5103
136.5300,80.5248
136.5960,80.5306
136.5960,80.5306
136.5960,80.5306
136.6538,80.5255
136.8270,80.5103
137.0511,80.4503
137.2613,80.3523
137.4513,80.2193
137.6153,80.0553
137.7483,79.8653
137.7536,79.8539
137.7998,79.8014
137.8670,79.7823
137.9339,79.8025
137.9784,79.8539
137.9837,79.8653
138.1167,80.0553
138.2807,80.2193
138.4707,80.3523
138.6809,80.4503
138.9049,80.5103
139.0700,80.5248
139.1360,80.5306
139.1360,80.5306
139.1360,80.5306
139.1938,80.5255
139.3671,80.5103
139.5911,80.4503
139.8013,80.3523
139.9913,80.2193
140.1553,80.0553
140.2883,79.8653
140.2936,79.8539
140.3398,79.8014
140.4070,79.7823
140.4739,79.8025
140.5184,79.8539
140.5237,79.8653
140.6567,80.0553
140.8207,80.2193
141.0107,80.3523
141.2209,80.4503
141.4450,80.5103
141.6100,80.5248
141.6760,80.5306
141.6760,80.5306
141.6760,80.5306
141.7338,80.5255
141.9070,80.5103
142.1311,80.4503
142.3413,80.3523
142.5313,80.2193
142.6953,80.0553
142.8283,79.8653
142.9263,79.6551
142.9863,79.4310
143.0066,79.2000
143.0066,79.2000
144.3894,79.2000
144.3894,79.2000
144.4096,79.4310
144.4097,79.4311
144.4697,79.6551
144.4697,79.6551
144.4697,79.6551
144.5677,79.8653
144.7007,80.0553
144.8647,80.2193
145.0547,80.3523
145.2649,80.4503
145.4889,80.5103
145.6540,80.5248
145.7200,80.5306
145.7200,80.5306
145.7200,80.5306
145.7778,80.5255
145.9510,80.5103
146.1751,80.4503
146.3853,80.3523
146.5753,80.2193
146.7393,80.0553
146.8723,79.8653
146.8776,79.8539
146.9238,79.8014
146.9910,79.7823
147.0579,79.8025
147.1024,79.8539
147.1077,79.8653
147.2407,80.0553
147.4047,80.2193
147.5947,80.3523
147.8049,80.4503
148.0289,80.5103
148.1940,80.5248
148.2600,80.5306
148.2600,80.5306
148.2600,80.5306
148.3178,80.5255
148.4911,80.5103
148.7151,80.4503
148.9253,80.3523
149.1153,80.2193
149.2793,80.0553
149.4123,79.8653
149.4176,79.8539
149.4638,79.8014
149.5310,79.7823
149.5979,79.8025
149.6424,79.8539
149.6477,79.8653
149.7807,80.0553
149.9447,80.2193
150.1347,80.3523
150.3449,80.4503
150.5690,80.5103
150.7340,80.5248
150.8000,80.5306
150.8000,80.5306
150.8000,80.5306
150.8578,80.5255
151.0310,80.5103
151.2551,80.4503
151.4653,80.3523
151.6553,80.2193
151.8193,80.0553
151.9523,79.8653
151.9576,79.8539
152.0038,79.8014
152.0710,79.7823
152.1379,79.8025
152.1824,79.8539
152.1877,79.8653
152.3207,80.0553
152.4847,80.2193
152.6747,80.3523
152.8849,80.4503
153.1089,80.5103
153.2740,80.5248
153.3400,80.5306
153.3400,80.5306
153.3400,80.5306
153.3978,80.5255
153.5710,80.5103
153.7951,80.4503
154.0053,80.3523
154.1953,80.2193
154.3593,80.0553
154.4923,79.8653
154.4976,79.8539
154.5438,79.8014
154.6110,79.7823
154.6779,79.8025
154.7224,79.8539
154.7277,79.8653
154.8607,80.0553
155.0247,80.2193
155.2147,80.3523
155.4249,80.4503
155.6489,80.5103
155.8140,80.5248
155.8800,80.5306
155.8800,80.5306
155.8800,80.5306
155.9378,80.5255
156.1111,80.5103
156.3351,80.4503
156.5453,80.3523
156.7353,80.2193
156.8993,80.0553
157.0323,79.8653
157.0376,79.8539
157.0838,79.8014
157.1510,79.7823
157.2179,79.8025
157.2624,79.8539
157.2677,79.8653
157.4007,80.0553
157.5647,80.2193
157.7547,80.3523
157.9649,80.4503
158.1890,80.5103
158.3540,80.5248
158.4200,80.5306
158.4200,80.5306
158.4200,80.5306
158.4778,80.5255
158.6510,80.5103
158.8751,80.4503
159.0853,80.3523
159.2753,80.2193
159.4393,80.0553
159.5723,79.8653
159.5776,79.8539
159.6238,79.8014
159.6910,79.7823
159.7579,79.8025
159.8024,79.8539
159.8077,79.8653
159.9407,80.0553
160.1047,80.2193
160.2947,80.3523
160.5049,80.4503
160.7289,80.5103
160.8940,80.5248
160.9600,80.5306
160.9600,80.5306
160.9600,80.5306
161.0178,80.5255
161.1910,80.5103
161.4151,80.4503
161.6253,80.3523
161.8153,80.2193
161.9793,80.0553
162.1123,79.8653
162.1176,79.8539
162.1638,79.8014
162.2310,79.7823
162.2979,79.8025
162.3424,79.8539
162.3477,79.8653
162.4807,80.0553
162.6447,80.2193
162.8347,80.3523
163.0449,80.4503
163.2689,80.5103
163.4340,80.5248
163.5000,80.5306
163.5000,80.5306
163.5000,80.5306
163.5578,80.5255
163.7310,80.5103
163.9551,80.4503
164.1653,80.3523
164.3553,80.2193
164.5193,80.0553
164.6523,79.8653
164.7503,79.6551
164.8103,79.4310
164.8306,79.2000
164.8103,78.9689
164.7503,78.7449
164.6523,78.5347
164.6523,78.5347
164.6523,78.5347
164.5193,78.3447
164.5193,78.3447
164.3553,78.1807
164.2748,78.1244
164.1653,78.0477
163.9551,77.9497
163.9551,77.9497
163.9551,77.9497
163.7311,77.8897
163.7310,77.8897
163.5000,77.8694
163.5000,77.8694
163.2690,77.8897
163.2689,77.8897
163.0449,77.9497
162.8347,78.0477
162.8347,78.0477
162.6447,78.1807
162.6447,78.1807
162.4807,78.3447
162.4807,78.3447
162.3477,78.5347
162.3477,78.5347
162.3424,78.5461
162.2962,78.5986
162.2290,78.6177
162.1621,78.5975
162.1176,78.5461
162.1123,78.5347
162.1123,78.5347
161.9793,78.3447
161.9793,78.3447
161.8153,78.1807
161.7348,78.1244
161.6253,78.0477
161.4151,77.9497
161.4151,77.9497
161.4151,77.9497
161.1911,77.8897
161.1910,77.8897
160.9600,77.8694
160.9600,77.8694
160.7290,77.8897
160.7289,77.8897
160.5049,77.9497
160.2947,78.0477
160.2947,78.0477
160.1047,78.1807
160.1047,78.1807
159.9407,78.3447
159.9407,78.3447
159.8077,78.5347
159.8077,78.5347
159.8024,78.5461
159.7562,78.5986
159.6890,78.6177
159.6221,78.5975
159.5776,78.5461
159.5723,78.5347
159.5723,78.5347
159.4393,78.3447
159.4393,78.3447
159.2753,78.1807
159.1948,78.1244
159.0853,78.0477
158.8751,77.9497
158.8751,77.9497
158.8751,77.9497
158.6511,77.8897
158.6510,77.8897
158.4200,77.8694
158.4200,77.8694
158.1890,77.8897
158.1889,77.8897
157.9649,77.9497
157.7547,78.0477
157.7547,78.0477
157.5647,78.1807
157.5647,78.1807
157.4007,78.3447
157.4007,78.3447
157.2677,78.5347
157.2677,78.5347
157.2624,78.5461
157.2162,78.5986
157.1490,78.6177
157.0821,78.5975
157.0376,78.5461
157.0323,78.5347
157.0323,78.5347
156.8993,78.3447
156.8993,78.3447
156.7353,78.1807
156.6548,78.1244
156.5453,78.0477
156.3351,77.9497
156.3351,77.9497
156.3351,77.9497
156.1111,77.8897
156.1110,77.8897
155.8800,77.8694
155.8800,77.8694
155.6490,77.8897
155.6489,77.8897
155.4249,77.9497
155.2147,78.0477
155.2147,78.0477
155.0247,78.1807
155.0247,78.1807
154.8607,78.3447
154.8607,78.3447
154.7277,78.5347
154.7277,78.5347
154.7224,78.5461
154.6762,78.5986
154.6090,78.6177
154.5421,78.5975
154.4976,78.5461
154.4923,78.5347
154.4923,78.5347
154.3593,78.3447
154.3593,78.3447
154.1953,78.1807
154.1148,78.1244
154.0053,78.0477
153.7951,77.9497
153.7951,77.9497
153.7951,77.9497
153.5711,77.8897
153.5710,77.8897
153.3400,77.8694
153.3400,77.8694
153.1090,77.8897
153.1089,77.8897
152.8849,77.9497
152.6747,78.0477
152.6747,78.0477
152.4847,78.1807
152.4847,78.1807
152.3207,78.3447
152.3207,78.3447
152.1877,78.5347
152.1877,78.5347
152.1824,78.5461
152.1362,78.5986
152.0690,78.6177
152.0021,78.5975
151.9576,78.5461
151.9523,78.5347
151.9523,78.5347
151.8193,78.3447
151.8193,78.3447
151.6553,78.1807
151.5748,78.1244
151.4653,78.0477
151.2551,77.9497
151.2551,77.9497
151.2551,77.9497
151.0311,77.8897
151.0310,77.8897
150.8000,77.8694
150.8000,77.8694
150.5690,77.8897
150.5689,77.8897
150.3449,77.9497
150.1347,78.0477
150.1347,78.0477
149.9447,78.1807
149.9447,78.1807
149.7807,78.3447
149.7807,78.3447
149.6477,78.5347
149.6477,78.5347
149.6424,78.5461
149.5962,78.5986
149.5290,78.6177
149.4621,78.5975
149.4176,78.5461
149.4123,78.5347
149.4123,78.5347
149.2793,78.3447
149.2793,78.3447
149.1153,78.1807
149.0348,78.1244
148.9253,78.0477
148.7151,77.9497
148.7151,77.9497
148.7151,77.9497
148.4911,77.8897
148.4910,77.8897
148.2600,77.8694
148.2600,77.8694
148.0290,77.8897
148.0289,77.8897
147.8049,77.9497
147.5947,78.0477
147.5947,78.0477
147.4047,78.1807
147.4047,78.1807
147.2407,78.3447
147.2407,78.3447
147.1077,78.5347
147.1077,78.5347
147.1024,78.5461
147.0562,78.5986
146.9890,78.6177
146.9221,78.5975
146.8776,78.5461
146.8723,78.5347
146.8723,78.5347
146.7393,78.3447
146.7393,78.3447
146.5753,78.1807
146.4948,78.1244
146.3853,78.0477
146.1751,77.9497
146.1751,77.9497
146.1751,77.9497
145.9511,77.8897
145.9510,77.8897
145.7200,77.8694
145.7200,77.8694
145.4890,77.8897
145.4889,77.8897
145.2649,77.9497
145.0547,78.0477
145.0547,78.0477
144.8647,78.1807
144.8647,78.1807
144.7007,78.3447
144.7007,78.3447
144.5677,78.5347
144.5677,78.5347
144.4697,78.7449
144.4097,78.9689
144.4096,78.9690
144.3894,79.2000
143.0066,79.2000
142.9863,78.9689
142.9263,78.7449
142.8283,78.5347
142.8283,78.5347
142.8283,78.5347
142.6953,78.3447
142.6953,78.3447
142.5313,78.1807
142.4508,78.1244
142.3413,78.0477
142.1311,77.9497
142.1311,77.9497
142.1311,77.9497
141.9071,77.8897
141.9070,77.8897
141.6760,77.8694
141.6760,77.8694
141.4450,77.8897
141.4449,77.8897
141.2209,77.9497
141.0107,78.0477
141.0107,78.0477
140.8207,78.1807
140.8207,78.1807
140.6567,78.3447
140.6567,78.3447
140.5237,78.5347
140.5237,78.5347
140.5184,78.5461
140.4722,78.5986
140.4050,78.6177
140.3381,78.5975
140.2936,78.5461
140.2883,78.5347
140.2883,78.5347
140.1553,78.3447
140.1553,78.3447
139.9913,78.1807
139.9108,78.1244
139.8013,78.0477
139.5911,77.9497
139.5911,77.9497
139.5911,77.9497
139.3671,77.8897
139.3670,77.8897
139.1360,77.8694
139.1360,77.8694
138.9050,77.8897
138.9049,77.8897
138.6809,77.9497
138.4707,78.0477
138.4707,78.0477
138.2807,78.1807
138.2807,78.1807
138.1167,78.3447
138.1167,78.3447
137.9837,78.5347
137.9837,78.5347
137.9784,78.5461
137.9322,78.5986
137.8650,78.6177
137.7981,78.5975
137.7536,78.5461
137.7483,78.5347
137.7483,78.5347
137.6153,78.3447
137.6153,78.3447
137.4513,78.1807
137.3708,78.1244
137.2613,78.0477
137.0511,77.9497
137.0511,77.9497
137.0511,77.9497
136.8271,77.8897
136.8270,77.8897
136.5960,77.8694
136.5960,77.8694
136.3650,77.8897
136.3649,77.8897
136.1409,77.9497
135.9307,78.0477
135.9307,78.0477
135.7407,78.1807
135.7407,78.1807
135.5767,78.3447
135.5767,78.3447
135.4437,78.5347
135.4437,78.5347
135.4384,78.5461
135.3922,78.5986
135.3250,78.6177
135.2581,78.5975
135.2136,78.5461
135.2083,78.5347
135.2083,78.5347
135.0753,78.3447
135.0753,78.3447
134.9113,78.1807
134.8308,78.1244
134.7213,78.0477
134.5111,77.9497
134.5111,77.9497
134.5111,77.9497
134.2871,77.8897
134.2870,77.8897
134.0560,77.8694
134.0560,77.8694
133.8250,77.8897
133.8249,77.8897
133.6009,77.9497
133.3907,78.0477
133.3907,78.0477
133.2007,78.1807
133.2007,78.1807
133.0367,78.3447
133.0367,78.3447
132.9037,78.5347
132.9037,78.5347
132.8984,78.5461
132.8522,78.5986
132.7850,78.6177
132.7181,78.5975
132.6736,78.5461
132.6683,78.5347
132.6683,78.5347
132.5353,78.3447
132.5353,78.3447
132.3713,78.1807
132.2908,78.1244
132.1813,78.0477
131.9711,77.9497
131.9711,77.9497
131.9711,77.9497
131.7471,77.8897
131.7470,77.8897
131.5160,77.8694
131.5160,77.8694
131.2850,77.8897
131.2849,77.8897
131.0609,77.9497
130.8507,78.0477
130.8507,78.0477
130.6607,78.1807
130.6607,78.1807
130.4967,78.3447
130.4967,78.3447
130.3637,78.5347
130.3637,78.5347
130.3584,78.5461
130.3122,78.5986
130.2450,78.6177
130.1781,78.5975
130.1336,78.5461
130.1283,78.5347
130.1283,78.5347
129.9953,78.3447
129.9953,78.3447
129.8313,78.1807
129.7508,78.1244
129.6413,78.0477
129.4311,77.9497
129.4311,77.9497
129.4311,77.9497
129.2071,77.8897
129.2070,77.8897
128.9760,77.8694
128.9760,77.8694
128.7450,77.8897
128.7449,77.8897
128.5209,77.9497
128.3107,78.0477
128.3107,78.0477
128.1207,78.1807
128.1207,78.1807
127.9567,78.3447
127.9567,78.3447
127.8237,78.5347
127.8237,78.5347
127.8184,78.5461
127.7722,78.5986
127.7050,78.6177
127.6381,78.5975
127.5936,78.5461
127.5883,78.5347
127.5883,78.5347
127.4553,78.3447
127.4553,78.3447
127.2913,78.1807
127.2108,78.1244
127.1013,78.0477
126.8911,77.9497
126.8911,77.9497
126.8911,77.9497
126.6671,77.8897
126.6670,77.8897
126.4360,77.8694
126.4360,77.8694
126.2050,77.8897
126.2049,77.8897
125.9809,77.9497
125.7707,78.0477
125.7707,78.0477
125.5807,78.1807
125.5807,78.1807
125.4167,78.3447
125.4167,78.3447
125.2837,78.5347
125.2837,78.5347
125.2784,78.5461
125.2322,78.5986
125.1650,78.6177
125.0981,78.5975
125.0536,78.5461
125.0483,78.5347
125.0483,78.5347
124.9153,78.3447
124.9153,78.3447
124.7513,78.1807
124.6708,78.1244
124.5613,78.0477
124.3511,77.9497
124.3511,77.9497
124.3511,77.9497
124.1271,77.8897
124.1270,77.8897
123.8960,77.8694
123.8960,77.8694
123.6650,77.8897
123.6649,77.8897
123.4409,77.9497
123.2307,78.0477
123.2307,78.0477
123.0407,78.1807
123.0407,78.1807
122.8767,78.3447
122.8767,78.3447
122.7437,78.5347
122.7437,78.5347
122.7384,78.5461
122.6922,78.5986
122.6250,78.6177
122.5581,78.5975
122.5136,78.5461
122.5083,78.5347
122.5083,78.5347
122.3753,78.3447
122.3753,78.3447
122.2113,78.1807
122.1308,78.1244
122.0213,78.0477
121.8111,77.9497
121.8111,77.9497
121.8111,77.9497
121.5871,77.8897
121.5870,77.8897
121.3560,77.8694
121.3560,77.8694
121.1250,77.8897
121.1249,77.8897
120.9009,77.9497
120.6907,78.0477
120.6907,78.0477
120.5007,78.1807
120.5007,78.1807
120.3367,78.3447
120.3367,78.3447
120.2037,78.5347
120.2037,78.5347
120.1984,78.5461
120.1522,78.5986
120.0850,78.6177
120.0181,78.5975
119.9736,78.5461
119.9683,78.5347
119.9683,78.5347
119.8353,78.3447
119.8353,78.3447
119.6713,78.1807
119.5908,78.1244
119.4813,78.0477
119.2711,77.9497
119.2711,77.9497
119.2711,77.9497
119.0471,77.8897
119.0470,77.8897
118.8160,77.8694
118.8160,77.8694
118.5850,77.8897
118.5849,77.8897
118.3609,77.9497
118.1507,78.0477
118.1507,78.0477
117.9607,78.1807
117.9607,78.1807
117.7967,78.3447
117.7967,78.3447
117.6637,78.5347
117.6637,78.5347
117.5657,78.7449
117.5057,78.9689
117.5056,78.9690
117.4854,79.2000
117.0905,79.2000
117.0905,79.0787
117.0588,78.8382
116.9961,78.6039
116.9032,78.3798
116.7819,78.1697
116.6343,77.9773
116.6343,77.9773
116.4627,77.8057
116.4627,77.8057
116.2703,77.6581
116.2703,77.6581
116.2703,77.6581
116.0602,77.5368
116.0602,77.5368
115.8361,77.4439
115.6018,77.3812
115.3613,77.3495
115.3613,77.3495
115.1187,77.3495
115.1187,77.3495
114.8782,77.3812
114.6439,77.4439
114.4198,77.5368
114.4198,77.5368
114.2097,77.6581
114.0173,77.8057
114.0173,77.8057
113.8457,77.9773
113.8457,77.9773
113.6981,78.1697
113.6981,78.1697
113.6981,78.1697
113.6917,78.1807
113.5768,78.3798
113.5768,78.3798
113.4839,78.6039
113.4212,78.8382
113.3895,79.0787
100.3005,79.0787
100.3005,76.8305
100.3202,76.7635
100.3730,76.7177
100.4245,76.7065
164.5008,76.7065
Z" /> 
</g>
<g style="fill:none; 
stroke:#000000; stroke-width:0.0500; stroke-opacity:1; 
stroke-linecap:round; stroke-linejoin:round;">
<path d="M168.7846 125.1732
L168.7846 91.9333
" />
<path d="M100.0000 76.4060
L100.0000 130.0000
" />
<path d="M168.7846 91.9333
L166.2455 89.4365
" />
<path d="M166.2455 77.9749
L164.6766 76.4060
" />
<path d="M163.9578 130.0000
L168.7846 125.1732
" />
<path d="M100.0000 130.0000
L163.9578 130.0000
" />
<path d="M164.6766 76.4060
L100.0000 76.4060
" />
<path d="M166.2455 89.0769
L166.2455 77.9749
" />
<path d="M166.2455 89.4365
L166.2455 89.0769
" />
</g> 
</svg>
