<?xml version="1.0" standalone="no"?>
 <!DOCTYPE svg PUBLIC "-//W3C//DTD SVG 1.1//EN" 
 "http://www.w3.org/Graphics/SVG/1.1/DTD/svg11.dtd"> 
<svg
  xmlns:svg="http://www.w3.org/2000/svg"
  xmlns="http://www.w3.org/2000/svg"
  xmlns:xlink="http://www.w3.org/1999/xlink"
  version="1.1"
  width="297.0022mm" height="210.0072mm" viewBox="0.0000 0.0000 297.0022 210.0072">
<title>SVG Image created as Arduino_Basic_Shield-User_9.svg date 2024/12/05 13:03:28 </title>
  <desc>Image generated by PCBNEW </desc>
<g style="fill:#000000; fill-opacity:1.0000;stroke:#000000; stroke-opacity:1.0000;
stroke-linecap:round; stroke-linejoin:round;"
 transform="translate(0 0) scale(1 1)">
</g>
<g style="fill:none; 
stroke:#000000; stroke-width:0.1000; stroke-opacity:1; 
stroke-linecap:round; stroke-linejoin:round;">
<g transform="rotate(-270.000000 143.3000 116.9000)">
<text x="143.3000" y="116.9000"
textLength="8.1476" font-size="1.3333" lengthAdjust="spacingAndGlyphs"
text-anchor="start" opacity="0">${devnote}</text>
</g>
<g class="stroked-text"><desc>${devnote}</desc>
<path d="M143.4752 117.1563
L143.4276 117.2991
" />
<path d="M143.4276 117.2991
L143.4276 117.5372
" />
<path d="M143.4276 117.5372
L143.4752 117.6325
" />
<path d="M143.4752 117.6325
L143.5228 117.6801
" />
<path d="M143.5228 117.6801
L143.6181 117.7277
" />
<path d="M143.6181 117.7277
L143.7133 117.7277
" />
<path d="M143.7133 117.7277
L143.8085 117.6801
" />
<path d="M143.8085 117.6801
L143.8562 117.6325
" />
<path d="M143.8562 117.6325
L143.9038 117.5372
" />
<path d="M143.9038 117.5372
L143.9514 117.3467
" />
<path d="M143.9514 117.3467
L143.9990 117.2515
" />
<path d="M143.9990 117.2515
L144.0466 117.2039
" />
<path d="M144.0466 117.2039
L144.1419 117.1563
" />
<path d="M144.1419 117.1563
L144.2371 117.1563
" />
<path d="M144.2371 117.1563
L144.3323 117.2039
" />
<path d="M144.3323 117.2039
L144.3800 117.2515
" />
<path d="M144.3800 117.2515
L144.4276 117.3467
" />
<path d="M144.4276 117.3467
L144.4276 117.5848
" />
<path d="M144.4276 117.5848
L144.3800 117.7277
" />
<path d="M144.5704 117.4420
L143.2847 117.4420
" />
<path d="M143.0466 118.4420
L143.0466 118.3944
" />
<path d="M143.0466 118.3944
L143.0942 118.2991
" />
<path d="M143.0942 118.2991
L143.1895 118.2515
" />
<path d="M143.1895 118.2515
L143.6657 118.2515
" />
<path d="M143.6657 118.2515
L143.7609 118.2039
" />
<path d="M143.7609 118.2039
L143.8085 118.1086
" />
<path d="M143.8085 118.1086
L143.8562 118.2039
" />
<path d="M143.8562 118.2039
L143.9514 118.2515
" />
<path d="M143.9514 118.2515
L144.4276 118.2515
" />
<path d="M144.4276 118.2515
L144.5228 118.2991
" />
<path d="M144.5228 118.2991
L144.5704 118.3944
" />
<path d="M144.5704 118.3944
L144.5704 118.4420
" />
<path d="M143.4276 119.2515
L144.4276 119.2515
" />
<path d="M143.4752 119.2515
L143.4276 119.1563
" />
<path d="M143.4276 119.1563
L143.4276 118.9658
" />
<path d="M143.4276 118.9658
L143.4752 118.8706
" />
<path d="M143.4752 118.8706
L143.5228 118.8229
" />
<path d="M143.5228 118.8229
L143.6181 118.7753
" />
<path d="M143.6181 118.7753
L143.9038 118.7753
" />
<path d="M143.9038 118.7753
L143.9990 118.8229
" />
<path d="M143.9990 118.8229
L144.0466 118.8706
" />
<path d="M144.0466 118.8706
L144.0942 118.9658
" />
<path d="M144.0942 118.9658
L144.0942 119.1563
" />
<path d="M144.0942 119.1563
L144.0466 119.2515
" />
<path d="M143.4752 120.1086
L143.4276 120.0134
" />
<path d="M143.4276 120.0134
L143.4276 119.8229
" />
<path d="M143.4276 119.8229
L143.4752 119.7277
" />
<path d="M143.4752 119.7277
L143.5704 119.6801
" />
<path d="M143.5704 119.6801
L143.9514 119.6801
" />
<path d="M143.9514 119.6801
L144.0466 119.7277
" />
<path d="M144.0466 119.7277
L144.0942 119.8229
" />
<path d="M144.0942 119.8229
L144.0942 120.0134
" />
<path d="M144.0942 120.0134
L144.0466 120.1086
" />
<path d="M144.0466 120.1086
L143.9514 120.1563
" />
<path d="M143.9514 120.1563
L143.8562 120.1563
" />
<path d="M143.8562 120.1563
L143.7609 119.6801
" />
<path d="M144.0942 120.4896
L143.4276 120.7277
" />
<path d="M143.4276 120.7277
L144.0942 120.9658
" />
<path d="M144.0942 121.3467
L143.4276 121.3467
" />
<path d="M143.9990 121.3467
L144.0466 121.3944
" />
<path d="M144.0466 121.3944
L144.0942 121.4896
" />
<path d="M144.0942 121.4896
L144.0942 121.6325
" />
<path d="M144.0942 121.6325
L144.0466 121.7277
" />
<path d="M144.0466 121.7277
L143.9514 121.7753
" />
<path d="M143.9514 121.7753
L143.4276 121.7753
" />
<path d="M143.4276 122.3944
L143.4752 122.2991
" />
<path d="M143.4752 122.2991
L143.5228 122.2515
" />
<path d="M143.5228 122.2515
L143.6181 122.2039
" />
<path d="M143.6181 122.2039
L143.9038 122.2039
" />
<path d="M143.9038 122.2039
L143.9990 122.2515
" />
<path d="M143.9990 122.2515
L144.0466 122.2991
" />
<path d="M144.0466 122.2991
L144.0942 122.3944
" />
<path d="M144.0942 122.3944
L144.0942 122.5372
" />
<path d="M144.0942 122.5372
L144.0466 122.6325
" />
<path d="M144.0466 122.6325
L143.9990 122.6801
" />
<path d="M143.9990 122.6801
L143.9038 122.7277
" />
<path d="M143.9038 122.7277
L143.6181 122.7277
" />
<path d="M143.6181 122.7277
L143.5228 122.6801
" />
<path d="M143.5228 122.6801
L143.4752 122.6325
" />
<path d="M143.4752 122.6325
L143.4276 122.5372
" />
<path d="M143.4276 122.5372
L143.4276 122.3944
" />
<path d="M144.0942 123.0134
L144.0942 123.3944
" />
<path d="M144.4276 123.1563
L143.5704 123.1563
" />
<path d="M143.5704 123.1563
L143.4752 123.2039
" />
<path d="M143.4752 123.2039
L143.4276 123.2991
" />
<path d="M143.4276 123.2991
L143.4276 123.3944
" />
<path d="M143.4752 124.1086
L143.4276 124.0134
" />
<path d="M143.4276 124.0134
L143.4276 123.8229
" />
<path d="M143.4276 123.8229
L143.4752 123.7277
" />
<path d="M143.4752 123.7277
L143.5704 123.6801
" />
<path d="M143.5704 123.6801
L143.9514 123.6801
" />
<path d="M143.9514 123.6801
L144.0466 123.7277
" />
<path d="M144.0466 123.7277
L144.0942 123.8229
" />
<path d="M144.0942 123.8229
L144.0942 124.0134
" />
<path d="M144.0942 124.0134
L144.0466 124.1086
" />
<path d="M144.0466 124.1086
L143.9514 124.1563
" />
<path d="M143.9514 124.1563
L143.8562 124.1563
" />
<path d="M143.8562 124.1563
L143.7609 123.6801
" />
<path d="M143.0466 124.4896
L143.0466 124.5372
" />
<path d="M143.0466 124.5372
L143.0942 124.6325
" />
<path d="M143.0942 124.6325
L143.1895 124.6801
" />
<path d="M143.1895 124.6801
L143.6657 124.6801
" />
<path d="M143.6657 124.6801
L143.7609 124.7277
" />
<path d="M143.7609 124.7277
L143.8085 124.8229
" />
<path d="M143.8085 124.8229
L143.8562 124.7277
" />
<path d="M143.8562 124.7277
L143.9514 124.6801
" />
<path d="M143.9514 124.6801
L144.4276 124.6801
" />
<path d="M144.4276 124.6801
L144.5228 124.6325
" />
<path d="M144.5228 124.6325
L144.5704 124.5372
" />
<path d="M144.5704 124.5372
L144.5704 124.4896
" />
</g><text x="127.8233" y="75.7704"
textLength="6.6714" font-size="1.3333" lengthAdjust="spacingAndGlyphs"
text-anchor="start" opacity="0">Digital 1</text>
<g class="stroked-text"><desc>Digital 1</desc>
<path d="M128.1272 75.6428
L128.1272 74.6428
" />
<path d="M128.1272 74.6428
L128.3653 74.6428
" />
<path d="M128.3653 74.6428
L128.5082 74.6904
" />
<path d="M128.5082 74.6904
L128.6034 74.7857
" />
<path d="M128.6034 74.7857
L128.6510 74.8809
" />
<path d="M128.6510 74.8809
L128.6986 75.0714
" />
<path d="M128.6986 75.0714
L128.6986 75.2142
" />
<path d="M128.6986 75.2142
L128.6510 75.4047
" />
<path d="M128.6510 75.4047
L128.6034 75.4999
" />
<path d="M128.6034 75.4999
L128.5082 75.5952
" />
<path d="M128.5082 75.5952
L128.3653 75.6428
" />
<path d="M128.3653 75.6428
L128.1272 75.6428
" />
<path d="M129.1272 75.6428
L129.1272 74.9761
" />
<path d="M129.1272 74.6428
L129.0796 74.6904
" />
<path d="M129.0796 74.6904
L129.1272 74.7380
" />
<path d="M129.1272 74.7380
L129.1748 74.6904
" />
<path d="M129.1748 74.6904
L129.1272 74.6428
" />
<path d="M129.1272 74.6428
L129.1272 74.7380
" />
<path d="M130.0320 74.9761
L130.0320 75.7857
" />
<path d="M130.0320 75.7857
L129.9843 75.8809
" />
<path d="M129.9843 75.8809
L129.9367 75.9285
" />
<path d="M129.9367 75.9285
L129.8415 75.9761
" />
<path d="M129.8415 75.9761
L129.6986 75.9761
" />
<path d="M129.6986 75.9761
L129.6034 75.9285
" />
<path d="M130.0320 75.5952
L129.9367 75.6428
" />
<path d="M129.9367 75.6428
L129.7463 75.6428
" />
<path d="M129.7463 75.6428
L129.6510 75.5952
" />
<path d="M129.6510 75.5952
L129.6034 75.5476
" />
<path d="M129.6034 75.5476
L129.5558 75.4523
" />
<path d="M129.5558 75.4523
L129.5558 75.1666
" />
<path d="M129.5558 75.1666
L129.6034 75.0714
" />
<path d="M129.6034 75.0714
L129.6510 75.0237
" />
<path d="M129.6510 75.0237
L129.7463 74.9761
" />
<path d="M129.7463 74.9761
L129.9367 74.9761
" />
<path d="M129.9367 74.9761
L130.0320 75.0237
" />
<path d="M130.5082 75.6428
L130.5082 74.9761
" />
<path d="M130.5082 74.6428
L130.4605 74.6904
" />
<path d="M130.4605 74.6904
L130.5082 74.7380
" />
<path d="M130.5082 74.7380
L130.5558 74.6904
" />
<path d="M130.5558 74.6904
L130.5082 74.6428
" />
<path d="M130.5082 74.6428
L130.5082 74.7380
" />
<path d="M130.8415 74.9761
L131.2224 74.9761
" />
<path d="M130.9843 74.6428
L130.9843 75.4999
" />
<path d="M130.9843 75.4999
L131.0320 75.5952
" />
<path d="M131.0320 75.5952
L131.1272 75.6428
" />
<path d="M131.1272 75.6428
L131.2224 75.6428
" />
<path d="M131.9843 75.6428
L131.9843 75.1190
" />
<path d="M131.9843 75.1190
L131.9367 75.0237
" />
<path d="M131.9367 75.0237
L131.8415 74.9761
" />
<path d="M131.8415 74.9761
L131.6510 74.9761
" />
<path d="M131.6510 74.9761
L131.5558 75.0237
" />
<path d="M131.9843 75.5952
L131.8891 75.6428
" />
<path d="M131.8891 75.6428
L131.6510 75.6428
" />
<path d="M131.6510 75.6428
L131.5558 75.5952
" />
<path d="M131.5558 75.5952
L131.5082 75.4999
" />
<path d="M131.5082 75.4999
L131.5082 75.4047
" />
<path d="M131.5082 75.4047
L131.5558 75.3095
" />
<path d="M131.5558 75.3095
L131.6510 75.2618
" />
<path d="M131.6510 75.2618
L131.8891 75.2618
" />
<path d="M131.8891 75.2618
L131.9843 75.2142
" />
<path d="M132.6034 75.6428
L132.5082 75.5952
" />
<path d="M132.5082 75.5952
L132.4605 75.4999
" />
<path d="M132.4605 75.4999
L132.4605 74.6428
" />
<path d="M134.2701 75.6428
L133.6986 75.6428
" />
<path d="M133.9843 75.6428
L133.9843 74.6428
" />
<path d="M133.9843 74.6428
L133.8891 74.7857
" />
<path d="M133.8891 74.7857
L133.7939 74.8809
" />
<path d="M133.7939 74.8809
L133.6986 74.9285
" />
</g><text x="154.5855" y="131.2569"
textLength="5.1000" font-size="1.3333" lengthAdjust="spacingAndGlyphs"
text-anchor="start" opacity="0">Analog</text>
<g class="stroked-text"><desc>Analog</desc>
<path d="M154.8418 130.8436
L155.3180 130.8436
" />
<path d="M154.7466 131.1294
L155.0799 130.1294
" />
<path d="M155.0799 130.1294
L155.4132 131.1294
" />
<path d="M155.7466 130.4627
L155.7466 131.1294
" />
<path d="M155.7466 130.5579
L155.7942 130.5103
" />
<path d="M155.7942 130.5103
L155.8894 130.4627
" />
<path d="M155.8894 130.4627
L156.0323 130.4627
" />
<path d="M156.0323 130.4627
L156.1275 130.5103
" />
<path d="M156.1275 130.5103
L156.1751 130.6055
" />
<path d="M156.1751 130.6055
L156.1751 131.1294
" />
<path d="M157.0799 131.1294
L157.0799 130.6055
" />
<path d="M157.0799 130.6055
L157.0323 130.5103
" />
<path d="M157.0323 130.5103
L156.9370 130.4627
" />
<path d="M156.9370 130.4627
L156.7466 130.4627
" />
<path d="M156.7466 130.4627
L156.6513 130.5103
" />
<path d="M157.0799 131.0817
L156.9846 131.1294
" />
<path d="M156.9846 131.1294
L156.7466 131.1294
" />
<path d="M156.7466 131.1294
L156.6513 131.0817
" />
<path d="M156.6513 131.0817
L156.6037 130.9865
" />
<path d="M156.6037 130.9865
L156.6037 130.8913
" />
<path d="M156.6037 130.8913
L156.6513 130.7960
" />
<path d="M156.6513 130.7960
L156.7466 130.7484
" />
<path d="M156.7466 130.7484
L156.9846 130.7484
" />
<path d="M156.9846 130.7484
L157.0799 130.7008
" />
<path d="M157.6989 131.1294
L157.6037 131.0817
" />
<path d="M157.6037 131.0817
L157.5561 130.9865
" />
<path d="M157.5561 130.9865
L157.5561 130.1294
" />
<path d="M158.2227 131.1294
L158.1275 131.0817
" />
<path d="M158.1275 131.0817
L158.0799 131.0341
" />
<path d="M158.0799 131.0341
L158.0323 130.9389
" />
<path d="M158.0323 130.9389
L158.0323 130.6532
" />
<path d="M158.0323 130.6532
L158.0799 130.5579
" />
<path d="M158.0799 130.5579
L158.1275 130.5103
" />
<path d="M158.1275 130.5103
L158.2227 130.4627
" />
<path d="M158.2227 130.4627
L158.3656 130.4627
" />
<path d="M158.3656 130.4627
L158.4608 130.5103
" />
<path d="M158.4608 130.5103
L158.5085 130.5579
" />
<path d="M158.5085 130.5579
L158.5561 130.6532
" />
<path d="M158.5561 130.6532
L158.5561 130.9389
" />
<path d="M158.5561 130.9389
L158.5085 131.0341
" />
<path d="M158.5085 131.0341
L158.4608 131.0817
" />
<path d="M158.4608 131.0817
L158.3656 131.1294
" />
<path d="M158.3656 131.1294
L158.2227 131.1294
" />
<path d="M159.4132 130.4627
L159.4132 131.2722
" />
<path d="M159.4132 131.2722
L159.3656 131.3674
" />
<path d="M159.3656 131.3674
L159.3180 131.4151
" />
<path d="M159.3180 131.4151
L159.2227 131.4627
" />
<path d="M159.2227 131.4627
L159.0799 131.4627
" />
<path d="M159.0799 131.4627
L158.9846 131.4151
" />
<path d="M159.4132 131.0817
L159.3180 131.1294
" />
<path d="M159.3180 131.1294
L159.1275 131.1294
" />
<path d="M159.1275 131.1294
L159.0323 131.0817
" />
<path d="M159.0323 131.0817
L158.9846 131.0341
" />
<path d="M158.9846 131.0341
L158.9370 130.9389
" />
<path d="M158.9370 130.9389
L158.9370 130.6532
" />
<path d="M158.9370 130.6532
L158.9846 130.5579
" />
<path d="M158.9846 130.5579
L159.0323 130.5103
" />
<path d="M159.0323 130.5103
L159.1275 130.4627
" />
<path d="M159.1275 130.4627
L159.3180 130.4627
" />
<path d="M159.3180 130.4627
L159.4132 130.5103
" />
</g><text x="134.4195" y="131.2569"
textLength="4.5286" font-size="1.3333" lengthAdjust="spacingAndGlyphs"
text-anchor="start" opacity="0">Power</text>
<g class="stroked-text"><desc>Power</desc>
<path d="M134.7234 131.1294
L134.7234 130.1294
" />
<path d="M134.7234 130.1294
L135.1044 130.1294
" />
<path d="M135.1044 130.1294
L135.1996 130.1770
" />
<path d="M135.1996 130.1770
L135.2472 130.2246
" />
<path d="M135.2472 130.2246
L135.2948 130.3198
" />
<path d="M135.2948 130.3198
L135.2948 130.4627
" />
<path d="M135.2948 130.4627
L135.2472 130.5579
" />
<path d="M135.2472 130.5579
L135.1996 130.6055
" />
<path d="M135.1996 130.6055
L135.1044 130.6532
" />
<path d="M135.1044 130.6532
L134.7234 130.6532
" />
<path d="M135.8663 131.1294
L135.7710 131.0817
" />
<path d="M135.7710 131.0817
L135.7234 131.0341
" />
<path d="M135.7234 131.0341
L135.6758 130.9389
" />
<path d="M135.6758 130.9389
L135.6758 130.6532
" />
<path d="M135.6758 130.6532
L135.7234 130.5579
" />
<path d="M135.7234 130.5579
L135.7710 130.5103
" />
<path d="M135.7710 130.5103
L135.8663 130.4627
" />
<path d="M135.8663 130.4627
L136.0091 130.4627
" />
<path d="M136.0091 130.4627
L136.1044 130.5103
" />
<path d="M136.1044 130.5103
L136.1520 130.5579
" />
<path d="M136.1520 130.5579
L136.1996 130.6532
" />
<path d="M136.1996 130.6532
L136.1996 130.9389
" />
<path d="M136.1996 130.9389
L136.1520 131.0341
" />
<path d="M136.1520 131.0341
L136.1044 131.0817
" />
<path d="M136.1044 131.0817
L136.0091 131.1294
" />
<path d="M136.0091 131.1294
L135.8663 131.1294
" />
<path d="M136.5329 130.4627
L136.7234 131.1294
" />
<path d="M136.7234 131.1294
L136.9139 130.6532
" />
<path d="M136.9139 130.6532
L137.1044 131.1294
" />
<path d="M137.1044 131.1294
L137.2948 130.4627
" />
<path d="M138.0568 131.0817
L137.9615 131.1294
" />
<path d="M137.9615 131.1294
L137.7710 131.1294
" />
<path d="M137.7710 131.1294
L137.6758 131.0817
" />
<path d="M137.6758 131.0817
L137.6282 130.9865
" />
<path d="M137.6282 130.9865
L137.6282 130.6055
" />
<path d="M137.6282 130.6055
L137.6758 130.5103
" />
<path d="M137.6758 130.5103
L137.7710 130.4627
" />
<path d="M137.7710 130.4627
L137.9615 130.4627
" />
<path d="M137.9615 130.4627
L138.0568 130.5103
" />
<path d="M138.0568 130.5103
L138.1044 130.6055
" />
<path d="M138.1044 130.6055
L138.1044 130.7008
" />
<path d="M138.1044 130.7008
L137.6282 130.7960
" />
<path d="M138.5329 131.1294
L138.5329 130.4627
" />
<path d="M138.5329 130.6532
L138.5806 130.5579
" />
<path d="M138.5806 130.5579
L138.6282 130.5103
" />
<path d="M138.6282 130.5103
L138.7234 130.4627
" />
<path d="M138.7234 130.4627
L138.8187 130.4627
" />
</g><text x="151.6239" y="75.8920"
textLength="6.6714" font-size="1.3333" lengthAdjust="spacingAndGlyphs"
text-anchor="start" opacity="0">Digital 2</text>
<g class="stroked-text"><desc>Digital 2</desc>
<path d="M151.9278 75.7644
L151.9278 74.7644
" />
<path d="M151.9278 74.7644
L152.1659 74.7644
" />
<path d="M152.1659 74.7644
L152.3088 74.8121
" />
<path d="M152.3088 74.8121
L152.4040 74.9073
" />
<path d="M152.4040 74.9073
L152.4516 75.0025
" />
<path d="M152.4516 75.0025
L152.4993 75.1930
" />
<path d="M152.4993 75.1930
L152.4993 75.3359
" />
<path d="M152.4993 75.3359
L152.4516 75.5263
" />
<path d="M152.4516 75.5263
L152.4040 75.6216
" />
<path d="M152.4040 75.6216
L152.3088 75.7168
" />
<path d="M152.3088 75.7168
L152.1659 75.7644
" />
<path d="M152.1659 75.7644
L151.9278 75.7644
" />
<path d="M152.9278 75.7644
L152.9278 75.0978
" />
<path d="M152.9278 74.7644
L152.8802 74.8121
" />
<path d="M152.8802 74.8121
L152.9278 74.8597
" />
<path d="M152.9278 74.8597
L152.9754 74.8121
" />
<path d="M152.9754 74.8121
L152.9278 74.7644
" />
<path d="M152.9278 74.7644
L152.9278 74.8597
" />
<path d="M153.8326 75.0978
L153.8326 75.9073
" />
<path d="M153.8326 75.9073
L153.7850 76.0025
" />
<path d="M153.7850 76.0025
L153.7374 76.0501
" />
<path d="M153.7374 76.0501
L153.6421 76.0978
" />
<path d="M153.6421 76.0978
L153.4993 76.0978
" />
<path d="M153.4993 76.0978
L153.4040 76.0501
" />
<path d="M153.8326 75.7168
L153.7374 75.7644
" />
<path d="M153.7374 75.7644
L153.5469 75.7644
" />
<path d="M153.5469 75.7644
L153.4516 75.7168
" />
<path d="M153.4516 75.7168
L153.4040 75.6692
" />
<path d="M153.4040 75.6692
L153.3564 75.5740
" />
<path d="M153.3564 75.5740
L153.3564 75.2882
" />
<path d="M153.3564 75.2882
L153.4040 75.1930
" />
<path d="M153.4040 75.1930
L153.4516 75.1454
" />
<path d="M153.4516 75.1454
L153.5469 75.0978
" />
<path d="M153.5469 75.0978
L153.7374 75.0978
" />
<path d="M153.7374 75.0978
L153.8326 75.1454
" />
<path d="M154.3088 75.7644
L154.3088 75.0978
" />
<path d="M154.3088 74.7644
L154.2612 74.8121
" />
<path d="M154.2612 74.8121
L154.3088 74.8597
" />
<path d="M154.3088 74.8597
L154.3564 74.8121
" />
<path d="M154.3564 74.8121
L154.3088 74.7644
" />
<path d="M154.3088 74.7644
L154.3088 74.8597
" />
<path d="M154.6421 75.0978
L155.0231 75.0978
" />
<path d="M154.7850 74.7644
L154.7850 75.6216
" />
<path d="M154.7850 75.6216
L154.8326 75.7168
" />
<path d="M154.8326 75.7168
L154.9278 75.7644
" />
<path d="M154.9278 75.7644
L155.0231 75.7644
" />
<path d="M155.7850 75.7644
L155.7850 75.2406
" />
<path d="M155.7850 75.2406
L155.7374 75.1454
" />
<path d="M155.7374 75.1454
L155.6421 75.0978
" />
<path d="M155.6421 75.0978
L155.4516 75.0978
" />
<path d="M155.4516 75.0978
L155.3564 75.1454
" />
<path d="M155.7850 75.7168
L155.6897 75.7644
" />
<path d="M155.6897 75.7644
L155.4516 75.7644
" />
<path d="M155.4516 75.7644
L155.3564 75.7168
" />
<path d="M155.3564 75.7168
L155.3088 75.6216
" />
<path d="M155.3088 75.6216
L155.3088 75.5263
" />
<path d="M155.3088 75.5263
L155.3564 75.4311
" />
<path d="M155.3564 75.4311
L155.4516 75.3835
" />
<path d="M155.4516 75.3835
L155.6897 75.3835
" />
<path d="M155.6897 75.3835
L155.7850 75.3359
" />
<path d="M156.4040 75.7644
L156.3088 75.7168
" />
<path d="M156.3088 75.7168
L156.2612 75.6216
" />
<path d="M156.2612 75.6216
L156.2612 74.7644
" />
<path d="M157.4993 74.8597
L157.5469 74.8121
" />
<path d="M157.5469 74.8121
L157.6421 74.7644
" />
<path d="M157.6421 74.7644
L157.8802 74.7644
" />
<path d="M157.8802 74.7644
L157.9754 74.8121
" />
<path d="M157.9754 74.8121
L158.0231 74.8597
" />
<path d="M158.0231 74.8597
L158.0707 74.9549
" />
<path d="M158.0707 74.9549
L158.0707 75.0501
" />
<path d="M158.0707 75.0501
L158.0231 75.1930
" />
<path d="M158.0231 75.1930
L157.4516 75.7644
" />
<path d="M157.4516 75.7644
L158.0707 75.7644
" />
</g></g>
<g style="fill:none; 
stroke:#000000; stroke-width:0.0500; stroke-opacity:1; 
stroke-linecap:round; stroke-linejoin:round;">
<path d="M168.7846 125.1732
L168.7846 91.9333
" />
<path d="M100.0000 76.4060
L100.0000 130.0000
" />
<path d="M168.7846 91.9333
L166.2455 89.4365
" />
<path d="M166.2455 77.9749
L164.6766 76.4060
" />
<path d="M163.9578 130.0000
L168.7846 125.1732
" />
<path d="M100.0000 130.0000
L163.9578 130.0000
" />
<path d="M164.6766 76.4060
L100.0000 76.4060
" />
<path d="M166.2455 89.0769
L166.2455 77.9749
" />
<path d="M166.2455 89.4365
L166.2455 89.0769
" />
</g> 
</svg>
