<?xml version="1.0" standalone="no"?>
 <!DOCTYPE svg PUBLIC "-//W3C//DTD SVG 1.1//EN" 
 "http://www.w3.org/Graphics/SVG/1.1/DTD/svg11.dtd"> 
<svg
  xmlns:svg="http://www.w3.org/2000/svg"
  xmlns="http://www.w3.org/2000/svg"
  xmlns:xlink="http://www.w3.org/1999/xlink"
  version="1.1"
  width="297.0022mm" height="210.0072mm" viewBox="0.0000 0.0000 297.0022 210.0072">
<title>SVG Image created as Arduino_Basic_Shield-F_Fab.svg date 2024/12/05 13:03:28 </title>
  <desc>Image generated by PCBNEW </desc>
<g style="fill:#000000; fill-opacity:1.0000;stroke:#000000; stroke-opacity:1.0000;
stroke-linecap:round; stroke-linejoin:round;"
 transform="translate(0 0) scale(1 1)">
</g>
<g style="fill:none; 
stroke:#000000; stroke-width:0.1500; stroke-opacity:1; 
stroke-linecap:round; stroke-linejoin:round;">
<g transform="rotate(-270.000000 137.2000 121.0000)">
<text x="137.2000" y="121.5000"
textLength="0.9643" font-size="1.3333" lengthAdjust="spacingAndGlyphs"
text-anchor="middle" opacity="0">~</text>
</g>
<g class="stroked-text"><desc>~</desc>
<path d="M137.1261 120.7381
L137.1738 120.7857
" />
<path d="M137.1738 120.7857
L137.2214 120.8810
" />
<path d="M137.2214 120.8810
L137.1261 121.0714
" />
<path d="M137.1261 121.0714
L137.1738 121.1667
" />
<path d="M137.1738 121.1667
L137.2214 121.2143
" />
</g></g>
<g style="fill:none; 
stroke:#000000; stroke-width:0.0800; stroke-opacity:1; 
stroke-linecap:round; stroke-linejoin:round;">
<g transform="rotate(-90.000000 142.2000 121.0000)">
<text x="142.2000" y="121.2500"
textLength="1.1162" font-size="0.6667" lengthAdjust="spacingAndGlyphs"
text-anchor="middle" opacity="0">R1</text>
</g>
<g class="stroked-text"><desc>R1</desc>
<path d="M142.4271 121.0833
L142.1891 121.2500
" />
<path d="M142.4271 121.3690
L141.9271 121.3690
" />
<path d="M141.9271 121.3690
L141.9271 121.1786
" />
<path d="M141.9271 121.1786
L141.9510 121.1310
" />
<path d="M141.9510 121.1310
L141.9748 121.1071
" />
<path d="M141.9748 121.1071
L142.0224 121.0833
" />
<path d="M142.0224 121.0833
L142.0938 121.0833
" />
<path d="M142.0938 121.0833
L142.1414 121.1071
" />
<path d="M142.1414 121.1071
L142.1652 121.1310
" />
<path d="M142.1652 121.1310
L142.1891 121.1786
" />
<path d="M142.1891 121.1786
L142.1891 121.3690
" />
<path d="M142.4271 120.6071
L142.4271 120.8929
" />
<path d="M142.4271 120.7500
L141.9271 120.7500
" />
<path d="M141.9271 120.7500
L141.9986 120.7976
" />
<path d="M141.9986 120.7976
L142.0462 120.8452
" />
<path d="M142.0462 120.8452
L142.0700 120.8929
" />
</g></g>
<g style="fill:none; 
stroke:#000000; stroke-width:0.1500; stroke-opacity:1; 
stroke-linecap:round; stroke-linejoin:round;">
<g transform="rotate(-270.000000 146.2000 114.6000)">
<text x="146.2000" y="115.1000"
textLength="0.9643" font-size="1.3333" lengthAdjust="spacingAndGlyphs"
text-anchor="middle" opacity="0">~</text>
</g>
<g class="stroked-text"><desc>~</desc>
<path d="M146.1261 114.3381
L146.1738 114.3857
" />
<path d="M146.1738 114.3857
L146.2214 114.4810
" />
<path d="M146.2214 114.4810
L146.1261 114.6714
" />
<path d="M146.1261 114.6714
L146.1738 114.7667
" />
<path d="M146.1738 114.7667
L146.2214 114.8143
" />
</g><g transform="rotate(-270.000000 144.7000 114.6000)">
<text x="144.7000" y="115.1000"
textLength="2.2024" font-size="1.3333" lengthAdjust="spacingAndGlyphs"
text-anchor="middle" opacity="0">D1</text>
</g>
<g class="stroked-text"><desc>D1</desc>
<path d="M144.2452 113.8619
L145.2452 113.8619
" />
<path d="M145.2452 113.8619
L145.2452 114.1000
" />
<path d="M145.2452 114.1000
L145.1976 114.2429
" />
<path d="M145.1976 114.2429
L145.1023 114.3381
" />
<path d="M145.1023 114.3381
L145.0071 114.3857
" />
<path d="M145.0071 114.3857
L144.8166 114.4333
" />
<path d="M144.8166 114.4333
L144.6738 114.4333
" />
<path d="M144.6738 114.4333
L144.4833 114.3857
" />
<path d="M144.4833 114.3857
L144.3880 114.3381
" />
<path d="M144.3880 114.3381
L144.2928 114.2429
" />
<path d="M144.2928 114.2429
L144.2452 114.1000
" />
<path d="M144.2452 114.1000
L144.2452 113.8619
" />
<path d="M144.2452 115.3857
L144.2452 114.8143
" />
<path d="M144.2452 115.1000
L145.2452 115.1000
" />
<path d="M145.2452 115.1000
L145.1023 115.0048
" />
<path d="M145.1023 115.0048
L145.0071 114.9095
" />
<path d="M145.0071 114.9095
L144.9595 114.8143
" />
</g></g>
<g style="fill:none; 
stroke:#000000; stroke-width:0.1200; stroke-opacity:1; 
stroke-linecap:round; stroke-linejoin:round;">
<g transform="rotate(-90.000000 135.2050 118.3600)">
<text x="135.2050" y="118.6000"
textLength="0.8583" font-size="0.6400" lengthAdjust="spacingAndGlyphs"
text-anchor="middle" opacity="0">+</text>
</g>
<g class="stroked-text"><desc>+</desc>
<path d="M135.2380 118.5429
L135.2380 118.1771
" />
<path d="M135.4208 118.3600
L135.0551 118.3600
" />
</g></g>
<g style="fill:none; 
stroke:#000000; stroke-width:0.1500; stroke-opacity:1; 
stroke-linecap:round; stroke-linejoin:round;">
<g transform="rotate(-270.000000 149.7000 114.6000)">
<text x="149.7000" y="115.1000"
textLength="0.9643" font-size="1.3333" lengthAdjust="spacingAndGlyphs"
text-anchor="middle" opacity="0">~</text>
</g>
<g class="stroked-text"><desc>~</desc>
<path d="M149.6261 114.3381
L149.6738 114.3857
" />
<path d="M149.6738 114.3857
L149.7214 114.4810
" />
<path d="M149.7214 114.4810
L149.6261 114.6714
" />
<path d="M149.6261 114.6714
L149.6738 114.7667
" />
<path d="M149.6738 114.7667
L149.7214 114.8143
" />
</g><g transform="rotate(-270.000000 148.2000 114.6000)">
<text x="148.2000" y="115.1000"
textLength="2.2024" font-size="1.3333" lengthAdjust="spacingAndGlyphs"
text-anchor="middle" opacity="0">D2</text>
</g>
<g class="stroked-text"><desc>D2</desc>
<path d="M147.7452 113.8619
L148.7452 113.8619
" />
<path d="M148.7452 113.8619
L148.7452 114.1000
" />
<path d="M148.7452 114.1000
L148.6976 114.2429
" />
<path d="M148.6976 114.2429
L148.6023 114.3381
" />
<path d="M148.6023 114.3381
L148.5071 114.3857
" />
<path d="M148.5071 114.3857
L148.3166 114.4333
" />
<path d="M148.3166 114.4333
L148.1738 114.4333
" />
<path d="M148.1738 114.4333
L147.9833 114.3857
" />
<path d="M147.9833 114.3857
L147.8880 114.3381
" />
<path d="M147.8880 114.3381
L147.7928 114.2429
" />
<path d="M147.7928 114.2429
L147.7452 114.1000
" />
<path d="M147.7452 114.1000
L147.7452 113.8619
" />
<path d="M148.6499 114.8143
L148.6976 114.8619
" />
<path d="M148.6976 114.8619
L148.7452 114.9571
" />
<path d="M148.7452 114.9571
L148.7452 115.1952
" />
<path d="M148.7452 115.1952
L148.6976 115.2905
" />
<path d="M148.6976 115.2905
L148.6499 115.3381
" />
<path d="M148.6499 115.3381
L148.5547 115.3857
" />
<path d="M148.5547 115.3857
L148.4595 115.3857
" />
<path d="M148.4595 115.3857
L148.3166 115.3381
" />
<path d="M148.3166 115.3381
L147.7452 114.7667
" />
<path d="M147.7452 114.7667
L147.7452 115.3857
" />
</g></g>
<g style="fill:none; 
stroke:#000000; stroke-width:0.1200; stroke-opacity:1; 
stroke-linecap:round; stroke-linejoin:round;">
<g transform="rotate(-90.000000 138.7050 118.3600)">
<text x="138.7050" y="118.6000"
textLength="0.8583" font-size="0.6400" lengthAdjust="spacingAndGlyphs"
text-anchor="middle" opacity="0">+</text>
</g>
<g class="stroked-text"><desc>+</desc>
<path d="M138.7380 118.5429
L138.7380 118.1771
" />
<path d="M138.9208 118.3600
L138.5551 118.3600
" />
</g></g>
<g style="fill:none; 
stroke:#000000; stroke-width:0.1500; stroke-opacity:1; 
stroke-linecap:round; stroke-linejoin:round;">
<text x="115.0000" y="127.9600"
textLength="4.5357" font-size="1.3333" lengthAdjust="spacingAndGlyphs"
text-anchor="middle" opacity="0">REF**</text>
<g class="stroked-text"><desc>REF**</desc>
<path d="M113.6667 127.9148
L113.3333 127.4386
" />
<path d="M113.0952 127.9148
L113.0952 126.9148
" />
<path d="M113.0952 126.9148
L113.4762 126.9148
" />
<path d="M113.4762 126.9148
L113.5714 126.9624
" />
<path d="M113.5714 126.9624
L113.6190 127.0101
" />
<path d="M113.6190 127.0101
L113.6667 127.1053
" />
<path d="M113.6667 127.1053
L113.6667 127.2482
" />
<path d="M113.6667 127.2482
L113.6190 127.3434
" />
<path d="M113.6190 127.3434
L113.5714 127.3910
" />
<path d="M113.5714 127.3910
L113.4762 127.4386
" />
<path d="M113.4762 127.4386
L113.0952 127.4386
" />
<path d="M114.0952 127.3910
L114.4286 127.3910
" />
<path d="M114.5714 127.9148
L114.0952 127.9148
" />
<path d="M114.0952 127.9148
L114.0952 126.9148
" />
<path d="M114.0952 126.9148
L114.5714 126.9148
" />
<path d="M115.3333 127.3910
L115.0000 127.3910
" />
<path d="M115.0000 127.9148
L115.0000 126.9148
" />
<path d="M115.0000 126.9148
L115.4762 126.9148
" />
<path d="M116.0000 126.9148
L116.0000 127.1529
" />
<path d="M115.7619 127.0577
L116.0000 127.1529
" />
<path d="M116.0000 127.1529
L116.2381 127.0577
" />
<path d="M115.8571 127.3434
L116.0000 127.1529
" />
<path d="M116.0000 127.1529
L116.1429 127.3434
" />
<path d="M116.7619 126.9148
L116.7619 127.1529
" />
<path d="M116.5238 127.0577
L116.7619 127.1529
" />
<path d="M116.7619 127.1529
L117.0000 127.0577
" />
<path d="M116.6190 127.3434
L116.7619 127.1529
" />
<path d="M116.7619 127.1529
L116.9048 127.3434
" />
</g><g transform="rotate(-270.000000 133.7000 121.0000)">
<text x="133.7000" y="121.5000"
textLength="0.9643" font-size="1.3333" lengthAdjust="spacingAndGlyphs"
text-anchor="middle" opacity="0">~</text>
</g>
<g class="stroked-text"><desc>~</desc>
<path d="M133.6261 120.7381
L133.6738 120.7857
" />
<path d="M133.6738 120.7857
L133.7214 120.8810
" />
<path d="M133.7214 120.8810
L133.6261 121.0714
" />
<path d="M133.6261 121.0714
L133.6738 121.1667
" />
<path d="M133.6738 121.1667
L133.7214 121.2143
" />
</g></g>
<g style="fill:none; 
stroke:#000000; stroke-width:0.0800; stroke-opacity:1; 
stroke-linecap:round; stroke-linejoin:round;">
<g transform="rotate(-90.000000 138.7000 121.0000)">
<text x="138.7000" y="121.2500"
textLength="1.1162" font-size="0.6667" lengthAdjust="spacingAndGlyphs"
text-anchor="middle" opacity="0">R2</text>
</g>
<g class="stroked-text"><desc>R2</desc>
<path d="M138.9271 121.0833
L138.6891 121.2500
" />
<path d="M138.9271 121.3690
L138.4271 121.3690
" />
<path d="M138.4271 121.3690
L138.4271 121.1786
" />
<path d="M138.4271 121.1786
L138.4510 121.1310
" />
<path d="M138.4510 121.1310
L138.4748 121.1071
" />
<path d="M138.4748 121.1071
L138.5224 121.0833
" />
<path d="M138.5224 121.0833
L138.5938 121.0833
" />
<path d="M138.5938 121.0833
L138.6414 121.1071
" />
<path d="M138.6414 121.1071
L138.6652 121.1310
" />
<path d="M138.6652 121.1310
L138.6891 121.1786
" />
<path d="M138.6891 121.1786
L138.6891 121.3690
" />
<path d="M138.4748 120.8929
L138.4510 120.8690
" />
<path d="M138.4510 120.8690
L138.4271 120.8214
" />
<path d="M138.4271 120.8214
L138.4271 120.7024
" />
<path d="M138.4271 120.7024
L138.4510 120.6548
" />
<path d="M138.4510 120.6548
L138.4748 120.6310
" />
<path d="M138.4748 120.6310
L138.5224 120.6071
" />
<path d="M138.5224 120.6071
L138.5700 120.6071
" />
<path d="M138.5700 120.6071
L138.6414 120.6310
" />
<path d="M138.6414 120.6310
L138.9271 120.9167
" />
<path d="M138.9271 120.9167
L138.9271 120.6071
" />
</g></g>
<g style="fill:none; 
stroke:#000000; stroke-width:0.1500; stroke-opacity:1; 
stroke-linecap:round; stroke-linejoin:round;">
<text x="166.0400" y="94.9400"
textLength="4.5357" font-size="1.3333" lengthAdjust="spacingAndGlyphs"
text-anchor="middle" opacity="0">REF**</text>
<g class="stroked-text"><desc>REF**</desc>
<path d="M164.7067 94.8948
L164.3733 94.4186
" />
<path d="M164.1352 94.8948
L164.1352 93.8948
" />
<path d="M164.1352 93.8948
L164.5162 93.8948
" />
<path d="M164.5162 93.8948
L164.6114 93.9424
" />
<path d="M164.6114 93.9424
L164.6590 93.9901
" />
<path d="M164.6590 93.9901
L164.7067 94.0853
" />
<path d="M164.7067 94.0853
L164.7067 94.2282
" />
<path d="M164.7067 94.2282
L164.6590 94.3234
" />
<path d="M164.6590 94.3234
L164.6114 94.3710
" />
<path d="M164.6114 94.3710
L164.5162 94.4186
" />
<path d="M164.5162 94.4186
L164.1352 94.4186
" />
<path d="M165.1352 94.3710
L165.4686 94.3710
" />
<path d="M165.6114 94.8948
L165.1352 94.8948
" />
<path d="M165.1352 94.8948
L165.1352 93.8948
" />
<path d="M165.1352 93.8948
L165.6114 93.8948
" />
<path d="M166.3733 94.3710
L166.0400 94.3710
" />
<path d="M166.0400 94.8948
L166.0400 93.8948
" />
<path d="M166.0400 93.8948
L166.5162 93.8948
" />
<path d="M167.0400 93.8948
L167.0400 94.1329
" />
<path d="M166.8019 94.0377
L167.0400 94.1329
" />
<path d="M167.0400 94.1329
L167.2781 94.0377
" />
<path d="M166.8971 94.3234
L167.0400 94.1329
" />
<path d="M167.0400 94.1329
L167.1829 94.3234
" />
<path d="M167.8019 93.8948
L167.8019 94.1329
" />
<path d="M167.5638 94.0377
L167.8019 94.1329
" />
<path d="M167.8019 94.1329
L168.0400 94.0377
" />
<path d="M167.6590 94.3234
L167.8019 94.1329
" />
<path d="M167.8019 94.1329
L167.9448 94.3234
" />
</g><text x="115.2400" y="79.7000"
textLength="4.5357" font-size="1.3333" lengthAdjust="spacingAndGlyphs"
text-anchor="middle" opacity="0">REF**</text>
<g class="stroked-text"><desc>REF**</desc>
<path d="M113.9067 79.6548
L113.5733 79.1786
" />
<path d="M113.3352 79.6548
L113.3352 78.6548
" />
<path d="M113.3352 78.6548
L113.7162 78.6548
" />
<path d="M113.7162 78.6548
L113.8114 78.7024
" />
<path d="M113.8114 78.7024
L113.8590 78.7501
" />
<path d="M113.8590 78.7501
L113.9067 78.8453
" />
<path d="M113.9067 78.8453
L113.9067 78.9882
" />
<path d="M113.9067 78.9882
L113.8590 79.0834
" />
<path d="M113.8590 79.0834
L113.8114 79.1310
" />
<path d="M113.8114 79.1310
L113.7162 79.1786
" />
<path d="M113.7162 79.1786
L113.3352 79.1786
" />
<path d="M114.3352 79.1310
L114.6686 79.1310
" />
<path d="M114.8114 79.6548
L114.3352 79.6548
" />
<path d="M114.3352 79.6548
L114.3352 78.6548
" />
<path d="M114.3352 78.6548
L114.8114 78.6548
" />
<path d="M115.5733 79.1310
L115.2400 79.1310
" />
<path d="M115.2400 79.6548
L115.2400 78.6548
" />
<path d="M115.2400 78.6548
L115.7162 78.6548
" />
<path d="M116.2400 78.6548
L116.2400 78.8929
" />
<path d="M116.0019 78.7977
L116.2400 78.8929
" />
<path d="M116.2400 78.8929
L116.4781 78.7977
" />
<path d="M116.0971 79.0834
L116.2400 78.8929
" />
<path d="M116.2400 78.8929
L116.3829 79.0834
" />
<path d="M117.0019 78.6548
L117.0019 78.8929
" />
<path d="M116.7638 78.7977
L117.0019 78.8929
" />
<path d="M117.0019 78.8929
L117.2400 78.7977
" />
<path d="M116.8590 79.0834
L117.0019 78.8929
" />
<path d="M117.0019 78.8929
L117.1448 79.0834
" />
</g><text x="166.0400" y="122.8800"
textLength="4.5357" font-size="1.3333" lengthAdjust="spacingAndGlyphs"
text-anchor="middle" opacity="0">REF**</text>
<g class="stroked-text"><desc>REF**</desc>
<path d="M164.7067 122.8348
L164.3733 122.3586
" />
<path d="M164.1352 122.8348
L164.1352 121.8348
" />
<path d="M164.1352 121.8348
L164.5162 121.8348
" />
<path d="M164.5162 121.8348
L164.6114 121.8824
" />
<path d="M164.6114 121.8824
L164.6590 121.9301
" />
<path d="M164.6590 121.9301
L164.7067 122.0253
" />
<path d="M164.7067 122.0253
L164.7067 122.1682
" />
<path d="M164.7067 122.1682
L164.6590 122.2634
" />
<path d="M164.6590 122.2634
L164.6114 122.3110
" />
<path d="M164.6114 122.3110
L164.5162 122.3586
" />
<path d="M164.5162 122.3586
L164.1352 122.3586
" />
<path d="M165.1352 122.3110
L165.4686 122.3110
" />
<path d="M165.6114 122.8348
L165.1352 122.8348
" />
<path d="M165.1352 122.8348
L165.1352 121.8348
" />
<path d="M165.1352 121.8348
L165.6114 121.8348
" />
<path d="M166.3733 122.3110
L166.0400 122.3110
" />
<path d="M166.0400 122.8348
L166.0400 121.8348
" />
<path d="M166.0400 121.8348
L166.5162 121.8348
" />
<path d="M167.0400 121.8348
L167.0400 122.0729
" />
<path d="M166.8019 121.9777
L167.0400 122.0729
" />
<path d="M167.0400 122.0729
L167.2781 121.9777
" />
<path d="M166.8971 122.2634
L167.0400 122.0729
" />
<path d="M167.0400 122.0729
L167.1829 122.2634
" />
<path d="M167.8019 121.8348
L167.8019 122.0729
" />
<path d="M167.5638 121.9777
L167.8019 122.0729
" />
<path d="M167.8019 122.0729
L168.0400 121.9777
" />
<path d="M167.6590 122.2634
L167.8019 122.0729
" />
<path d="M167.8019 122.0729
L167.9448 122.2634
" />
</g></g>
<g style="fill:none; 
stroke:#000000; stroke-width:0.1000; stroke-opacity:1; 
stroke-linecap:round; stroke-linejoin:round;">
<path d="M139.6250 120.0000
L139.6250 122.0000
" />
<path d="M138.3750 120.0000
L139.6250 120.0000
" />
<path d="M139.6250 122.0000
L138.3750 122.0000
" />
<path d="M138.3750 122.0000
L138.3750 120.0000
" />
<path d="M136.1300 115.4600
L136.1300 117.4600
" />
<path d="M134.8800 115.4600
L136.1300 115.4600
" />
<path d="M134.8800 115.4600
L134.8800 117.4600
" />
<path d="M135.5050 116.3300
L135.6450 116.5700
" />
<path d="M135.6450 116.5700
L135.3550 116.5700
" />
<path d="M135.3550 116.5700
L135.5050 116.3300
" />
<path d="M136.1300 117.4600
L134.8800 117.4600
" />
<path d="M139.6300 115.4600
L139.6300 117.4600
" />
<path d="M138.3800 115.4600
L139.6300 115.4600
" />
<path d="M138.3800 115.4600
L138.3800 117.4600
" />
<path d="M139.0050 116.3300
L139.1450 116.5700
" />
<path d="M139.1450 116.5700
L138.8550 116.5700
" />
<path d="M138.8550 116.5700
L139.0050 116.3300
" />
<path d="M139.6300 117.4600
L138.3800 117.4600
" />
<path d="M136.1250 120.0000
L136.1250 122.0000
" />
<path d="M134.8750 120.0000
L136.1250 120.0000
" />
<path d="M136.1250 122.0000
L134.8750 122.0000
" />
<path d="M134.8750 122.0000
L134.8750 120.0000
" />
</g>
<g style="fill:none; 
stroke:#000000; stroke-width:0.0500; stroke-opacity:1; 
stroke-linecap:round; stroke-linejoin:round;">
<path d="M168.7846 125.1732
L168.7846 91.9333
" />
<path d="M100.0000 76.4060
L100.0000 130.0000
" />
<path d="M168.7846 91.9333
L166.2455 89.4365
" />
<path d="M166.2455 77.9749
L164.6766 76.4060
" />
<path d="M163.9578 130.0000
L168.7846 125.1732
" />
<path d="M100.0000 130.0000
L163.9578 130.0000
" />
<path d="M164.6766 76.4060
L100.0000 76.4060
" />
<path d="M166.2455 89.0769
L166.2455 77.9749
" />
<path d="M166.2455 89.4365
L166.2455 89.0769
" />
</g> 
</svg>
